M48
; DRILL file KiCad 10.0.5 date 2026-08-23T16:38:37
; FORMAT={-:-/ absolute / metric / decimal}
; #@! TF.CreationDate,2026-08-23T16:38:37+05:30
; #@! TF.GenerationSoftware,Kicad,Pcbnew,10.0.5
; #@! TF.FileFunction,Plated,1,2,PTH
FMAT,2
METRIC
; #@! TA.AperFunction,Plated,PTH,ViaDrill
T1C0.300
; #@! TA.AperFunction,Plated,PTH,ComponentDrill
T2C0.890
; #@! TA.AperFunction,Plated,PTH,ComponentDrill
T3C1.000
%
G90
G05
T1
X134.085Y-54.135
X134.703Y-54.753
X136.47Y-53.84
X138.843Y-65.573
X140.26Y-65.553
X142.06Y-65.65
X143.86Y-65.61
X144.05Y-59.579
X144.151Y-54.372
X144.91Y-54.1
X145.347Y-68.989
X145.37Y-59.55
X145.66Y-62.357
X146.06Y-54.19
X146.134Y-68.227
X146.56Y-60.57
X146.84Y-67.52
X146.859Y-62.363
X147.159Y-54.336
X147.56Y-60.49
X148.25Y-59.66
X148.48Y-70.36
X149.106Y-69.751
X149.19Y-60.38
X149.513Y-66.386
X150.08Y-45.9
X150.37Y-72.16
X150.4Y-65.497
X150.7Y-59.49
X150.96Y-71.579
X151.863Y-67.553
X151.97Y-73.87
X152.259Y-66.782
X152.611Y-73.231
X153.513Y-75.618
X153.523Y-69.043
X153.549Y-60.951
X154.057Y-65.726
X154.44Y-76.19
X154.55Y-61.06
X155.126Y-70.716
X155.17Y-75.81
X155.19Y-61.76
X155.99Y-75.262
X156.11Y-61.29
X156.244Y-65.941
X156.47Y-57.801
X156.802Y-74.729
X157.23Y-62.48
X157.36Y-57.776
X157.867Y-67.822
X158.42Y-57.47
X158.579Y-67.238
X158.859Y-62.603
X159.29Y-67.768
X160.01Y-61.98
X160.03Y-57.46
X160.12Y-66.29
X160.84Y-67.09
X160.87Y-57.45
X161.0Y-62.01
X161.59Y-66.37
X161.8Y-57.45
X161.97Y-62.04
X162.23Y-67.13
X162.94Y-62.07
X169.7Y-58.8
X170.491Y-58.131
X171.07Y-57.52
X178.05Y-54.06
X179.178Y-57.776
X179.889Y-62.424
X180.11Y-57.75
X181.04Y-62.424
X181.09Y-57.64
X181.64Y-54.14
X182.32Y-53.51
X182.86Y-96.37
X183.07Y-57.68
X184.02Y-52.5
X184.93Y-57.66
X185.274Y-62.424
X185.53Y-54.01
X186.1Y-50.84
X186.601Y-82.267
X186.76Y-57.331
X187.28Y-50.2
X187.673Y-86.619
X188.297Y-85.96
X188.75Y-57.35
X189.15Y-47.24
X189.96Y-91.95
X189.99Y-44.83
X190.18Y-51.12
X190.51Y-57.28
X190.557Y-83.099
X190.67Y-95.23
X190.89Y-86.69
X192.159Y-54.399
X192.17Y-65.57
X192.593Y-83.001
X192.83Y-47.24
X193.377Y-67.021
X193.58Y-86.3
X193.959Y-54.41
X194.0Y-44.55
X194.345Y-87.065
X194.799Y-62.373
X195.56Y-49.34
X195.56Y-54.09
X196.959Y-54.446
X197.263Y-65.7
X197.263Y-66.488
X197.314Y-61.332
X197.37Y-59.99
X197.47Y-53.55
X197.815Y-61.909
X197.847Y-54.296
X197.94Y-60.57
X197.96Y-69.4
X198.13Y-50.23
X198.15Y-48.17
X198.35Y-53.64
X198.585Y-68.658
X199.03Y-47.79
X199.14Y-54.26
X199.219Y-65.396
X199.79Y-65.92
X199.83Y-48.08
X200.057Y-64.71
X200.71Y-96.02
X200.92Y-91.96
X202.08Y-51.25
X202.82Y-72.05
X202.96Y-53.17
X204.5Y-92.33
X209.18Y-90.28
X209.82Y-91.8
X209.963Y-66.552
X210.3Y-92.51
T2
X188.12Y-93.68
X188.12Y-98.76
X190.66Y-93.68
X193.2Y-93.68
X193.2Y-98.76
X196.89Y-93.79
X196.89Y-98.87
X199.43Y-93.79
X201.97Y-93.79
X201.97Y-98.87
T3
X127.75Y-54.36
X127.75Y-56.9
X127.75Y-59.44
X127.75Y-61.98
X127.75Y-64.52
X127.75Y-67.06
X127.75Y-77.21
X127.75Y-79.75
X127.75Y-82.29
X127.75Y-84.83
X127.75Y-87.37
X127.75Y-89.91
X130.29Y-54.36
X130.29Y-56.9
X130.29Y-59.44
X130.29Y-61.98
X130.29Y-64.52
X130.29Y-67.06
X130.29Y-77.21
X130.29Y-79.75
X130.29Y-82.29
X130.29Y-84.83
X130.29Y-87.37
X130.29Y-89.91
X132.3Y-47.96
X132.3Y-50.5
X132.36Y-94.0
X132.36Y-96.54
X134.84Y-47.96
X134.84Y-50.5
X134.9Y-94.0
X134.9Y-96.54
X137.38Y-47.96
X137.38Y-50.5
X137.44Y-94.0
X137.44Y-96.54
X139.92Y-47.96
X139.92Y-50.5
X139.98Y-94.0
X139.98Y-96.54
X142.46Y-47.96
X142.46Y-50.5
X142.52Y-94.0
X142.52Y-96.54
X145.0Y-47.96
X145.0Y-50.5
X145.06Y-94.0
X145.06Y-96.54
X147.54Y-47.96
X147.54Y-50.5
X147.6Y-94.0
X147.6Y-96.54
X150.08Y-47.96
X150.08Y-50.5
X150.14Y-94.0
X150.14Y-96.54
X152.62Y-47.96
X152.62Y-50.5
X152.68Y-94.0
X152.68Y-96.54
X155.16Y-47.96
X155.16Y-50.5
X155.22Y-94.0
X155.22Y-96.54
X157.7Y-47.96
X157.7Y-50.5
X157.76Y-94.0
X157.76Y-96.54
X160.24Y-47.96
X160.24Y-50.5
X160.3Y-94.0
X160.3Y-96.54
X162.78Y-47.96
X162.78Y-50.5
X162.84Y-94.0
X162.84Y-96.54
X165.32Y-47.96
X165.32Y-50.5
X165.38Y-94.0
X165.38Y-96.54
X167.86Y-47.96
X167.86Y-50.5
X167.92Y-94.0
X167.92Y-96.54
X170.4Y-47.96
X170.4Y-50.5
X170.46Y-94.0
X170.46Y-96.54
X172.94Y-47.96
X172.94Y-50.5
X173.0Y-94.0
X173.0Y-96.54
X175.48Y-47.96
X175.48Y-50.5
X175.54Y-94.0
X175.54Y-96.54
X178.02Y-47.96
X178.02Y-50.5
X178.08Y-94.0
X178.08Y-96.54
X180.56Y-47.96
X180.56Y-50.5
X180.62Y-94.0
X180.62Y-96.54
X205.28Y-54.28
X205.28Y-56.82
X205.28Y-59.36
X205.28Y-61.9
X205.28Y-64.44
X205.28Y-66.98
X205.28Y-77.15
X205.28Y-79.69
X205.28Y-82.23
X205.28Y-84.77
X205.28Y-87.31
X205.28Y-89.85
X207.82Y-54.28
X207.82Y-56.82
X207.82Y-59.36
X207.82Y-61.9
X207.82Y-64.44
X207.82Y-66.98
X207.82Y-77.15
X207.82Y-79.69
X207.82Y-82.23
X207.82Y-84.77
X207.82Y-87.31
X207.82Y-89.85
M30
