%TF.GenerationSoftware,KiCad,Pcbnew,10.0.5*%
%TF.CreationDate,2026-08-23T16:38:26+05:30*%
%TF.ProjectId,primercarrier,7072696d-6572-4636-9172-726965722e6b,rev?*%
%TF.SameCoordinates,Original*%
%TF.FileFunction,Paste,Top*%
%TF.FilePolarity,Positive*%
%FSLAX46Y46*%
G04 Gerber Fmt 4.6, Leading zero omitted, Abs format (unit mm)*
G04 Created by KiCad (PCBNEW 10.0.5) date 2026-08-23 16:38:26*
%MOMM*%
%LPD*%
G01*
G04 APERTURE LIST*
G04 Aperture macros list*
%AMRoundRect*
0 Rectangle with rounded corners*
0 $1 Rounding radius*
0 $2 $3 $4 $5 $6 $7 $8 $9 X,Y pos of 4 corners*
0 Add a 4 corners polygon primitive as box body*
4,1,4,$2,$3,$4,$5,$6,$7,$8,$9,$2,$3,0*
0 Add four circle primitives for the rounded corners*
1,1,$1+$1,$2,$3*
1,1,$1+$1,$4,$5*
1,1,$1+$1,$6,$7*
1,1,$1+$1,$8,$9*
0 Add four rect primitives between the rounded corners*
20,1,$1+$1,$2,$3,$4,$5,0*
20,1,$1+$1,$4,$5,$6,$7,0*
20,1,$1+$1,$6,$7,$8,$9,0*
20,1,$1+$1,$8,$9,$2,$3,0*%
G04 Aperture macros list end*
%ADD10C,0.000000*%
%ADD11C,1.501140*%
%ADD12RoundRect,0.140000X-0.170000X0.140000X-0.170000X-0.140000X0.170000X-0.140000X0.170000X0.140000X0*%
%ADD13RoundRect,0.135000X0.135000X0.185000X-0.135000X0.185000X-0.135000X-0.185000X0.135000X-0.185000X0*%
%ADD14RoundRect,0.140000X0.170000X-0.140000X0.170000X0.140000X-0.170000X0.140000X-0.170000X-0.140000X0*%
%ADD15RoundRect,0.225000X-0.250000X0.225000X-0.250000X-0.225000X0.250000X-0.225000X0.250000X0.225000X0*%
%ADD16RoundRect,0.135000X-0.185000X0.135000X-0.185000X-0.135000X0.185000X-0.135000X0.185000X0.135000X0*%
%ADD17R,0.350000X2.000000*%
%ADD18R,3.500000X4.600000*%
%ADD19R,1.000000X1.700000*%
%ADD20RoundRect,0.150000X0.150000X-0.512500X0.150000X0.512500X-0.150000X0.512500X-0.150000X-0.512500X0*%
G04 APERTURE END LIST*
D10*
G36*
X136224100Y-63345570D02*
G01*
X136224100Y-64995580D01*
X135873580Y-64995580D01*
X135873580Y-64645060D01*
X135873580Y-62995050D01*
X136224100Y-62995050D01*
X136224100Y-63345570D01*
G37*
G36*
X136524080Y-55145690D02*
G01*
X136524080Y-56795700D01*
X136173560Y-56795700D01*
X136173560Y-56445180D01*
X136173560Y-54795170D01*
X136524080Y-54795170D01*
X136524080Y-55145690D01*
G37*
G36*
X136824810Y-63345570D02*
G01*
X136824810Y-64995580D01*
X136474290Y-64995580D01*
X136474290Y-64645060D01*
X136474290Y-62995050D01*
X136824810Y-62995050D01*
X136824810Y-63345570D01*
G37*
G36*
X137125040Y-55145690D02*
G01*
X137125040Y-56795700D01*
X136774520Y-56795700D01*
X136774520Y-56445180D01*
X136774520Y-54795170D01*
X137125040Y-54795170D01*
X137125040Y-55145690D01*
G37*
G36*
X137425520Y-63345570D02*
G01*
X137425520Y-64995580D01*
X137075000Y-64995580D01*
X137075000Y-64645060D01*
X137075000Y-62995050D01*
X137425520Y-62995050D01*
X137425520Y-63345570D01*
G37*
G36*
X137725500Y-55145690D02*
G01*
X137725500Y-56795700D01*
X137374980Y-56795700D01*
X137374980Y-56445180D01*
X137374980Y-54795170D01*
X137725500Y-54795170D01*
X137725500Y-55145690D01*
G37*
G36*
X138325950Y-55145690D02*
G01*
X138325950Y-56795700D01*
X137975430Y-56795700D01*
X137975430Y-56445180D01*
X137975430Y-54795170D01*
X138325950Y-54795170D01*
X138325950Y-55145690D01*
G37*
G36*
X138625160Y-63345570D02*
G01*
X138625160Y-64995580D01*
X138274640Y-64995580D01*
X138274640Y-64645060D01*
X138274640Y-62995050D01*
X138625160Y-62995050D01*
X138625160Y-63345570D01*
G37*
G36*
X138925140Y-55145690D02*
G01*
X138925140Y-56795700D01*
X138574620Y-56795700D01*
X138574620Y-56445180D01*
X138574620Y-54795170D01*
X138925140Y-54795170D01*
X138925140Y-55145690D01*
G37*
G36*
X139224350Y-63345570D02*
G01*
X139224350Y-64995580D01*
X138873830Y-64995580D01*
X138873830Y-64645060D01*
X138873830Y-62995050D01*
X139224350Y-62995050D01*
X139224350Y-63345570D01*
G37*
G36*
X139524320Y-55145690D02*
G01*
X139524320Y-56795700D01*
X139173800Y-56795700D01*
X139173800Y-56445180D01*
X139173800Y-54795170D01*
X139524320Y-54795170D01*
X139524320Y-55145690D01*
G37*
G36*
X139825060Y-63345570D02*
G01*
X139825060Y-64995580D01*
X139474540Y-64995580D01*
X139474540Y-64645060D01*
X139474540Y-62995050D01*
X139825060Y-62995050D01*
X139825060Y-63345570D01*
G37*
G36*
X140125290Y-55145690D02*
G01*
X140125290Y-56795700D01*
X139774770Y-56795700D01*
X139774770Y-56445180D01*
X139774770Y-54795170D01*
X140125290Y-54795170D01*
X140125290Y-55145690D01*
G37*
G36*
X140425770Y-63345570D02*
G01*
X140425770Y-64995580D01*
X140075250Y-64995580D01*
X140075250Y-64645060D01*
X140075250Y-62995050D01*
X140425770Y-62995050D01*
X140425770Y-63345570D01*
G37*
G36*
X140725740Y-55145690D02*
G01*
X140725740Y-56795700D01*
X140375220Y-56795700D01*
X140375220Y-56445180D01*
X140375220Y-54795170D01*
X140725740Y-54795170D01*
X140725740Y-55145690D01*
G37*
G36*
X141026230Y-63345570D02*
G01*
X141026230Y-64995580D01*
X140675710Y-64995580D01*
X140675710Y-64645060D01*
X140675710Y-62995050D01*
X141026230Y-62995050D01*
X141026230Y-63345570D01*
G37*
G36*
X141326200Y-55145690D02*
G01*
X141326200Y-56795700D01*
X140975680Y-56795700D01*
X140975680Y-56445180D01*
X140975680Y-54795170D01*
X141326200Y-54795170D01*
X141326200Y-55145690D01*
G37*
G36*
X141624140Y-63345570D02*
G01*
X141624140Y-64995580D01*
X141273620Y-64995580D01*
X141273620Y-64645060D01*
X141273620Y-62995050D01*
X141624140Y-62995050D01*
X141624140Y-63345570D01*
G37*
G36*
X141924120Y-55145690D02*
G01*
X141924120Y-56795700D01*
X141573600Y-56795700D01*
X141573600Y-56445180D01*
X141573600Y-54795170D01*
X141924120Y-54795170D01*
X141924120Y-55145690D01*
G37*
G36*
X142224600Y-63345570D02*
G01*
X142224600Y-64995580D01*
X141874080Y-64995580D01*
X141874080Y-64645060D01*
X141874080Y-62995050D01*
X142224600Y-62995050D01*
X142224600Y-63345570D01*
G37*
G36*
X142524570Y-55145690D02*
G01*
X142524570Y-56795700D01*
X142174050Y-56795700D01*
X142174050Y-56445180D01*
X142174050Y-54795170D01*
X142524570Y-54795170D01*
X142524570Y-55145690D01*
G37*
G36*
X142825560Y-63345570D02*
G01*
X142825560Y-64995580D01*
X142475040Y-64995580D01*
X142475040Y-64645060D01*
X142475040Y-62995050D01*
X142825560Y-62995050D01*
X142825560Y-63345570D01*
G37*
G36*
X143426020Y-63345570D02*
G01*
X143426020Y-64995580D01*
X143075500Y-64995580D01*
X143075500Y-64645060D01*
X143075500Y-62995050D01*
X143426020Y-62995050D01*
X143426020Y-63345570D01*
G37*
G36*
X143725990Y-55145690D02*
G01*
X143725990Y-56795700D01*
X143375470Y-56795700D01*
X143375470Y-56445180D01*
X143375470Y-54795170D01*
X143725990Y-54795170D01*
X143725990Y-55145690D01*
G37*
G36*
X144025200Y-63345570D02*
G01*
X144025200Y-64995580D01*
X143674680Y-64995580D01*
X143674680Y-64645060D01*
X143674680Y-62995050D01*
X144025200Y-62995050D01*
X144025200Y-63345570D01*
G37*
G36*
X144325180Y-55145690D02*
G01*
X144325180Y-56795700D01*
X143974660Y-56795700D01*
X143974660Y-56445180D01*
X143974660Y-54795170D01*
X144325180Y-54795170D01*
X144325180Y-55145690D01*
G37*
G36*
X144624390Y-63345570D02*
G01*
X144624390Y-64995580D01*
X144273870Y-64995580D01*
X144273870Y-64645060D01*
X144273870Y-62995050D01*
X144624390Y-62995050D01*
X144624390Y-63345570D01*
G37*
G36*
X144924360Y-55145690D02*
G01*
X144924360Y-56795700D01*
X144573840Y-56795700D01*
X144573840Y-56445180D01*
X144573840Y-54795170D01*
X144924360Y-54795170D01*
X144924360Y-55145690D01*
G37*
G36*
X145224850Y-63345570D02*
G01*
X145224850Y-64995580D01*
X144874330Y-64995580D01*
X144874330Y-64645060D01*
X144874330Y-62995050D01*
X145224850Y-62995050D01*
X145224850Y-63345570D01*
G37*
G36*
X145524820Y-55145690D02*
G01*
X145524820Y-56795700D01*
X145174300Y-56795700D01*
X145174300Y-56445180D01*
X145174300Y-54795170D01*
X145524820Y-54795170D01*
X145524820Y-55145690D01*
G37*
G36*
X145825810Y-63345570D02*
G01*
X145825810Y-64995580D01*
X145475290Y-64995580D01*
X145475290Y-64645060D01*
X145475290Y-62995050D01*
X145825810Y-62995050D01*
X145825810Y-63345570D01*
G37*
G36*
X146125780Y-55145690D02*
G01*
X146125780Y-56795700D01*
X145775260Y-56795700D01*
X145775260Y-56445180D01*
X145775260Y-54795170D01*
X146125780Y-54795170D01*
X146125780Y-55145690D01*
G37*
G36*
X146426270Y-63345570D02*
G01*
X146426270Y-64995580D01*
X146075750Y-64995580D01*
X146075750Y-64645060D01*
X146075750Y-62995050D01*
X146426270Y-62995050D01*
X146426270Y-63345570D01*
G37*
G36*
X146726240Y-55145690D02*
G01*
X146726240Y-56795700D01*
X146375720Y-56795700D01*
X146375720Y-56445180D01*
X146375720Y-54795170D01*
X146726240Y-54795170D01*
X146726240Y-55145690D01*
G37*
G36*
X147025450Y-63345570D02*
G01*
X147025450Y-64995580D01*
X146674930Y-64995580D01*
X146674930Y-64645060D01*
X146674930Y-62995050D01*
X147025450Y-62995050D01*
X147025450Y-63345570D01*
G37*
G36*
X147325430Y-55145690D02*
G01*
X147325430Y-56795700D01*
X146974910Y-56795700D01*
X146974910Y-56445180D01*
X146974910Y-54795170D01*
X147325430Y-54795170D01*
X147325430Y-55145690D01*
G37*
G36*
X147624640Y-63345570D02*
G01*
X147624640Y-64995580D01*
X147274120Y-64995580D01*
X147274120Y-64645060D01*
X147274120Y-62995050D01*
X147624640Y-62995050D01*
X147624640Y-63345570D01*
G37*
G36*
X147924610Y-55145690D02*
G01*
X147924610Y-56795700D01*
X147574090Y-56795700D01*
X147574090Y-56445180D01*
X147574090Y-54795170D01*
X147924610Y-54795170D01*
X147924610Y-55145690D01*
G37*
G36*
X148225090Y-63345570D02*
G01*
X148225090Y-64995580D01*
X147874570Y-64995580D01*
X147874570Y-64645060D01*
X147874570Y-62995050D01*
X148225090Y-62995050D01*
X148225090Y-63345570D01*
G37*
G36*
X148525070Y-55145690D02*
G01*
X148525070Y-56795700D01*
X148174550Y-56795700D01*
X148174550Y-56445180D01*
X148174550Y-54795170D01*
X148525070Y-54795170D01*
X148525070Y-55145690D01*
G37*
G36*
X148826060Y-63345570D02*
G01*
X148826060Y-64995580D01*
X148475540Y-64995580D01*
X148475540Y-64645060D01*
X148475540Y-62995050D01*
X148826060Y-62995050D01*
X148826060Y-63345570D01*
G37*
G36*
X149126030Y-55145690D02*
G01*
X149126030Y-56795700D01*
X148775510Y-56795700D01*
X148775510Y-56445180D01*
X148775510Y-54795170D01*
X149126030Y-54795170D01*
X149126030Y-55145690D01*
G37*
G36*
X149425240Y-63345570D02*
G01*
X149425240Y-64995580D01*
X149074720Y-64995580D01*
X149074720Y-64645060D01*
X149074720Y-62995050D01*
X149425240Y-62995050D01*
X149425240Y-63345570D01*
G37*
G36*
X149725220Y-55145690D02*
G01*
X149725220Y-56795700D01*
X149374700Y-56795700D01*
X149374700Y-56445180D01*
X149374700Y-54795170D01*
X149725220Y-54795170D01*
X149725220Y-55145690D01*
G37*
G36*
X150024430Y-63345570D02*
G01*
X150024430Y-64995580D01*
X149673910Y-64995580D01*
X149673910Y-64645060D01*
X149673910Y-62995050D01*
X150024430Y-62995050D01*
X150024430Y-63345570D01*
G37*
G36*
X150324400Y-55145690D02*
G01*
X150324400Y-56795700D01*
X149973880Y-56795700D01*
X149973880Y-56445180D01*
X149973880Y-54795170D01*
X150324400Y-54795170D01*
X150324400Y-55145690D01*
G37*
G36*
X150624890Y-63345570D02*
G01*
X150624890Y-64995580D01*
X150274370Y-64995580D01*
X150274370Y-64645060D01*
X150274370Y-62995050D01*
X150624890Y-62995050D01*
X150624890Y-63345570D01*
G37*
G36*
X150924860Y-55145690D02*
G01*
X150924860Y-56795700D01*
X150574340Y-56795700D01*
X150574340Y-56445180D01*
X150574340Y-54795170D01*
X150924860Y-54795170D01*
X150924860Y-55145690D01*
G37*
G36*
X151225340Y-63345570D02*
G01*
X151225340Y-64995580D01*
X150874820Y-64995580D01*
X150874820Y-64645060D01*
X150874820Y-62995050D01*
X151225340Y-62995050D01*
X151225340Y-63345570D01*
G37*
G36*
X151826310Y-63345570D02*
G01*
X151826310Y-64995580D01*
X151475790Y-64995580D01*
X151475790Y-64645060D01*
X151475790Y-62995050D01*
X151826310Y-62995050D01*
X151826310Y-63345570D01*
G37*
G36*
X152126280Y-55145690D02*
G01*
X152126280Y-56795700D01*
X151775760Y-56795700D01*
X151775760Y-56445180D01*
X151775760Y-54795170D01*
X152126280Y-54795170D01*
X152126280Y-55145690D01*
G37*
G36*
X152425490Y-63345570D02*
G01*
X152425490Y-64995580D01*
X152074970Y-64995580D01*
X152074970Y-64645060D01*
X152074970Y-62995050D01*
X152425490Y-62995050D01*
X152425490Y-63345570D01*
G37*
G36*
X152725470Y-55145690D02*
G01*
X152725470Y-56795700D01*
X152374950Y-56795700D01*
X152374950Y-56445180D01*
X152374950Y-54795170D01*
X152725470Y-54795170D01*
X152725470Y-55145690D01*
G37*
G36*
X153024680Y-63345570D02*
G01*
X153024680Y-64995580D01*
X152674160Y-64995580D01*
X152674160Y-64645060D01*
X152674160Y-62995050D01*
X153024680Y-62995050D01*
X153024680Y-63345570D01*
G37*
G36*
X153324650Y-55145690D02*
G01*
X153324650Y-56795700D01*
X152974130Y-56795700D01*
X152974130Y-56445180D01*
X152974130Y-54795170D01*
X153324650Y-54795170D01*
X153324650Y-55145690D01*
G37*
G36*
X153625130Y-63345570D02*
G01*
X153625130Y-64995580D01*
X153274610Y-64995580D01*
X153274610Y-64645060D01*
X153274610Y-62995050D01*
X153625130Y-62995050D01*
X153625130Y-63345570D01*
G37*
G36*
X153925110Y-55145690D02*
G01*
X153925110Y-56795700D01*
X153574590Y-56795700D01*
X153574590Y-56445180D01*
X153574590Y-54795170D01*
X153925110Y-54795170D01*
X153925110Y-55145690D01*
G37*
G36*
X154225590Y-63345570D02*
G01*
X154225590Y-64995580D01*
X153875070Y-64995580D01*
X153875070Y-64645060D01*
X153875070Y-62995050D01*
X154225590Y-62995050D01*
X154225590Y-63345570D01*
G37*
G36*
X154525560Y-55145690D02*
G01*
X154525560Y-56795700D01*
X154175040Y-56795700D01*
X154175040Y-56445180D01*
X154175040Y-54795170D01*
X154525560Y-54795170D01*
X154525560Y-55145690D01*
G37*
G36*
X154825280Y-63345570D02*
G01*
X154825280Y-64995580D01*
X154474760Y-64995580D01*
X154474760Y-64645060D01*
X154474760Y-62995050D01*
X154825280Y-62995050D01*
X154825280Y-63345570D01*
G37*
G36*
X155125260Y-55145690D02*
G01*
X155125260Y-56795700D01*
X154774740Y-56795700D01*
X154774740Y-56445180D01*
X154774740Y-54795170D01*
X155125260Y-54795170D01*
X155125260Y-55145690D01*
G37*
G36*
X155424470Y-63345570D02*
G01*
X155424470Y-64995580D01*
X155073950Y-64995580D01*
X155073950Y-64645060D01*
X155073950Y-62995050D01*
X155424470Y-62995050D01*
X155424470Y-63345570D01*
G37*
G36*
X155724440Y-55145690D02*
G01*
X155724440Y-56795700D01*
X155373920Y-56795700D01*
X155373920Y-56445180D01*
X155373920Y-54795170D01*
X155724440Y-54795170D01*
X155724440Y-55145690D01*
G37*
G36*
X156024930Y-63345570D02*
G01*
X156024930Y-64995580D01*
X155674410Y-64995580D01*
X155674410Y-64645060D01*
X155674410Y-62995050D01*
X156024930Y-62995050D01*
X156024930Y-63345570D01*
G37*
G36*
X156324900Y-55145690D02*
G01*
X156324900Y-56795700D01*
X155974380Y-56795700D01*
X155974380Y-56445180D01*
X155974380Y-54795170D01*
X156324900Y-54795170D01*
X156324900Y-55145690D01*
G37*
G36*
X156625380Y-63345570D02*
G01*
X156625380Y-64995580D01*
X156274860Y-64995580D01*
X156274860Y-64645060D01*
X156274860Y-62995050D01*
X156625380Y-62995050D01*
X156625380Y-63345570D01*
G37*
G36*
X156925360Y-55145690D02*
G01*
X156925360Y-56795700D01*
X156574840Y-56795700D01*
X156574840Y-56445180D01*
X156574840Y-54795170D01*
X156925360Y-54795170D01*
X156925360Y-55145690D01*
G37*
G36*
X157225840Y-63345570D02*
G01*
X157225840Y-64995580D01*
X156875320Y-64995580D01*
X156875320Y-64645060D01*
X156875320Y-62995050D01*
X157225840Y-62995050D01*
X157225840Y-63345570D01*
G37*
G36*
X157526070Y-55145690D02*
G01*
X157526070Y-56795700D01*
X157175550Y-56795700D01*
X157175550Y-56445180D01*
X157175550Y-54795170D01*
X157526070Y-54795170D01*
X157526070Y-55145690D01*
G37*
G36*
X157825530Y-63345570D02*
G01*
X157825530Y-64995580D01*
X157475010Y-64995580D01*
X157475010Y-64645060D01*
X157475010Y-62995050D01*
X157825530Y-62995050D01*
X157825530Y-63345570D01*
G37*
G36*
X158125510Y-55145690D02*
G01*
X158125510Y-56795700D01*
X157774990Y-56795700D01*
X157774990Y-56445180D01*
X157774990Y-54795170D01*
X158125510Y-54795170D01*
X158125510Y-55145690D01*
G37*
G36*
X158424720Y-63345570D02*
G01*
X158424720Y-64995580D01*
X158074200Y-64995580D01*
X158074200Y-64645060D01*
X158074200Y-62995050D01*
X158424720Y-62995050D01*
X158424720Y-63345570D01*
G37*
G36*
X158724690Y-55145690D02*
G01*
X158724690Y-56795700D01*
X158374170Y-56795700D01*
X158374170Y-56445180D01*
X158374170Y-54795170D01*
X158724690Y-54795170D01*
X158724690Y-55145690D01*
G37*
G36*
X159025170Y-63345570D02*
G01*
X159025170Y-64995580D01*
X158674650Y-64995580D01*
X158674650Y-64645060D01*
X158674650Y-62995050D01*
X159025170Y-62995050D01*
X159025170Y-63345570D01*
G37*
G36*
X159325150Y-55145690D02*
G01*
X159325150Y-56795700D01*
X158974630Y-56795700D01*
X158974630Y-56445180D01*
X158974630Y-54795170D01*
X159325150Y-54795170D01*
X159325150Y-55145690D01*
G37*
G36*
X159625630Y-63345570D02*
G01*
X159625630Y-64995580D01*
X159275110Y-64995580D01*
X159275110Y-64645060D01*
X159275110Y-62995050D01*
X159625630Y-62995050D01*
X159625630Y-63345570D01*
G37*
G36*
X159925600Y-55145690D02*
G01*
X159925600Y-56795700D01*
X159575080Y-56795700D01*
X159575080Y-56445180D01*
X159575080Y-54795170D01*
X159925600Y-54795170D01*
X159925600Y-55145690D01*
G37*
G36*
X160224820Y-63345570D02*
G01*
X160224820Y-64995580D01*
X159874300Y-64995580D01*
X159874300Y-64645060D01*
X159874300Y-62995050D01*
X160224820Y-62995050D01*
X160224820Y-63345570D01*
G37*
G36*
X160525040Y-55145690D02*
G01*
X160525040Y-56795700D01*
X160174520Y-56795700D01*
X160174520Y-56445180D01*
X160174520Y-54795170D01*
X160525040Y-54795170D01*
X160525040Y-55145690D01*
G37*
G36*
X160824510Y-63345570D02*
G01*
X160824510Y-64995580D01*
X160473990Y-64995580D01*
X160473990Y-64645060D01*
X160473990Y-62995050D01*
X160824510Y-62995050D01*
X160824510Y-63345570D01*
G37*
G36*
X161124480Y-55145690D02*
G01*
X161124480Y-56795700D01*
X160773960Y-56795700D01*
X160773960Y-56445180D01*
X160773960Y-54795170D01*
X161124480Y-54795170D01*
X161124480Y-55145690D01*
G37*
G36*
X161424970Y-63345570D02*
G01*
X161424970Y-64995580D01*
X161074450Y-64995580D01*
X161074450Y-64645060D01*
X161074450Y-62995050D01*
X161424970Y-62995050D01*
X161424970Y-63345570D01*
G37*
G36*
X161724940Y-55145690D02*
G01*
X161724940Y-56795700D01*
X161374420Y-56795700D01*
X161374420Y-56445180D01*
X161374420Y-54795170D01*
X161724940Y-54795170D01*
X161724940Y-55145690D01*
G37*
G36*
X162025420Y-63345570D02*
G01*
X162025420Y-64995580D01*
X161674900Y-64995580D01*
X161674900Y-64645060D01*
X161674900Y-62995050D01*
X162025420Y-62995050D01*
X162025420Y-63345570D01*
G37*
G36*
X162325400Y-55145690D02*
G01*
X162325400Y-56795700D01*
X161974880Y-56795700D01*
X161974880Y-56445180D01*
X161974880Y-54795170D01*
X162325400Y-54795170D01*
X162325400Y-55145690D01*
G37*
G36*
X162625880Y-63345570D02*
G01*
X162625880Y-64995580D01*
X162275360Y-64995580D01*
X162275360Y-64645060D01*
X162275360Y-62995050D01*
X162625880Y-62995050D01*
X162625880Y-63345570D01*
G37*
G36*
X162925850Y-55145690D02*
G01*
X162925850Y-56795700D01*
X162575330Y-56795700D01*
X162575330Y-56445180D01*
X162575330Y-54795170D01*
X162925850Y-54795170D01*
X162925850Y-55145690D01*
G37*
G36*
X163225060Y-63345570D02*
G01*
X163225060Y-64995580D01*
X162874540Y-64995580D01*
X162874540Y-64645060D01*
X162874540Y-62995050D01*
X163225060Y-62995050D01*
X163225060Y-63345570D01*
G37*
G36*
X163525290Y-55145690D02*
G01*
X163525290Y-56795700D01*
X163174770Y-56795700D01*
X163174770Y-56445180D01*
X163174770Y-54795170D01*
X163525290Y-54795170D01*
X163525290Y-55145690D01*
G37*
G36*
X163824760Y-63345570D02*
G01*
X163824760Y-64995580D01*
X163474240Y-64995580D01*
X163474240Y-64645060D01*
X163474240Y-62995050D01*
X163824760Y-62995050D01*
X163824760Y-63345570D01*
G37*
G36*
X164124730Y-55145690D02*
G01*
X164124730Y-56795700D01*
X163774210Y-56795700D01*
X163774210Y-56445180D01*
X163774210Y-54795170D01*
X164124730Y-54795170D01*
X164124730Y-55145690D01*
G37*
G36*
X164425210Y-63345570D02*
G01*
X164425210Y-64995580D01*
X164074690Y-64995580D01*
X164074690Y-64645060D01*
X164074690Y-62995050D01*
X164425210Y-62995050D01*
X164425210Y-63345570D01*
G37*
G36*
X164725190Y-55145690D02*
G01*
X164725190Y-56795700D01*
X164374670Y-56795700D01*
X164374670Y-56445180D01*
X164374670Y-54795170D01*
X164725190Y-54795170D01*
X164725190Y-55145690D01*
G37*
G36*
X165325640Y-55145690D02*
G01*
X165325640Y-56795700D01*
X164975120Y-56795700D01*
X164975120Y-56445180D01*
X164975120Y-54795170D01*
X165325640Y-54795170D01*
X165325640Y-55145690D01*
G37*
G36*
X165624860Y-63345570D02*
G01*
X165624860Y-64995580D01*
X165274340Y-64995580D01*
X165274340Y-64645060D01*
X165274340Y-62995050D01*
X165624860Y-62995050D01*
X165624860Y-63345570D01*
G37*
G36*
X165924830Y-55145690D02*
G01*
X165924830Y-56795700D01*
X165574310Y-56795700D01*
X165574310Y-56445180D01*
X165574310Y-54795170D01*
X165924830Y-54795170D01*
X165924830Y-55145690D01*
G37*
G36*
X166224040Y-63345570D02*
G01*
X166224040Y-64995580D01*
X165873520Y-64995580D01*
X165873520Y-64645060D01*
X165873520Y-62995050D01*
X166224040Y-62995050D01*
X166224040Y-63345570D01*
G37*
G36*
X166524270Y-55145690D02*
G01*
X166524270Y-56795700D01*
X166173750Y-56795700D01*
X166173750Y-56445180D01*
X166173750Y-54795170D01*
X166524270Y-54795170D01*
X166524270Y-55145690D01*
G37*
G36*
X166825010Y-63345570D02*
G01*
X166825010Y-64995580D01*
X166474490Y-64995580D01*
X166474490Y-64645060D01*
X166474490Y-62995050D01*
X166825010Y-62995050D01*
X166825010Y-63345570D01*
G37*
G36*
X167124980Y-55145690D02*
G01*
X167124980Y-56795700D01*
X166774460Y-56795700D01*
X166774460Y-56445180D01*
X166774460Y-54795170D01*
X167124980Y-54795170D01*
X167124980Y-55145690D01*
G37*
G36*
X167425460Y-63345570D02*
G01*
X167425460Y-64995580D01*
X167074940Y-64995580D01*
X167074940Y-64645060D01*
X167074940Y-62995050D01*
X167425460Y-62995050D01*
X167425460Y-63345570D01*
G37*
G36*
X167725440Y-55145690D02*
G01*
X167725440Y-56795700D01*
X167374920Y-56795700D01*
X167374920Y-56445180D01*
X167374920Y-54795170D01*
X167725440Y-54795170D01*
X167725440Y-55145690D01*
G37*
G36*
X168025920Y-63345570D02*
G01*
X168025920Y-64995580D01*
X167675400Y-64995580D01*
X167675400Y-64645060D01*
X167675400Y-62995050D01*
X168025920Y-62995050D01*
X168025920Y-63345570D01*
G37*
G36*
X168325890Y-55145690D02*
G01*
X168325890Y-56795700D01*
X167975370Y-56795700D01*
X167975370Y-56445180D01*
X167975370Y-54795170D01*
X168325890Y-54795170D01*
X168325890Y-55145690D01*
G37*
G36*
X168625100Y-63345570D02*
G01*
X168625100Y-64995580D01*
X168274580Y-64995580D01*
X168274580Y-64645060D01*
X168274580Y-62995050D01*
X168625100Y-62995050D01*
X168625100Y-63345570D01*
G37*
G36*
X168925080Y-55145690D02*
G01*
X168925080Y-56795700D01*
X168574560Y-56795700D01*
X168574560Y-56445180D01*
X168574560Y-54795170D01*
X168925080Y-54795170D01*
X168925080Y-55145690D01*
G37*
G36*
X169224540Y-63345570D02*
G01*
X169224540Y-64995580D01*
X168874020Y-64995580D01*
X168874020Y-64645060D01*
X168874020Y-62995050D01*
X169224540Y-62995050D01*
X169224540Y-63345570D01*
G37*
G36*
X169524520Y-55145690D02*
G01*
X169524520Y-56795700D01*
X169174000Y-56795700D01*
X169174000Y-56445180D01*
X169174000Y-54795170D01*
X169524520Y-54795170D01*
X169524520Y-55145690D01*
G37*
G36*
X169825250Y-63345570D02*
G01*
X169825250Y-64995580D01*
X169474730Y-64995580D01*
X169474730Y-64645060D01*
X169474730Y-62995050D01*
X169825250Y-62995050D01*
X169825250Y-63345570D01*
G37*
G36*
X170125230Y-55145690D02*
G01*
X170125230Y-56795700D01*
X169774710Y-56795700D01*
X169774710Y-56445180D01*
X169774710Y-54795170D01*
X170125230Y-54795170D01*
X170125230Y-55145690D01*
G37*
G36*
X170425710Y-63345570D02*
G01*
X170425710Y-64995580D01*
X170075190Y-64995580D01*
X170075190Y-64645060D01*
X170075190Y-62995050D01*
X170425710Y-62995050D01*
X170425710Y-63345570D01*
G37*
G36*
X170725680Y-55145690D02*
G01*
X170725680Y-56795700D01*
X170375160Y-56795700D01*
X170375160Y-56445180D01*
X170375160Y-54795170D01*
X170725680Y-54795170D01*
X170725680Y-55145690D01*
G37*
G36*
X171026170Y-63345570D02*
G01*
X171026170Y-64995580D01*
X170675650Y-64995580D01*
X170675650Y-64645060D01*
X170675650Y-62995050D01*
X171026170Y-62995050D01*
X171026170Y-63345570D01*
G37*
G36*
X171326140Y-55145690D02*
G01*
X171326140Y-56795700D01*
X170975620Y-56795700D01*
X170975620Y-56445180D01*
X170975620Y-54795170D01*
X171326140Y-54795170D01*
X171326140Y-55145690D01*
G37*
G36*
X171624080Y-63345570D02*
G01*
X171624080Y-64995580D01*
X171273560Y-64995580D01*
X171273560Y-64645060D01*
X171273560Y-62995050D01*
X171624080Y-62995050D01*
X171624080Y-63345570D01*
G37*
G36*
X171924060Y-55145690D02*
G01*
X171924060Y-56795700D01*
X171573540Y-56795700D01*
X171573540Y-56445180D01*
X171573540Y-54795170D01*
X171924060Y-54795170D01*
X171924060Y-55145690D01*
G37*
G36*
X172224790Y-63345570D02*
G01*
X172224790Y-64995580D01*
X171874270Y-64995580D01*
X171874270Y-64645060D01*
X171874270Y-62995050D01*
X172224790Y-62995050D01*
X172224790Y-63345570D01*
G37*
G36*
X172524770Y-55145690D02*
G01*
X172524770Y-56795700D01*
X172174250Y-56795700D01*
X172174250Y-56445180D01*
X172174250Y-54795170D01*
X172524770Y-54795170D01*
X172524770Y-55145690D01*
G37*
G36*
X172825500Y-63345570D02*
G01*
X172825500Y-64995580D01*
X172474980Y-64995580D01*
X172474980Y-64645060D01*
X172474980Y-62995050D01*
X172825500Y-62995050D01*
X172825500Y-63345570D01*
G37*
G36*
X173125480Y-55145690D02*
G01*
X173125480Y-56795700D01*
X172774960Y-56795700D01*
X172774960Y-56445180D01*
X172774960Y-54795170D01*
X173125480Y-54795170D01*
X173125480Y-55145690D01*
G37*
G36*
X173725930Y-55145690D02*
G01*
X173725930Y-56795700D01*
X173375410Y-56795700D01*
X173375410Y-56445180D01*
X173375410Y-54795170D01*
X173725930Y-54795170D01*
X173725930Y-55145690D01*
G37*
G36*
X174025140Y-63345570D02*
G01*
X174025140Y-64995580D01*
X173674620Y-64995580D01*
X173674620Y-64645060D01*
X173674620Y-62995050D01*
X174025140Y-62995050D01*
X174025140Y-63345570D01*
G37*
G36*
X174325120Y-55145690D02*
G01*
X174325120Y-56795700D01*
X173974600Y-56795700D01*
X173974600Y-56445180D01*
X173974600Y-54795170D01*
X174325120Y-54795170D01*
X174325120Y-55145690D01*
G37*
G36*
X174624330Y-63345570D02*
G01*
X174624330Y-64995580D01*
X174273810Y-64995580D01*
X174273810Y-64645060D01*
X174273810Y-62995050D01*
X174624330Y-62995050D01*
X174624330Y-63345570D01*
G37*
G36*
X174924300Y-55145690D02*
G01*
X174924300Y-56795700D01*
X174573780Y-56795700D01*
X174573780Y-56445180D01*
X174573780Y-54795170D01*
X174924300Y-54795170D01*
X174924300Y-55145690D01*
G37*
G36*
X175225040Y-63345570D02*
G01*
X175225040Y-64995580D01*
X174874520Y-64995580D01*
X174874520Y-64645060D01*
X174874520Y-62995050D01*
X175225040Y-62995050D01*
X175225040Y-63345570D01*
G37*
G36*
X175525010Y-55145690D02*
G01*
X175525010Y-56795700D01*
X175174490Y-56795700D01*
X175174490Y-56445180D01*
X175174490Y-54795170D01*
X175525010Y-54795170D01*
X175525010Y-55145690D01*
G37*
G36*
X178225290Y-63345570D02*
G01*
X178225290Y-64995580D01*
X177874770Y-64995580D01*
X177874770Y-64645060D01*
X177874770Y-62995050D01*
X178225290Y-62995050D01*
X178225290Y-63345570D01*
G37*
G36*
X178826000Y-63345570D02*
G01*
X178826000Y-64995580D01*
X178475480Y-64995580D01*
X178475480Y-64645060D01*
X178475480Y-62995050D01*
X178826000Y-62995050D01*
X178826000Y-63345570D01*
G37*
G36*
X179125970Y-55145690D02*
G01*
X179125970Y-56795700D01*
X178775450Y-56795700D01*
X178775450Y-56445180D01*
X178775450Y-54795170D01*
X179125970Y-54795170D01*
X179125970Y-55145690D01*
G37*
G36*
X179425180Y-63345570D02*
G01*
X179425180Y-64995580D01*
X179074660Y-64995580D01*
X179074660Y-64645060D01*
X179074660Y-62995050D01*
X179425180Y-62995050D01*
X179425180Y-63345570D01*
G37*
G36*
X179725160Y-55145690D02*
G01*
X179725160Y-56795700D01*
X179374640Y-56795700D01*
X179374640Y-56445180D01*
X179374640Y-54795170D01*
X179725160Y-54795170D01*
X179725160Y-55145690D01*
G37*
G36*
X180024370Y-63345570D02*
G01*
X180024370Y-64995580D01*
X179673850Y-64995580D01*
X179673850Y-64645060D01*
X179673850Y-62995050D01*
X180024370Y-62995050D01*
X180024370Y-63345570D01*
G37*
G36*
X180324340Y-55145690D02*
G01*
X180324340Y-56795700D01*
X179973820Y-56795700D01*
X179973820Y-56445180D01*
X179973820Y-54795170D01*
X180324340Y-54795170D01*
X180324340Y-55145690D01*
G37*
G36*
X180624830Y-63345570D02*
G01*
X180624830Y-64995580D01*
X180274310Y-64995580D01*
X180274310Y-64645060D01*
X180274310Y-62995050D01*
X180624830Y-62995050D01*
X180624830Y-63345570D01*
G37*
G36*
X180925050Y-55145690D02*
G01*
X180925050Y-56795700D01*
X180574530Y-56795700D01*
X180574530Y-56445180D01*
X180574530Y-54795170D01*
X180925050Y-54795170D01*
X180925050Y-55145690D01*
G37*
G36*
X181225540Y-63345570D02*
G01*
X181225540Y-64995580D01*
X180875020Y-64995580D01*
X180875020Y-64645060D01*
X180875020Y-62995050D01*
X181225540Y-62995050D01*
X181225540Y-63345570D01*
G37*
G36*
X181525510Y-55145690D02*
G01*
X181525510Y-56795700D01*
X181174990Y-56795700D01*
X181174990Y-56445180D01*
X181174990Y-54795170D01*
X181525510Y-54795170D01*
X181525510Y-55145690D01*
G37*
G36*
X181826250Y-63345570D02*
G01*
X181826250Y-64995580D01*
X181475730Y-64995580D01*
X181475730Y-64645060D01*
X181475730Y-62995050D01*
X181826250Y-62995050D01*
X181826250Y-63345570D01*
G37*
G36*
X182126220Y-55145690D02*
G01*
X182126220Y-56795700D01*
X181775700Y-56795700D01*
X181775700Y-56445180D01*
X181775700Y-54795170D01*
X182126220Y-54795170D01*
X182126220Y-55145690D01*
G37*
G36*
X182425430Y-63345570D02*
G01*
X182425430Y-64995580D01*
X182074910Y-64995580D01*
X182074910Y-64645060D01*
X182074910Y-62995050D01*
X182425430Y-62995050D01*
X182425430Y-63345570D01*
G37*
G36*
X182725410Y-55145690D02*
G01*
X182725410Y-56795700D01*
X182374890Y-56795700D01*
X182374890Y-56445180D01*
X182374890Y-54795170D01*
X182725410Y-54795170D01*
X182725410Y-55145690D01*
G37*
G36*
X183024620Y-63345570D02*
G01*
X183024620Y-64995580D01*
X182674100Y-64995580D01*
X182674100Y-64645060D01*
X182674100Y-62995050D01*
X183024620Y-62995050D01*
X183024620Y-63345570D01*
G37*
G36*
X183324590Y-55145690D02*
G01*
X183324590Y-56795700D01*
X182974070Y-56795700D01*
X182974070Y-56445180D01*
X182974070Y-54795170D01*
X183324590Y-54795170D01*
X183324590Y-55145690D01*
G37*
G36*
X183625070Y-63345570D02*
G01*
X183625070Y-64995580D01*
X183274550Y-64995580D01*
X183274550Y-64645060D01*
X183274550Y-62995050D01*
X183625070Y-62995050D01*
X183625070Y-63345570D01*
G37*
G36*
X183925300Y-55145690D02*
G01*
X183925300Y-56795700D01*
X183574780Y-56795700D01*
X183574780Y-56445180D01*
X183574780Y-54795170D01*
X183925300Y-54795170D01*
X183925300Y-55145690D01*
G37*
G36*
X184225780Y-63345570D02*
G01*
X184225780Y-64995580D01*
X183875260Y-64995580D01*
X183875260Y-64645060D01*
X183875260Y-62995050D01*
X184225780Y-62995050D01*
X184225780Y-63345570D01*
G37*
G36*
X184525760Y-55145690D02*
G01*
X184525760Y-56795700D01*
X184175240Y-56795700D01*
X184175240Y-56445180D01*
X184175240Y-54795170D01*
X184525760Y-54795170D01*
X184525760Y-55145690D01*
G37*
G36*
X184825220Y-63345570D02*
G01*
X184825220Y-64995580D01*
X184474700Y-64995580D01*
X184474700Y-64645060D01*
X184474700Y-62995050D01*
X184825220Y-62995050D01*
X184825220Y-63345570D01*
G37*
G36*
X185125200Y-55145690D02*
G01*
X185125200Y-56795700D01*
X184774680Y-56795700D01*
X184774680Y-56445180D01*
X184774680Y-54795170D01*
X185125200Y-54795170D01*
X185125200Y-55145690D01*
G37*
G36*
X185424410Y-63345570D02*
G01*
X185424410Y-64995580D01*
X185073890Y-64995580D01*
X185073890Y-64645060D01*
X185073890Y-62995050D01*
X185424410Y-62995050D01*
X185424410Y-63345570D01*
G37*
G36*
X185724380Y-55145690D02*
G01*
X185724380Y-56795700D01*
X185373860Y-56795700D01*
X185373860Y-56445180D01*
X185373860Y-54795170D01*
X185724380Y-54795170D01*
X185724380Y-55145690D01*
G37*
G36*
X186024870Y-63345570D02*
G01*
X186024870Y-64995580D01*
X185674350Y-64995580D01*
X185674350Y-64645060D01*
X185674350Y-62995050D01*
X186024870Y-62995050D01*
X186024870Y-63345570D01*
G37*
G36*
X186324840Y-55145690D02*
G01*
X186324840Y-56795700D01*
X185974320Y-56795700D01*
X185974320Y-56445180D01*
X185974320Y-54795170D01*
X186324840Y-54795170D01*
X186324840Y-55145690D01*
G37*
G36*
X186625320Y-63345570D02*
G01*
X186625320Y-64995580D01*
X186274800Y-64995580D01*
X186274800Y-64645060D01*
X186274800Y-62995050D01*
X186625320Y-62995050D01*
X186625320Y-63345570D01*
G37*
G36*
X187226030Y-63345570D02*
G01*
X187226030Y-64995580D01*
X186875510Y-64995580D01*
X186875510Y-64645060D01*
X186875510Y-62995050D01*
X187226030Y-62995050D01*
X187226030Y-63345570D01*
G37*
G36*
X187526010Y-55145690D02*
G01*
X187526010Y-56795700D01*
X187175490Y-56795700D01*
X187175490Y-56445180D01*
X187175490Y-54795170D01*
X187526010Y-54795170D01*
X187526010Y-55145690D01*
G37*
G36*
X187825470Y-63345570D02*
G01*
X187825470Y-64995580D01*
X187474950Y-64995580D01*
X187474950Y-64645060D01*
X187474950Y-62995050D01*
X187825470Y-62995050D01*
X187825470Y-63345570D01*
G37*
G36*
X188125450Y-55145690D02*
G01*
X188125450Y-56795700D01*
X187774930Y-56795700D01*
X187774930Y-56445180D01*
X187774930Y-54795170D01*
X188125450Y-54795170D01*
X188125450Y-55145690D01*
G37*
G36*
X188424660Y-63345570D02*
G01*
X188424660Y-64995580D01*
X188074140Y-64995580D01*
X188074140Y-64645060D01*
X188074140Y-62995050D01*
X188424660Y-62995050D01*
X188424660Y-63345570D01*
G37*
G36*
X188724630Y-55145690D02*
G01*
X188724630Y-56795700D01*
X188374110Y-56795700D01*
X188374110Y-56445180D01*
X188374110Y-54795170D01*
X188724630Y-54795170D01*
X188724630Y-55145690D01*
G37*
G36*
X189025110Y-63345570D02*
G01*
X189025110Y-64995580D01*
X188674590Y-64995580D01*
X188674590Y-64645060D01*
X188674590Y-62995050D01*
X189025110Y-62995050D01*
X189025110Y-63345570D01*
G37*
G36*
X189325090Y-55145690D02*
G01*
X189325090Y-56795700D01*
X188974570Y-56795700D01*
X188974570Y-56445180D01*
X188974570Y-54795170D01*
X189325090Y-54795170D01*
X189325090Y-55145690D01*
G37*
G36*
X189625570Y-63345570D02*
G01*
X189625570Y-64995580D01*
X189275050Y-64995580D01*
X189275050Y-64645060D01*
X189275050Y-62995050D01*
X189625570Y-62995050D01*
X189625570Y-63345570D01*
G37*
G36*
X189925800Y-55145690D02*
G01*
X189925800Y-56795700D01*
X189575280Y-56795700D01*
X189575280Y-56445180D01*
X189575280Y-54795170D01*
X189925800Y-54795170D01*
X189925800Y-55145690D01*
G37*
G36*
X190225010Y-63345570D02*
G01*
X190225010Y-64995580D01*
X189874490Y-64995580D01*
X189874490Y-64645060D01*
X189874490Y-62995050D01*
X190225010Y-62995050D01*
X190225010Y-63345570D01*
G37*
G36*
X190524980Y-55145690D02*
G01*
X190524980Y-56795700D01*
X190174460Y-56795700D01*
X190174460Y-56445180D01*
X190174460Y-54795170D01*
X190524980Y-54795170D01*
X190524980Y-55145690D01*
G37*
G36*
X190824450Y-63345570D02*
G01*
X190824450Y-64995580D01*
X190473930Y-64995580D01*
X190473930Y-64645060D01*
X190473930Y-62995050D01*
X190824450Y-62995050D01*
X190824450Y-63345570D01*
G37*
G36*
X191124420Y-55145690D02*
G01*
X191124420Y-56795700D01*
X190773900Y-56795700D01*
X190773900Y-56445180D01*
X190773900Y-54795170D01*
X191124420Y-54795170D01*
X191124420Y-55145690D01*
G37*
G36*
X191424910Y-63345570D02*
G01*
X191424910Y-64995580D01*
X191074390Y-64995580D01*
X191074390Y-64645060D01*
X191074390Y-62995050D01*
X191424910Y-62995050D01*
X191424910Y-63345570D01*
G37*
G36*
X191724880Y-55145690D02*
G01*
X191724880Y-56795700D01*
X191374360Y-56795700D01*
X191374360Y-56445180D01*
X191374360Y-54795170D01*
X191724880Y-54795170D01*
X191724880Y-55145690D01*
G37*
G36*
X192025360Y-63345570D02*
G01*
X192025360Y-64995580D01*
X191674840Y-64995580D01*
X191674840Y-64645060D01*
X191674840Y-62995050D01*
X192025360Y-62995050D01*
X192025360Y-63345570D01*
G37*
G36*
X192325340Y-55145690D02*
G01*
X192325340Y-56795700D01*
X191974820Y-56795700D01*
X191974820Y-56445180D01*
X191974820Y-54795170D01*
X192325340Y-54795170D01*
X192325340Y-55145690D01*
G37*
G36*
X192625820Y-63345570D02*
G01*
X192625820Y-64995580D01*
X192275300Y-64995580D01*
X192275300Y-64645060D01*
X192275300Y-62995050D01*
X192625820Y-62995050D01*
X192625820Y-63345570D01*
G37*
G36*
X192926050Y-55145690D02*
G01*
X192926050Y-56795700D01*
X192575530Y-56795700D01*
X192575530Y-56445180D01*
X192575530Y-54795170D01*
X192926050Y-54795170D01*
X192926050Y-55145690D01*
G37*
G36*
X193225260Y-63345570D02*
G01*
X193225260Y-64995580D01*
X192874740Y-64995580D01*
X192874740Y-64645060D01*
X192874740Y-62995050D01*
X193225260Y-62995050D01*
X193225260Y-63345570D01*
G37*
G36*
X193525230Y-55145690D02*
G01*
X193525230Y-56795700D01*
X193174710Y-56795700D01*
X193174710Y-56445180D01*
X193174710Y-54795170D01*
X193525230Y-54795170D01*
X193525230Y-55145690D01*
G37*
G36*
X193824700Y-63345570D02*
G01*
X193824700Y-64995580D01*
X193474180Y-64995580D01*
X193474180Y-64645060D01*
X193474180Y-62995050D01*
X193824700Y-62995050D01*
X193824700Y-63345570D01*
G37*
G36*
X194124670Y-55145690D02*
G01*
X194124670Y-56795700D01*
X193774150Y-56795700D01*
X193774150Y-56445180D01*
X193774150Y-54795170D01*
X194124670Y-54795170D01*
X194124670Y-55145690D01*
G37*
G36*
X194425150Y-63345570D02*
G01*
X194425150Y-64995580D01*
X194074630Y-64995580D01*
X194074630Y-64645060D01*
X194074630Y-62995050D01*
X194425150Y-62995050D01*
X194425150Y-63345570D01*
G37*
G36*
X194725130Y-55145690D02*
G01*
X194725130Y-56795700D01*
X194374610Y-56795700D01*
X194374610Y-56445180D01*
X194374610Y-54795170D01*
X194725130Y-54795170D01*
X194725130Y-55145690D01*
G37*
G36*
X195025610Y-63345570D02*
G01*
X195025610Y-64995580D01*
X194675090Y-64995580D01*
X194675090Y-64645060D01*
X194675090Y-62995050D01*
X195025610Y-62995050D01*
X195025610Y-63345570D01*
G37*
G36*
X195625050Y-63345570D02*
G01*
X195625050Y-64995580D01*
X195274530Y-64995580D01*
X195274530Y-64645060D01*
X195274530Y-62995050D01*
X195625050Y-62995050D01*
X195625050Y-63345570D01*
G37*
G36*
X195925020Y-55145690D02*
G01*
X195925020Y-56795700D01*
X195574500Y-56795700D01*
X195574500Y-56445180D01*
X195574500Y-54795170D01*
X195925020Y-54795170D01*
X195925020Y-55145690D01*
G37*
G36*
X196224240Y-63345570D02*
G01*
X196224240Y-64995580D01*
X195873720Y-64995580D01*
X195873720Y-64645060D01*
X195873720Y-62995050D01*
X196224240Y-62995050D01*
X196224240Y-63345570D01*
G37*
G36*
X196524210Y-55145690D02*
G01*
X196524210Y-56795700D01*
X196173690Y-56795700D01*
X196173690Y-56445180D01*
X196173690Y-54795170D01*
X196524210Y-54795170D01*
X196524210Y-55145690D01*
G37*
G36*
X196824950Y-63345570D02*
G01*
X196824950Y-64995580D01*
X196474430Y-64995580D01*
X196474430Y-64645060D01*
X196474430Y-62995050D01*
X196824950Y-62995050D01*
X196824950Y-63345570D01*
G37*
G36*
X197124920Y-55145690D02*
G01*
X197124920Y-56795700D01*
X196774400Y-56795700D01*
X196774400Y-56445180D01*
X196774400Y-54795170D01*
X197124920Y-54795170D01*
X197124920Y-55145690D01*
G37*
G36*
X197425400Y-63345570D02*
G01*
X197425400Y-64995580D01*
X197074880Y-64995580D01*
X197074880Y-64645060D01*
X197074880Y-62995050D01*
X197425400Y-62995050D01*
X197425400Y-63345570D01*
G37*
G36*
X197725380Y-55145690D02*
G01*
X197725380Y-56795700D01*
X197374860Y-56795700D01*
X197374860Y-56445180D01*
X197374860Y-54795170D01*
X197725380Y-54795170D01*
X197725380Y-55145690D01*
G37*
G36*
X198025860Y-63345570D02*
G01*
X198025860Y-64995580D01*
X197675340Y-64995580D01*
X197675340Y-64645060D01*
X197675340Y-62995050D01*
X198025860Y-62995050D01*
X198025860Y-63345570D01*
G37*
G36*
X198325830Y-55145690D02*
G01*
X198325830Y-56795700D01*
X197975310Y-56795700D01*
X197975310Y-56445180D01*
X197975310Y-54795170D01*
X198325830Y-54795170D01*
X198325830Y-55145690D01*
G37*
G36*
X198625300Y-63345570D02*
G01*
X198625300Y-64995580D01*
X198274780Y-64995580D01*
X198274780Y-64645060D01*
X198274780Y-62995050D01*
X198625300Y-62995050D01*
X198625300Y-63345570D01*
G37*
G36*
X198925270Y-55145690D02*
G01*
X198925270Y-56795700D01*
X198574750Y-56795700D01*
X198574750Y-56445180D01*
X198574750Y-54795170D01*
X198925270Y-54795170D01*
X198925270Y-55145690D01*
G37*
G36*
X199224480Y-63345570D02*
G01*
X199224480Y-64995580D01*
X198873960Y-64995580D01*
X198873960Y-64645060D01*
X198873960Y-62995050D01*
X199224480Y-62995050D01*
X199224480Y-63345570D01*
G37*
G36*
X199524460Y-55145690D02*
G01*
X199524460Y-56795700D01*
X199173940Y-56795700D01*
X199173940Y-56445180D01*
X199173940Y-54795170D01*
X199524460Y-54795170D01*
X199524460Y-55145690D01*
G37*
D11*
X131990710Y-47963630D02*
X132005090Y-48041150D01*
X131990710Y-50503630D02*
X132005090Y-50581150D01*
X132001170Y-47885500D02*
X131990710Y-47963630D01*
X132001170Y-50425500D02*
X131990710Y-50503630D01*
X132005090Y-48041150D02*
X132042880Y-48110320D01*
X132005090Y-50581150D02*
X132042880Y-50650320D01*
X132035460Y-47814510D02*
X132001170Y-47885500D01*
X132035460Y-50354510D02*
X132001170Y-50425500D01*
X132042880Y-48110320D02*
X132100340Y-48164290D01*
X132042880Y-50650320D02*
X132100340Y-50704290D01*
X132066910Y-94069430D02*
X132081290Y-94146950D01*
X132066910Y-96609430D02*
X132081290Y-96686950D01*
X132077370Y-93991300D02*
X132066910Y-94069430D01*
X132077370Y-96531300D02*
X132066910Y-96609430D01*
X132081290Y-94146950D02*
X132119080Y-94216120D01*
X132081290Y-96686950D02*
X132119080Y-96756120D01*
X132090150Y-47757710D02*
X132035460Y-47814510D01*
X132090150Y-50297710D02*
X132035460Y-50354510D01*
X132100340Y-48164290D02*
X132171760Y-48197690D01*
X132100340Y-50704290D02*
X132171760Y-50737690D01*
X132111660Y-93920310D02*
X132077370Y-93991300D01*
X132111660Y-96460310D02*
X132077370Y-96531300D01*
X132119080Y-94216120D02*
X132176540Y-94270090D01*
X132119080Y-96756120D02*
X132176540Y-96810090D01*
X132159820Y-47720780D02*
X132090150Y-47757710D01*
X132159820Y-50260780D02*
X132090150Y-50297710D01*
X132166350Y-93863520D02*
X132111660Y-93920310D01*
X132166350Y-96403520D02*
X132111660Y-96460310D01*
X132171760Y-48197690D02*
X132250020Y-48207190D01*
X132171760Y-50737690D02*
X132250020Y-50747190D01*
X132176540Y-94270090D02*
X132247960Y-94303490D01*
X132176540Y-96810090D02*
X132247960Y-96843490D01*
X132236020Y-93826580D02*
X132166350Y-93863520D01*
X132236020Y-96366580D02*
X132166350Y-96403520D01*
X132237500Y-47707400D02*
X132159820Y-47720780D01*
X132237500Y-50247400D02*
X132159820Y-50260780D01*
X132247960Y-94303490D02*
X132326220Y-94312990D01*
X132247960Y-96843490D02*
X132326220Y-96852990D01*
X132250020Y-48207190D02*
X132327340Y-48191850D01*
X132250020Y-50747190D02*
X132327340Y-50731850D01*
X132313700Y-93813200D02*
X132236020Y-93826580D01*
X132313700Y-96353200D02*
X132236020Y-96366580D01*
X132315500Y-47718850D02*
X132237500Y-47707400D01*
X132315500Y-50258850D02*
X132237500Y-50247400D01*
X132326220Y-94312990D02*
X132403540Y-94297650D01*
X132326220Y-96852990D02*
X132403540Y-96837650D01*
X132327340Y-48191850D02*
X132396040Y-48153190D01*
X132327340Y-50731850D02*
X132396040Y-50693190D01*
X132386060Y-47754010D02*
X132315500Y-47718850D01*
X132386060Y-50294010D02*
X132315500Y-50258850D01*
X132391700Y-93824650D02*
X132313700Y-93813200D01*
X132391700Y-96364650D02*
X132313700Y-96353200D01*
X132396040Y-48153190D02*
X132449310Y-48095050D01*
X132396040Y-50693190D02*
X132449310Y-50635050D01*
X132403540Y-94297650D02*
X132472240Y-94258990D01*
X132403540Y-96837650D02*
X132472240Y-96798990D01*
X132442140Y-47809400D02*
X132386060Y-47754010D01*
X132442140Y-50349400D02*
X132386060Y-50294010D01*
X132449310Y-48095050D02*
X132481790Y-48023220D01*
X132449310Y-50635050D02*
X132481790Y-50563220D01*
X132462260Y-93859810D02*
X132391700Y-93824650D01*
X132462260Y-96399810D02*
X132391700Y-96364650D01*
X132472240Y-94258990D02*
X132525510Y-94200850D01*
X132472240Y-96798990D02*
X132525510Y-96740850D01*
X132478210Y-47879510D02*
X132442140Y-47809400D01*
X132478210Y-50419510D02*
X132442140Y-50349400D01*
X132481790Y-48023220D02*
X132490630Y-47957360D01*
X132481790Y-50563220D02*
X132490630Y-50497360D01*
X132490630Y-47957360D02*
X132478210Y-47879510D01*
X132490630Y-50497360D02*
X132478210Y-50419510D01*
X132518340Y-93915200D02*
X132462260Y-93859810D01*
X132518340Y-96455200D02*
X132462260Y-96399810D01*
X132525510Y-94200850D02*
X132557990Y-94129020D01*
X132525510Y-96740850D02*
X132557990Y-96669020D01*
X132554410Y-93985310D02*
X132518340Y-93915200D01*
X132554410Y-96525310D02*
X132518340Y-96455200D01*
X132557990Y-94129020D02*
X132566830Y-94063160D01*
X132557990Y-96669020D02*
X132566830Y-96603160D01*
X132566830Y-94063160D02*
X132554410Y-93985310D01*
X132566830Y-96603160D02*
X132554410Y-96525310D01*
X134530710Y-47963630D02*
X134545090Y-48041150D01*
X134530710Y-50503630D02*
X134545090Y-50581150D01*
X134541170Y-47885500D02*
X134530710Y-47963630D01*
X134541170Y-50425500D02*
X134530710Y-50503630D01*
X134545090Y-48041150D02*
X134582880Y-48110320D01*
X134545090Y-50581150D02*
X134582880Y-50650320D01*
X134575460Y-47814510D02*
X134541170Y-47885500D01*
X134575460Y-50354510D02*
X134541170Y-50425500D01*
X134582880Y-48110320D02*
X134640340Y-48164290D01*
X134582880Y-50650320D02*
X134640340Y-50704290D01*
X134606910Y-94069430D02*
X134621290Y-94146950D01*
X134606910Y-96609430D02*
X134621290Y-96686950D01*
X134617370Y-93991300D02*
X134606910Y-94069430D01*
X134617370Y-96531300D02*
X134606910Y-96609430D01*
X134621290Y-94146950D02*
X134659080Y-94216120D01*
X134621290Y-96686950D02*
X134659080Y-96756120D01*
X134630150Y-47757710D02*
X134575460Y-47814510D01*
X134630150Y-50297710D02*
X134575460Y-50354510D01*
X134640340Y-48164290D02*
X134711760Y-48197690D01*
X134640340Y-50704290D02*
X134711760Y-50737690D01*
X134651660Y-93920310D02*
X134617370Y-93991300D01*
X134651660Y-96460310D02*
X134617370Y-96531300D01*
X134659080Y-94216120D02*
X134716540Y-94270090D01*
X134659080Y-96756120D02*
X134716540Y-96810090D01*
X134699820Y-47720780D02*
X134630150Y-47757710D01*
X134699820Y-50260780D02*
X134630150Y-50297710D01*
X134706350Y-93863520D02*
X134651660Y-93920310D01*
X134706350Y-96403520D02*
X134651660Y-96460310D01*
X134711760Y-48197690D02*
X134790020Y-48207190D01*
X134711760Y-50737690D02*
X134790020Y-50747190D01*
X134716540Y-94270090D02*
X134787960Y-94303490D01*
X134716540Y-96810090D02*
X134787960Y-96843490D01*
X134776020Y-93826580D02*
X134706350Y-93863520D01*
X134776020Y-96366580D02*
X134706350Y-96403520D01*
X134777500Y-47707400D02*
X134699820Y-47720780D01*
X134777500Y-50247400D02*
X134699820Y-50260780D01*
X134787960Y-94303490D02*
X134866220Y-94312990D01*
X134787960Y-96843490D02*
X134866220Y-96852990D01*
X134790020Y-48207190D02*
X134867340Y-48191850D01*
X134790020Y-50747190D02*
X134867340Y-50731850D01*
X134853700Y-93813200D02*
X134776020Y-93826580D01*
X134853700Y-96353200D02*
X134776020Y-96366580D01*
X134855500Y-47718850D02*
X134777500Y-47707400D01*
X134855500Y-50258850D02*
X134777500Y-50247400D01*
X134866220Y-94312990D02*
X134943540Y-94297650D01*
X134866220Y-96852990D02*
X134943540Y-96837650D01*
X134867340Y-48191850D02*
X134936040Y-48153190D01*
X134867340Y-50731850D02*
X134936040Y-50693190D01*
X134926060Y-47754010D02*
X134855500Y-47718850D01*
X134926060Y-50294010D02*
X134855500Y-50258850D01*
X134931700Y-93824650D02*
X134853700Y-93813200D01*
X134931700Y-96364650D02*
X134853700Y-96353200D01*
X134936040Y-48153190D02*
X134989310Y-48095050D01*
X134936040Y-50693190D02*
X134989310Y-50635050D01*
X134943540Y-94297650D02*
X135012240Y-94258990D01*
X134943540Y-96837650D02*
X135012240Y-96798990D01*
X134982140Y-47809400D02*
X134926060Y-47754010D01*
X134982140Y-50349400D02*
X134926060Y-50294010D01*
X134989310Y-48095050D02*
X135021790Y-48023220D01*
X134989310Y-50635050D02*
X135021790Y-50563220D01*
X135002260Y-93859810D02*
X134931700Y-93824650D01*
X135002260Y-96399810D02*
X134931700Y-96364650D01*
X135012240Y-94258990D02*
X135065510Y-94200850D01*
X135012240Y-96798990D02*
X135065510Y-96740850D01*
X135018210Y-47879510D02*
X134982140Y-47809400D01*
X135018210Y-50419510D02*
X134982140Y-50349400D01*
X135021790Y-48023220D02*
X135030630Y-47957360D01*
X135021790Y-50563220D02*
X135030630Y-50497360D01*
X135030630Y-47957360D02*
X135018210Y-47879510D01*
X135030630Y-50497360D02*
X135018210Y-50419510D01*
X135058340Y-93915200D02*
X135002260Y-93859810D01*
X135058340Y-96455200D02*
X135002260Y-96399810D01*
X135065510Y-94200850D02*
X135097990Y-94129020D01*
X135065510Y-96740850D02*
X135097990Y-96669020D01*
X135094410Y-93985310D02*
X135058340Y-93915200D01*
X135094410Y-96525310D02*
X135058340Y-96455200D01*
X135097990Y-94129020D02*
X135106830Y-94063160D01*
X135097990Y-96669020D02*
X135106830Y-96603160D01*
X135106830Y-94063160D02*
X135094410Y-93985310D01*
X135106830Y-96603160D02*
X135094410Y-96525310D01*
X137070710Y-47963630D02*
X137085090Y-48041150D01*
X137070710Y-50503630D02*
X137085090Y-50581150D01*
X137081170Y-47885500D02*
X137070710Y-47963630D01*
X137081170Y-50425500D02*
X137070710Y-50503630D01*
X137085090Y-48041150D02*
X137122880Y-48110320D01*
X137085090Y-50581150D02*
X137122880Y-50650320D01*
X137115460Y-47814510D02*
X137081170Y-47885500D01*
X137115460Y-50354510D02*
X137081170Y-50425500D01*
X137122880Y-48110320D02*
X137180340Y-48164290D01*
X137122880Y-50650320D02*
X137180340Y-50704290D01*
X137146910Y-94069430D02*
X137161290Y-94146950D01*
X137146910Y-96609430D02*
X137161290Y-96686950D01*
X137157370Y-93991300D02*
X137146910Y-94069430D01*
X137157370Y-96531300D02*
X137146910Y-96609430D01*
X137161290Y-94146950D02*
X137199080Y-94216120D01*
X137161290Y-96686950D02*
X137199080Y-96756120D01*
X137170150Y-47757710D02*
X137115460Y-47814510D01*
X137170150Y-50297710D02*
X137115460Y-50354510D01*
X137180340Y-48164290D02*
X137251760Y-48197690D01*
X137180340Y-50704290D02*
X137251760Y-50737690D01*
X137191660Y-93920310D02*
X137157370Y-93991300D01*
X137191660Y-96460310D02*
X137157370Y-96531300D01*
X137199080Y-94216120D02*
X137256540Y-94270090D01*
X137199080Y-96756120D02*
X137256540Y-96810090D01*
X137239820Y-47720780D02*
X137170150Y-47757710D01*
X137239820Y-50260780D02*
X137170150Y-50297710D01*
X137246350Y-93863520D02*
X137191660Y-93920310D01*
X137246350Y-96403520D02*
X137191660Y-96460310D01*
X137251760Y-48197690D02*
X137330020Y-48207190D01*
X137251760Y-50737690D02*
X137330020Y-50747190D01*
X137256540Y-94270090D02*
X137327960Y-94303490D01*
X137256540Y-96810090D02*
X137327960Y-96843490D01*
X137316020Y-93826580D02*
X137246350Y-93863520D01*
X137316020Y-96366580D02*
X137246350Y-96403520D01*
X137317500Y-47707400D02*
X137239820Y-47720780D01*
X137317500Y-50247400D02*
X137239820Y-50260780D01*
X137327960Y-94303490D02*
X137406220Y-94312990D01*
X137327960Y-96843490D02*
X137406220Y-96852990D01*
X137330020Y-48207190D02*
X137407340Y-48191850D01*
X137330020Y-50747190D02*
X137407340Y-50731850D01*
X137393700Y-93813200D02*
X137316020Y-93826580D01*
X137393700Y-96353200D02*
X137316020Y-96366580D01*
X137395500Y-47718850D02*
X137317500Y-47707400D01*
X137395500Y-50258850D02*
X137317500Y-50247400D01*
X137406220Y-94312990D02*
X137483540Y-94297650D01*
X137406220Y-96852990D02*
X137483540Y-96837650D01*
X137407340Y-48191850D02*
X137476040Y-48153190D01*
X137407340Y-50731850D02*
X137476040Y-50693190D01*
X137466060Y-47754010D02*
X137395500Y-47718850D01*
X137466060Y-50294010D02*
X137395500Y-50258850D01*
X137471700Y-93824650D02*
X137393700Y-93813200D01*
X137471700Y-96364650D02*
X137393700Y-96353200D01*
X137476040Y-48153190D02*
X137529310Y-48095050D01*
X137476040Y-50693190D02*
X137529310Y-50635050D01*
X137483540Y-94297650D02*
X137552240Y-94258990D01*
X137483540Y-96837650D02*
X137552240Y-96798990D01*
X137522140Y-47809400D02*
X137466060Y-47754010D01*
X137522140Y-50349400D02*
X137466060Y-50294010D01*
X137529310Y-48095050D02*
X137561790Y-48023220D01*
X137529310Y-50635050D02*
X137561790Y-50563220D01*
X137542260Y-93859810D02*
X137471700Y-93824650D01*
X137542260Y-96399810D02*
X137471700Y-96364650D01*
X137552240Y-94258990D02*
X137605510Y-94200850D01*
X137552240Y-96798990D02*
X137605510Y-96740850D01*
X137558210Y-47879510D02*
X137522140Y-47809400D01*
X137558210Y-50419510D02*
X137522140Y-50349400D01*
X137561790Y-48023220D02*
X137570630Y-47957360D01*
X137561790Y-50563220D02*
X137570630Y-50497360D01*
X137570630Y-47957360D02*
X137558210Y-47879510D01*
X137570630Y-50497360D02*
X137558210Y-50419510D01*
X137598340Y-93915200D02*
X137542260Y-93859810D01*
X137598340Y-96455200D02*
X137542260Y-96399810D01*
X137605510Y-94200850D02*
X137637990Y-94129020D01*
X137605510Y-96740850D02*
X137637990Y-96669020D01*
X137634410Y-93985310D02*
X137598340Y-93915200D01*
X137634410Y-96525310D02*
X137598340Y-96455200D01*
X137637990Y-94129020D02*
X137646830Y-94063160D01*
X137637990Y-96669020D02*
X137646830Y-96603160D01*
X137646830Y-94063160D02*
X137634410Y-93985310D01*
X137646830Y-96603160D02*
X137634410Y-96525310D01*
X139610710Y-47963630D02*
X139625060Y-48041150D01*
X139610710Y-50503630D02*
X139625060Y-50581150D01*
X139621170Y-47885500D02*
X139610710Y-47963630D01*
X139621170Y-50425500D02*
X139610710Y-50503630D01*
X139625060Y-48041150D02*
X139662880Y-48110320D01*
X139625060Y-50581150D02*
X139662880Y-50650320D01*
X139655460Y-47814510D02*
X139621170Y-47885500D01*
X139655460Y-50354510D02*
X139621170Y-50425500D01*
X139662880Y-48110320D02*
X139720340Y-48164290D01*
X139662880Y-50650320D02*
X139720340Y-50704290D01*
X139686910Y-94069430D02*
X139701260Y-94146950D01*
X139686910Y-96609430D02*
X139701260Y-96686950D01*
X139697370Y-93991300D02*
X139686910Y-94069430D01*
X139697370Y-96531300D02*
X139686910Y-96609430D01*
X139701260Y-94146950D02*
X139739080Y-94216120D01*
X139701260Y-96686950D02*
X139739080Y-96756120D01*
X139710150Y-47757710D02*
X139655460Y-47814510D01*
X139710150Y-50297710D02*
X139655460Y-50354510D01*
X139720340Y-48164290D02*
X139791740Y-48197690D01*
X139720340Y-50704290D02*
X139791740Y-50737690D01*
X139731660Y-93920310D02*
X139697370Y-93991300D01*
X139731660Y-96460310D02*
X139697370Y-96531300D01*
X139739080Y-94216120D02*
X139796540Y-94270090D01*
X139739080Y-96756120D02*
X139796540Y-96810090D01*
X139779800Y-47720780D02*
X139710150Y-47757710D01*
X139779800Y-50260780D02*
X139710150Y-50297710D01*
X139786350Y-93863520D02*
X139731660Y-93920310D01*
X139786350Y-96403520D02*
X139731660Y-96460310D01*
X139791740Y-48197690D02*
X139869990Y-48207190D01*
X139791740Y-50737690D02*
X139869990Y-50747190D01*
X139796540Y-94270090D02*
X139867940Y-94303490D01*
X139796540Y-96810090D02*
X139867940Y-96843490D01*
X139856000Y-93826580D02*
X139786350Y-93863520D01*
X139856000Y-96366580D02*
X139786350Y-96403520D01*
X139857500Y-47707400D02*
X139779800Y-47720780D01*
X139857500Y-50247400D02*
X139779800Y-50260780D01*
X139867940Y-94303490D02*
X139946190Y-94312990D01*
X139867940Y-96843490D02*
X139946190Y-96852990D01*
X139869990Y-48207190D02*
X139947340Y-48191850D01*
X139869990Y-50747190D02*
X139947340Y-50731850D01*
X139933700Y-93813200D02*
X139856000Y-93826580D01*
X139933700Y-96353200D02*
X139856000Y-96366580D01*
X139935500Y-47718850D02*
X139857500Y-47707400D01*
X139935500Y-50258850D02*
X139857500Y-50247400D01*
X139946190Y-94312990D02*
X140023540Y-94297650D01*
X139946190Y-96852990D02*
X140023540Y-96837650D01*
X139947340Y-48191850D02*
X140016040Y-48153190D01*
X139947340Y-50731850D02*
X140016040Y-50693190D01*
X140006040Y-47754010D02*
X139935500Y-47718850D01*
X140006040Y-50294010D02*
X139935500Y-50258850D01*
X140011700Y-93824650D02*
X139933700Y-93813200D01*
X140011700Y-96364650D02*
X139933700Y-96353200D01*
X140016040Y-48153190D02*
X140069280Y-48095050D01*
X140016040Y-50693190D02*
X140069280Y-50635050D01*
X140023540Y-94297650D02*
X140092240Y-94258990D01*
X140023540Y-96837650D02*
X140092240Y-96798990D01*
X140062140Y-47809400D02*
X140006040Y-47754010D01*
X140062140Y-50349400D02*
X140006040Y-50294010D01*
X140069280Y-48095050D02*
X140101790Y-48023220D01*
X140069280Y-50635050D02*
X140101790Y-50563220D01*
X140082240Y-93859810D02*
X140011700Y-93824650D01*
X140082240Y-96399810D02*
X140011700Y-96364650D01*
X140092240Y-94258990D02*
X140145480Y-94200850D01*
X140092240Y-96798990D02*
X140145480Y-96740850D01*
X140098190Y-47879510D02*
X140062140Y-47809400D01*
X140098190Y-50419510D02*
X140062140Y-50349400D01*
X140101790Y-48023220D02*
X140110630Y-47957360D01*
X140101790Y-50563220D02*
X140110630Y-50497360D01*
X140110630Y-47957360D02*
X140098190Y-47879510D01*
X140110630Y-50497360D02*
X140098190Y-50419510D01*
X140138340Y-93915200D02*
X140082240Y-93859810D01*
X140138340Y-96455200D02*
X140082240Y-96399810D01*
X140145480Y-94200850D02*
X140177990Y-94129020D01*
X140145480Y-96740850D02*
X140177990Y-96669020D01*
X140174390Y-93985310D02*
X140138340Y-93915200D01*
X140174390Y-96525310D02*
X140138340Y-96455200D01*
X140177990Y-94129020D02*
X140186830Y-94063160D01*
X140177990Y-96669020D02*
X140186830Y-96603160D01*
X140186830Y-94063160D02*
X140174390Y-93985310D01*
X140186830Y-96603160D02*
X140174390Y-96525310D01*
X142150710Y-47963630D02*
X142165060Y-48041150D01*
X142150710Y-50503630D02*
X142165060Y-50581150D01*
X142161170Y-47885500D02*
X142150710Y-47963630D01*
X142161170Y-50425500D02*
X142150710Y-50503630D01*
X142165060Y-48041150D02*
X142202880Y-48110320D01*
X142165060Y-50581150D02*
X142202880Y-50650320D01*
X142195460Y-47814510D02*
X142161170Y-47885500D01*
X142195460Y-50354510D02*
X142161170Y-50425500D01*
X142202880Y-48110320D02*
X142260340Y-48164290D01*
X142202880Y-50650320D02*
X142260340Y-50704290D01*
X142226910Y-94069430D02*
X142241260Y-94146950D01*
X142226910Y-96609430D02*
X142241260Y-96686950D01*
X142237370Y-93991300D02*
X142226910Y-94069430D01*
X142237370Y-96531300D02*
X142226910Y-96609430D01*
X142241260Y-94146950D02*
X142279080Y-94216120D01*
X142241260Y-96686950D02*
X142279080Y-96756120D01*
X142250150Y-47757710D02*
X142195460Y-47814510D01*
X142250150Y-50297710D02*
X142195460Y-50354510D01*
X142260340Y-48164290D02*
X142331740Y-48197690D01*
X142260340Y-50704290D02*
X142331740Y-50737690D01*
X142271660Y-93920310D02*
X142237370Y-93991300D01*
X142271660Y-96460310D02*
X142237370Y-96531300D01*
X142279080Y-94216120D02*
X142336540Y-94270090D01*
X142279080Y-96756120D02*
X142336540Y-96810090D01*
X142319800Y-47720780D02*
X142250150Y-47757710D01*
X142319800Y-50260780D02*
X142250150Y-50297710D01*
X142326350Y-93863520D02*
X142271660Y-93920310D01*
X142326350Y-96403520D02*
X142271660Y-96460310D01*
X142331740Y-48197690D02*
X142409990Y-48207190D01*
X142331740Y-50737690D02*
X142409990Y-50747190D01*
X142336540Y-94270090D02*
X142407940Y-94303490D01*
X142336540Y-96810090D02*
X142407940Y-96843490D01*
X142396000Y-93826580D02*
X142326350Y-93863520D01*
X142396000Y-96366580D02*
X142326350Y-96403520D01*
X142397500Y-47707400D02*
X142319800Y-47720780D01*
X142397500Y-50247400D02*
X142319800Y-50260780D01*
X142407940Y-94303490D02*
X142486190Y-94312990D01*
X142407940Y-96843490D02*
X142486190Y-96852990D01*
X142409990Y-48207190D02*
X142487340Y-48191850D01*
X142409990Y-50747190D02*
X142487340Y-50731850D01*
X142473700Y-93813200D02*
X142396000Y-93826580D01*
X142473700Y-96353200D02*
X142396000Y-96366580D01*
X142475500Y-47718850D02*
X142397500Y-47707400D01*
X142475500Y-50258850D02*
X142397500Y-50247400D01*
X142486190Y-94312990D02*
X142563540Y-94297650D01*
X142486190Y-96852990D02*
X142563540Y-96837650D01*
X142487340Y-48191850D02*
X142556040Y-48153190D01*
X142487340Y-50731850D02*
X142556040Y-50693190D01*
X142546040Y-47754010D02*
X142475500Y-47718850D01*
X142546040Y-50294010D02*
X142475500Y-50258850D01*
X142551700Y-93824650D02*
X142473700Y-93813200D01*
X142551700Y-96364650D02*
X142473700Y-96353200D01*
X142556040Y-48153190D02*
X142609280Y-48095050D01*
X142556040Y-50693190D02*
X142609280Y-50635050D01*
X142563540Y-94297650D02*
X142632240Y-94258990D01*
X142563540Y-96837650D02*
X142632240Y-96798990D01*
X142602140Y-47809400D02*
X142546040Y-47754010D01*
X142602140Y-50349400D02*
X142546040Y-50294010D01*
X142609280Y-48095050D02*
X142641790Y-48023220D01*
X142609280Y-50635050D02*
X142641790Y-50563220D01*
X142622240Y-93859810D02*
X142551700Y-93824650D01*
X142622240Y-96399810D02*
X142551700Y-96364650D01*
X142632240Y-94258990D02*
X142685480Y-94200850D01*
X142632240Y-96798990D02*
X142685480Y-96740850D01*
X142638190Y-47879510D02*
X142602140Y-47809400D01*
X142638190Y-50419510D02*
X142602140Y-50349400D01*
X142641790Y-48023220D02*
X142650630Y-47957360D01*
X142641790Y-50563220D02*
X142650630Y-50497360D01*
X142650630Y-47957360D02*
X142638190Y-47879510D01*
X142650630Y-50497360D02*
X142638190Y-50419510D01*
X142678340Y-93915200D02*
X142622240Y-93859810D01*
X142678340Y-96455200D02*
X142622240Y-96399810D01*
X142685480Y-94200850D02*
X142717990Y-94129020D01*
X142685480Y-96740850D02*
X142717990Y-96669020D01*
X142714390Y-93985310D02*
X142678340Y-93915200D01*
X142714390Y-96525310D02*
X142678340Y-96455200D01*
X142717990Y-94129020D02*
X142726830Y-94063160D01*
X142717990Y-96669020D02*
X142726830Y-96603160D01*
X142726830Y-94063160D02*
X142714390Y-93985310D01*
X142726830Y-96603160D02*
X142714390Y-96525310D01*
X144690710Y-47963630D02*
X144705060Y-48041150D01*
X144690710Y-50503630D02*
X144705060Y-50581150D01*
X144701170Y-47885500D02*
X144690710Y-47963630D01*
X144701170Y-50425500D02*
X144690710Y-50503630D01*
X144705060Y-48041150D02*
X144742880Y-48110320D01*
X144705060Y-50581150D02*
X144742880Y-50650320D01*
X144735460Y-47814510D02*
X144701170Y-47885500D01*
X144735460Y-50354510D02*
X144701170Y-50425500D01*
X144742880Y-48110320D02*
X144800340Y-48164290D01*
X144742880Y-50650320D02*
X144800340Y-50704290D01*
X144766910Y-94069430D02*
X144781260Y-94146950D01*
X144766910Y-96609430D02*
X144781260Y-96686950D01*
X144777370Y-93991300D02*
X144766910Y-94069430D01*
X144777370Y-96531300D02*
X144766910Y-96609430D01*
X144781260Y-94146950D02*
X144819080Y-94216120D01*
X144781260Y-96686950D02*
X144819080Y-96756120D01*
X144790150Y-47757710D02*
X144735460Y-47814510D01*
X144790150Y-50297710D02*
X144735460Y-50354510D01*
X144800340Y-48164290D02*
X144871740Y-48197690D01*
X144800340Y-50704290D02*
X144871740Y-50737690D01*
X144811660Y-93920310D02*
X144777370Y-93991300D01*
X144811660Y-96460310D02*
X144777370Y-96531300D01*
X144819080Y-94216120D02*
X144876540Y-94270090D01*
X144819080Y-96756120D02*
X144876540Y-96810090D01*
X144859800Y-47720780D02*
X144790150Y-47757710D01*
X144859800Y-50260780D02*
X144790150Y-50297710D01*
X144866350Y-93863520D02*
X144811660Y-93920310D01*
X144866350Y-96403520D02*
X144811660Y-96460310D01*
X144871740Y-48197690D02*
X144949990Y-48207190D01*
X144871740Y-50737690D02*
X144949990Y-50747190D01*
X144876540Y-94270090D02*
X144947940Y-94303490D01*
X144876540Y-96810090D02*
X144947940Y-96843490D01*
X144936000Y-93826580D02*
X144866350Y-93863520D01*
X144936000Y-96366580D02*
X144866350Y-96403520D01*
X144937500Y-47707400D02*
X144859800Y-47720780D01*
X144937500Y-50247400D02*
X144859800Y-50260780D01*
X144947940Y-94303490D02*
X145026190Y-94312990D01*
X144947940Y-96843490D02*
X145026190Y-96852990D01*
X144949990Y-48207190D02*
X145027340Y-48191850D01*
X144949990Y-50747190D02*
X145027340Y-50731850D01*
X145013700Y-93813200D02*
X144936000Y-93826580D01*
X145013700Y-96353200D02*
X144936000Y-96366580D01*
X145015500Y-47718850D02*
X144937500Y-47707400D01*
X145015500Y-50258850D02*
X144937500Y-50247400D01*
X145026190Y-94312990D02*
X145103540Y-94297650D01*
X145026190Y-96852990D02*
X145103540Y-96837650D01*
X145027340Y-48191850D02*
X145096040Y-48153190D01*
X145027340Y-50731850D02*
X145096040Y-50693190D01*
X145086040Y-47754010D02*
X145015500Y-47718850D01*
X145086040Y-50294010D02*
X145015500Y-50258850D01*
X145091700Y-93824650D02*
X145013700Y-93813200D01*
X145091700Y-96364650D02*
X145013700Y-96353200D01*
X145096040Y-48153190D02*
X145149280Y-48095050D01*
X145096040Y-50693190D02*
X145149280Y-50635050D01*
X145103540Y-94297650D02*
X145172240Y-94258990D01*
X145103540Y-96837650D02*
X145172240Y-96798990D01*
X145142140Y-47809400D02*
X145086040Y-47754010D01*
X145142140Y-50349400D02*
X145086040Y-50294010D01*
X145149280Y-48095050D02*
X145181790Y-48023220D01*
X145149280Y-50635050D02*
X145181790Y-50563220D01*
X145162240Y-93859810D02*
X145091700Y-93824650D01*
X145162240Y-96399810D02*
X145091700Y-96364650D01*
X145172240Y-94258990D02*
X145225480Y-94200850D01*
X145172240Y-96798990D02*
X145225480Y-96740850D01*
X145178190Y-47879510D02*
X145142140Y-47809400D01*
X145178190Y-50419510D02*
X145142140Y-50349400D01*
X145181790Y-48023220D02*
X145190630Y-47957360D01*
X145181790Y-50563220D02*
X145190630Y-50497360D01*
X145190630Y-47957360D02*
X145178190Y-47879510D01*
X145190630Y-50497360D02*
X145178190Y-50419510D01*
X145218340Y-93915200D02*
X145162240Y-93859810D01*
X145218340Y-96455200D02*
X145162240Y-96399810D01*
X145225480Y-94200850D02*
X145257990Y-94129020D01*
X145225480Y-96740850D02*
X145257990Y-96669020D01*
X145254390Y-93985310D02*
X145218340Y-93915200D01*
X145254390Y-96525310D02*
X145218340Y-96455200D01*
X145257990Y-94129020D02*
X145266830Y-94063160D01*
X145257990Y-96669020D02*
X145266830Y-96603160D01*
X145266830Y-94063160D02*
X145254390Y-93985310D01*
X145266830Y-96603160D02*
X145254390Y-96525310D01*
X147230710Y-47963630D02*
X147245060Y-48041150D01*
X147230710Y-50503630D02*
X147245060Y-50581150D01*
X147241170Y-47885500D02*
X147230710Y-47963630D01*
X147241170Y-50425500D02*
X147230710Y-50503630D01*
X147245060Y-48041150D02*
X147282880Y-48110320D01*
X147245060Y-50581150D02*
X147282880Y-50650320D01*
X147275460Y-47814510D02*
X147241170Y-47885500D01*
X147275460Y-50354510D02*
X147241170Y-50425500D01*
X147282880Y-48110320D02*
X147340340Y-48164290D01*
X147282880Y-50650320D02*
X147340340Y-50704290D01*
X147306910Y-94069430D02*
X147321260Y-94146950D01*
X147306910Y-96609430D02*
X147321260Y-96686950D01*
X147317370Y-93991300D02*
X147306910Y-94069430D01*
X147317370Y-96531300D02*
X147306910Y-96609430D01*
X147321260Y-94146950D02*
X147359080Y-94216120D01*
X147321260Y-96686950D02*
X147359080Y-96756120D01*
X147330150Y-47757710D02*
X147275460Y-47814510D01*
X147330150Y-50297710D02*
X147275460Y-50354510D01*
X147340340Y-48164290D02*
X147411740Y-48197690D01*
X147340340Y-50704290D02*
X147411740Y-50737690D01*
X147351660Y-93920310D02*
X147317370Y-93991300D01*
X147351660Y-96460310D02*
X147317370Y-96531300D01*
X147359080Y-94216120D02*
X147416540Y-94270090D01*
X147359080Y-96756120D02*
X147416540Y-96810090D01*
X147399800Y-47720780D02*
X147330150Y-47757710D01*
X147399800Y-50260780D02*
X147330150Y-50297710D01*
X147406350Y-93863520D02*
X147351660Y-93920310D01*
X147406350Y-96403520D02*
X147351660Y-96460310D01*
X147411740Y-48197690D02*
X147489990Y-48207190D01*
X147411740Y-50737690D02*
X147489990Y-50747190D01*
X147416540Y-94270090D02*
X147487940Y-94303490D01*
X147416540Y-96810090D02*
X147487940Y-96843490D01*
X147476000Y-93826580D02*
X147406350Y-93863520D01*
X147476000Y-96366580D02*
X147406350Y-96403520D01*
X147477500Y-47707400D02*
X147399800Y-47720780D01*
X147477500Y-50247400D02*
X147399800Y-50260780D01*
X147487940Y-94303490D02*
X147566190Y-94312990D01*
X147487940Y-96843490D02*
X147566190Y-96852990D01*
X147489990Y-48207190D02*
X147567340Y-48191850D01*
X147489990Y-50747190D02*
X147567340Y-50731850D01*
X147553700Y-93813200D02*
X147476000Y-93826580D01*
X147553700Y-96353200D02*
X147476000Y-96366580D01*
X147555500Y-47718850D02*
X147477500Y-47707400D01*
X147555500Y-50258850D02*
X147477500Y-50247400D01*
X147566190Y-94312990D02*
X147643540Y-94297650D01*
X147566190Y-96852990D02*
X147643540Y-96837650D01*
X147567340Y-48191850D02*
X147636040Y-48153190D01*
X147567340Y-50731850D02*
X147636040Y-50693190D01*
X147626040Y-47754010D02*
X147555500Y-47718850D01*
X147626040Y-50294010D02*
X147555500Y-50258850D01*
X147631700Y-93824650D02*
X147553700Y-93813200D01*
X147631700Y-96364650D02*
X147553700Y-96353200D01*
X147636040Y-48153190D02*
X147689280Y-48095050D01*
X147636040Y-50693190D02*
X147689280Y-50635050D01*
X147643540Y-94297650D02*
X147712240Y-94258990D01*
X147643540Y-96837650D02*
X147712240Y-96798990D01*
X147682140Y-47809400D02*
X147626040Y-47754010D01*
X147682140Y-50349400D02*
X147626040Y-50294010D01*
X147689280Y-48095050D02*
X147721790Y-48023220D01*
X147689280Y-50635050D02*
X147721790Y-50563220D01*
X147702240Y-93859810D02*
X147631700Y-93824650D01*
X147702240Y-96399810D02*
X147631700Y-96364650D01*
X147712240Y-94258990D02*
X147765480Y-94200850D01*
X147712240Y-96798990D02*
X147765480Y-96740850D01*
X147718190Y-47879510D02*
X147682140Y-47809400D01*
X147718190Y-50419510D02*
X147682140Y-50349400D01*
X147721790Y-48023220D02*
X147730630Y-47957360D01*
X147721790Y-50563220D02*
X147730630Y-50497360D01*
X147730630Y-47957360D02*
X147718190Y-47879510D01*
X147730630Y-50497360D02*
X147718190Y-50419510D01*
X147758340Y-93915200D02*
X147702240Y-93859810D01*
X147758340Y-96455200D02*
X147702240Y-96399810D01*
X147765480Y-94200850D02*
X147797990Y-94129020D01*
X147765480Y-96740850D02*
X147797990Y-96669020D01*
X147794390Y-93985310D02*
X147758340Y-93915200D01*
X147794390Y-96525310D02*
X147758340Y-96455200D01*
X147797990Y-94129020D02*
X147806830Y-94063160D01*
X147797990Y-96669020D02*
X147806830Y-96603160D01*
X147806830Y-94063160D02*
X147794390Y-93985310D01*
X147806830Y-96603160D02*
X147794390Y-96525310D01*
X149770710Y-47963630D02*
X149785060Y-48041150D01*
X149770710Y-50503630D02*
X149785060Y-50581150D01*
X149781170Y-47885500D02*
X149770710Y-47963630D01*
X149781170Y-50425500D02*
X149770710Y-50503630D01*
X149785060Y-48041150D02*
X149822880Y-48110320D01*
X149785060Y-50581150D02*
X149822880Y-50650320D01*
X149815460Y-47814510D02*
X149781170Y-47885500D01*
X149815460Y-50354510D02*
X149781170Y-50425500D01*
X149822880Y-48110320D02*
X149880340Y-48164290D01*
X149822880Y-50650320D02*
X149880340Y-50704290D01*
X149846910Y-94069430D02*
X149861260Y-94146950D01*
X149846910Y-96609430D02*
X149861260Y-96686950D01*
X149857370Y-93991300D02*
X149846910Y-94069430D01*
X149857370Y-96531300D02*
X149846910Y-96609430D01*
X149861260Y-94146950D02*
X149899080Y-94216120D01*
X149861260Y-96686950D02*
X149899080Y-96756120D01*
X149870150Y-47757710D02*
X149815460Y-47814510D01*
X149870150Y-50297710D02*
X149815460Y-50354510D01*
X149880340Y-48164290D02*
X149951740Y-48197690D01*
X149880340Y-50704290D02*
X149951740Y-50737690D01*
X149891660Y-93920310D02*
X149857370Y-93991300D01*
X149891660Y-96460310D02*
X149857370Y-96531300D01*
X149899080Y-94216120D02*
X149956540Y-94270090D01*
X149899080Y-96756120D02*
X149956540Y-96810090D01*
X149939800Y-47720780D02*
X149870150Y-47757710D01*
X149939800Y-50260780D02*
X149870150Y-50297710D01*
X149946350Y-93863520D02*
X149891660Y-93920310D01*
X149946350Y-96403520D02*
X149891660Y-96460310D01*
X149951740Y-48197690D02*
X150029990Y-48207190D01*
X149951740Y-50737690D02*
X150029990Y-50747190D01*
X149956540Y-94270090D02*
X150027940Y-94303490D01*
X149956540Y-96810090D02*
X150027940Y-96843490D01*
X150016000Y-93826580D02*
X149946350Y-93863520D01*
X150016000Y-96366580D02*
X149946350Y-96403520D01*
X150017500Y-47707400D02*
X149939800Y-47720780D01*
X150017500Y-50247400D02*
X149939800Y-50260780D01*
X150027940Y-94303490D02*
X150106190Y-94312990D01*
X150027940Y-96843490D02*
X150106190Y-96852990D01*
X150029990Y-48207190D02*
X150107340Y-48191850D01*
X150029990Y-50747190D02*
X150107340Y-50731850D01*
X150093700Y-93813200D02*
X150016000Y-93826580D01*
X150093700Y-96353200D02*
X150016000Y-96366580D01*
X150095500Y-47718850D02*
X150017500Y-47707400D01*
X150095500Y-50258850D02*
X150017500Y-50247400D01*
X150106190Y-94312990D02*
X150183540Y-94297650D01*
X150106190Y-96852990D02*
X150183540Y-96837650D01*
X150107340Y-48191850D02*
X150176040Y-48153190D01*
X150107340Y-50731850D02*
X150176040Y-50693190D01*
X150166040Y-47754010D02*
X150095500Y-47718850D01*
X150166040Y-50294010D02*
X150095500Y-50258850D01*
X150171700Y-93824650D02*
X150093700Y-93813200D01*
X150171700Y-96364650D02*
X150093700Y-96353200D01*
X150176040Y-48153190D02*
X150229280Y-48095050D01*
X150176040Y-50693190D02*
X150229280Y-50635050D01*
X150183540Y-94297650D02*
X150252240Y-94258990D01*
X150183540Y-96837650D02*
X150252240Y-96798990D01*
X150222140Y-47809400D02*
X150166040Y-47754010D01*
X150222140Y-50349400D02*
X150166040Y-50294010D01*
X150229280Y-48095050D02*
X150261790Y-48023220D01*
X150229280Y-50635050D02*
X150261790Y-50563220D01*
X150242240Y-93859810D02*
X150171700Y-93824650D01*
X150242240Y-96399810D02*
X150171700Y-96364650D01*
X150252240Y-94258990D02*
X150305480Y-94200850D01*
X150252240Y-96798990D02*
X150305480Y-96740850D01*
X150258190Y-47879510D02*
X150222140Y-47809400D01*
X150258190Y-50419510D02*
X150222140Y-50349400D01*
X150261790Y-48023220D02*
X150270630Y-47957360D01*
X150261790Y-50563220D02*
X150270630Y-50497360D01*
X150270630Y-47957360D02*
X150258190Y-47879510D01*
X150270630Y-50497360D02*
X150258190Y-50419510D01*
X150298340Y-93915200D02*
X150242240Y-93859810D01*
X150298340Y-96455200D02*
X150242240Y-96399810D01*
X150305480Y-94200850D02*
X150337990Y-94129020D01*
X150305480Y-96740850D02*
X150337990Y-96669020D01*
X150334390Y-93985310D02*
X150298340Y-93915200D01*
X150334390Y-96525310D02*
X150298340Y-96455200D01*
X150337990Y-94129020D02*
X150346830Y-94063160D01*
X150337990Y-96669020D02*
X150346830Y-96603160D01*
X150346830Y-94063160D02*
X150334390Y-93985310D01*
X150346830Y-96603160D02*
X150334390Y-96525310D01*
X152310710Y-47963630D02*
X152325060Y-48041150D01*
X152310710Y-50503630D02*
X152325060Y-50581150D01*
X152321170Y-47885500D02*
X152310710Y-47963630D01*
X152321170Y-50425500D02*
X152310710Y-50503630D01*
X152325060Y-48041150D02*
X152362880Y-48110320D01*
X152325060Y-50581150D02*
X152362880Y-50650320D01*
X152355460Y-47814510D02*
X152321170Y-47885500D01*
X152355460Y-50354510D02*
X152321170Y-50425500D01*
X152362880Y-48110320D02*
X152420340Y-48164290D01*
X152362880Y-50650320D02*
X152420340Y-50704290D01*
X152386910Y-94069430D02*
X152401260Y-94146950D01*
X152386910Y-96609430D02*
X152401260Y-96686950D01*
X152397370Y-93991300D02*
X152386910Y-94069430D01*
X152397370Y-96531300D02*
X152386910Y-96609430D01*
X152401260Y-94146950D02*
X152439080Y-94216120D01*
X152401260Y-96686950D02*
X152439080Y-96756120D01*
X152410150Y-47757710D02*
X152355460Y-47814510D01*
X152410150Y-50297710D02*
X152355460Y-50354510D01*
X152420340Y-48164290D02*
X152491740Y-48197690D01*
X152420340Y-50704290D02*
X152491740Y-50737690D01*
X152431660Y-93920310D02*
X152397370Y-93991300D01*
X152431660Y-96460310D02*
X152397370Y-96531300D01*
X152439080Y-94216120D02*
X152496540Y-94270090D01*
X152439080Y-96756120D02*
X152496540Y-96810090D01*
X152479800Y-47720780D02*
X152410150Y-47757710D01*
X152479800Y-50260780D02*
X152410150Y-50297710D01*
X152486350Y-93863520D02*
X152431660Y-93920310D01*
X152486350Y-96403520D02*
X152431660Y-96460310D01*
X152491740Y-48197690D02*
X152569990Y-48207190D01*
X152491740Y-50737690D02*
X152569990Y-50747190D01*
X152496540Y-94270090D02*
X152567940Y-94303490D01*
X152496540Y-96810090D02*
X152567940Y-96843490D01*
X152556000Y-93826580D02*
X152486350Y-93863520D01*
X152556000Y-96366580D02*
X152486350Y-96403520D01*
X152557500Y-47707400D02*
X152479800Y-47720780D01*
X152557500Y-50247400D02*
X152479800Y-50260780D01*
X152567940Y-94303490D02*
X152646190Y-94312990D01*
X152567940Y-96843490D02*
X152646190Y-96852990D01*
X152569990Y-48207190D02*
X152647340Y-48191850D01*
X152569990Y-50747190D02*
X152647340Y-50731850D01*
X152633700Y-93813200D02*
X152556000Y-93826580D01*
X152633700Y-96353200D02*
X152556000Y-96366580D01*
X152635500Y-47718850D02*
X152557500Y-47707400D01*
X152635500Y-50258850D02*
X152557500Y-50247400D01*
X152646190Y-94312990D02*
X152723540Y-94297650D01*
X152646190Y-96852990D02*
X152723540Y-96837650D01*
X152647340Y-48191850D02*
X152716040Y-48153190D01*
X152647340Y-50731850D02*
X152716040Y-50693190D01*
X152706040Y-47754010D02*
X152635500Y-47718850D01*
X152706040Y-50294010D02*
X152635500Y-50258850D01*
X152711700Y-93824650D02*
X152633700Y-93813200D01*
X152711700Y-96364650D02*
X152633700Y-96353200D01*
X152716040Y-48153190D02*
X152769280Y-48095050D01*
X152716040Y-50693190D02*
X152769280Y-50635050D01*
X152723540Y-94297650D02*
X152792240Y-94258990D01*
X152723540Y-96837650D02*
X152792240Y-96798990D01*
X152762140Y-47809400D02*
X152706040Y-47754010D01*
X152762140Y-50349400D02*
X152706040Y-50294010D01*
X152769280Y-48095050D02*
X152801790Y-48023220D01*
X152769280Y-50635050D02*
X152801790Y-50563220D01*
X152782240Y-93859810D02*
X152711700Y-93824650D01*
X152782240Y-96399810D02*
X152711700Y-96364650D01*
X152792240Y-94258990D02*
X152845480Y-94200850D01*
X152792240Y-96798990D02*
X152845480Y-96740850D01*
X152798190Y-47879510D02*
X152762140Y-47809400D01*
X152798190Y-50419510D02*
X152762140Y-50349400D01*
X152801790Y-48023220D02*
X152810630Y-47957360D01*
X152801790Y-50563220D02*
X152810630Y-50497360D01*
X152810630Y-47957360D02*
X152798190Y-47879510D01*
X152810630Y-50497360D02*
X152798190Y-50419510D01*
X152838340Y-93915200D02*
X152782240Y-93859810D01*
X152838340Y-96455200D02*
X152782240Y-96399810D01*
X152845480Y-94200850D02*
X152877990Y-94129020D01*
X152845480Y-96740850D02*
X152877990Y-96669020D01*
X152874390Y-93985310D02*
X152838340Y-93915200D01*
X152874390Y-96525310D02*
X152838340Y-96455200D01*
X152877990Y-94129020D02*
X152886830Y-94063160D01*
X152877990Y-96669020D02*
X152886830Y-96603160D01*
X152886830Y-94063160D02*
X152874390Y-93985310D01*
X152886830Y-96603160D02*
X152874390Y-96525310D01*
X154850710Y-47963630D02*
X154865060Y-48041150D01*
X154850710Y-50503630D02*
X154865060Y-50581150D01*
X154861170Y-47885500D02*
X154850710Y-47963630D01*
X154861170Y-50425500D02*
X154850710Y-50503630D01*
X154865060Y-48041150D02*
X154902880Y-48110320D01*
X154865060Y-50581150D02*
X154902880Y-50650320D01*
X154895460Y-47814510D02*
X154861170Y-47885500D01*
X154895460Y-50354510D02*
X154861170Y-50425500D01*
X154902880Y-48110320D02*
X154960340Y-48164290D01*
X154902880Y-50650320D02*
X154960340Y-50704290D01*
X154926910Y-94069430D02*
X154941260Y-94146950D01*
X154926910Y-96609430D02*
X154941260Y-96686950D01*
X154937370Y-93991300D02*
X154926910Y-94069430D01*
X154937370Y-96531300D02*
X154926910Y-96609430D01*
X154941260Y-94146950D02*
X154979080Y-94216120D01*
X154941260Y-96686950D02*
X154979080Y-96756120D01*
X154950150Y-47757710D02*
X154895460Y-47814510D01*
X154950150Y-50297710D02*
X154895460Y-50354510D01*
X154960340Y-48164290D02*
X155031740Y-48197690D01*
X154960340Y-50704290D02*
X155031740Y-50737690D01*
X154971660Y-93920310D02*
X154937370Y-93991300D01*
X154971660Y-96460310D02*
X154937370Y-96531300D01*
X154979080Y-94216120D02*
X155036540Y-94270090D01*
X154979080Y-96756120D02*
X155036540Y-96810090D01*
X155019800Y-47720780D02*
X154950150Y-47757710D01*
X155019800Y-50260780D02*
X154950150Y-50297710D01*
X155026350Y-93863520D02*
X154971660Y-93920310D01*
X155026350Y-96403520D02*
X154971660Y-96460310D01*
X155031740Y-48197690D02*
X155109990Y-48207190D01*
X155031740Y-50737690D02*
X155109990Y-50747190D01*
X155036540Y-94270090D02*
X155107940Y-94303490D01*
X155036540Y-96810090D02*
X155107940Y-96843490D01*
X155096000Y-93826580D02*
X155026350Y-93863520D01*
X155096000Y-96366580D02*
X155026350Y-96403520D01*
X155097500Y-47707400D02*
X155019800Y-47720780D01*
X155097500Y-50247400D02*
X155019800Y-50260780D01*
X155107940Y-94303490D02*
X155186190Y-94312990D01*
X155107940Y-96843490D02*
X155186190Y-96852990D01*
X155109990Y-48207190D02*
X155187340Y-48191850D01*
X155109990Y-50747190D02*
X155187340Y-50731850D01*
X155173700Y-93813200D02*
X155096000Y-93826580D01*
X155173700Y-96353200D02*
X155096000Y-96366580D01*
X155175500Y-47718850D02*
X155097500Y-47707400D01*
X155175500Y-50258850D02*
X155097500Y-50247400D01*
X155186190Y-94312990D02*
X155263540Y-94297650D01*
X155186190Y-96852990D02*
X155263540Y-96837650D01*
X155187340Y-48191850D02*
X155256040Y-48153190D01*
X155187340Y-50731850D02*
X155256040Y-50693190D01*
X155246040Y-47754010D02*
X155175500Y-47718850D01*
X155246040Y-50294010D02*
X155175500Y-50258850D01*
X155251700Y-93824650D02*
X155173700Y-93813200D01*
X155251700Y-96364650D02*
X155173700Y-96353200D01*
X155256040Y-48153190D02*
X155309280Y-48095050D01*
X155256040Y-50693190D02*
X155309280Y-50635050D01*
X155263540Y-94297650D02*
X155332240Y-94258990D01*
X155263540Y-96837650D02*
X155332240Y-96798990D01*
X155302140Y-47809400D02*
X155246040Y-47754010D01*
X155302140Y-50349400D02*
X155246040Y-50294010D01*
X155309280Y-48095050D02*
X155341790Y-48023220D01*
X155309280Y-50635050D02*
X155341790Y-50563220D01*
X155322240Y-93859810D02*
X155251700Y-93824650D01*
X155322240Y-96399810D02*
X155251700Y-96364650D01*
X155332240Y-94258990D02*
X155385480Y-94200850D01*
X155332240Y-96798990D02*
X155385480Y-96740850D01*
X155338190Y-47879510D02*
X155302140Y-47809400D01*
X155338190Y-50419510D02*
X155302140Y-50349400D01*
X155341790Y-48023220D02*
X155350630Y-47957360D01*
X155341790Y-50563220D02*
X155350630Y-50497360D01*
X155350630Y-47957360D02*
X155338190Y-47879510D01*
X155350630Y-50497360D02*
X155338190Y-50419510D01*
X155378340Y-93915200D02*
X155322240Y-93859810D01*
X155378340Y-96455200D02*
X155322240Y-96399810D01*
X155385480Y-94200850D02*
X155417990Y-94129020D01*
X155385480Y-96740850D02*
X155417990Y-96669020D01*
X155414390Y-93985310D02*
X155378340Y-93915200D01*
X155414390Y-96525310D02*
X155378340Y-96455200D01*
X155417990Y-94129020D02*
X155426830Y-94063160D01*
X155417990Y-96669020D02*
X155426830Y-96603160D01*
X155426830Y-94063160D02*
X155414390Y-93985310D01*
X155426830Y-96603160D02*
X155414390Y-96525310D01*
X157390710Y-47963630D02*
X157405060Y-48041150D01*
X157390710Y-50503630D02*
X157405060Y-50581150D01*
X157401170Y-47885500D02*
X157390710Y-47963630D01*
X157401170Y-50425500D02*
X157390710Y-50503630D01*
X157405060Y-48041150D02*
X157442880Y-48110320D01*
X157405060Y-50581150D02*
X157442880Y-50650320D01*
X157435460Y-47814510D02*
X157401170Y-47885500D01*
X157435460Y-50354510D02*
X157401170Y-50425500D01*
X157442880Y-48110320D02*
X157500340Y-48164290D01*
X157442880Y-50650320D02*
X157500340Y-50704290D01*
X157466910Y-94069430D02*
X157481260Y-94146950D01*
X157466910Y-96609430D02*
X157481260Y-96686950D01*
X157477370Y-93991300D02*
X157466910Y-94069430D01*
X157477370Y-96531300D02*
X157466910Y-96609430D01*
X157481260Y-94146950D02*
X157519080Y-94216120D01*
X157481260Y-96686950D02*
X157519080Y-96756120D01*
X157490150Y-47757710D02*
X157435460Y-47814510D01*
X157490150Y-50297710D02*
X157435460Y-50354510D01*
X157500340Y-48164290D02*
X157571740Y-48197690D01*
X157500340Y-50704290D02*
X157571740Y-50737690D01*
X157511660Y-93920310D02*
X157477370Y-93991300D01*
X157511660Y-96460310D02*
X157477370Y-96531300D01*
X157519080Y-94216120D02*
X157576540Y-94270090D01*
X157519080Y-96756120D02*
X157576540Y-96810090D01*
X157559800Y-47720780D02*
X157490150Y-47757710D01*
X157559800Y-50260780D02*
X157490150Y-50297710D01*
X157566350Y-93863520D02*
X157511660Y-93920310D01*
X157566350Y-96403520D02*
X157511660Y-96460310D01*
X157571740Y-48197690D02*
X157649990Y-48207190D01*
X157571740Y-50737690D02*
X157649990Y-50747190D01*
X157576540Y-94270090D02*
X157647940Y-94303490D01*
X157576540Y-96810090D02*
X157647940Y-96843490D01*
X157636000Y-93826580D02*
X157566350Y-93863520D01*
X157636000Y-96366580D02*
X157566350Y-96403520D01*
X157637500Y-47707400D02*
X157559800Y-47720780D01*
X157637500Y-50247400D02*
X157559800Y-50260780D01*
X157647940Y-94303490D02*
X157726190Y-94312990D01*
X157647940Y-96843490D02*
X157726190Y-96852990D01*
X157649990Y-48207190D02*
X157727340Y-48191850D01*
X157649990Y-50747190D02*
X157727340Y-50731850D01*
X157713700Y-93813200D02*
X157636000Y-93826580D01*
X157713700Y-96353200D02*
X157636000Y-96366580D01*
X157715500Y-47718850D02*
X157637500Y-47707400D01*
X157715500Y-50258850D02*
X157637500Y-50247400D01*
X157726190Y-94312990D02*
X157803540Y-94297650D01*
X157726190Y-96852990D02*
X157803540Y-96837650D01*
X157727340Y-48191850D02*
X157796040Y-48153190D01*
X157727340Y-50731850D02*
X157796040Y-50693190D01*
X157786040Y-47754010D02*
X157715500Y-47718850D01*
X157786040Y-50294010D02*
X157715500Y-50258850D01*
X157791700Y-93824650D02*
X157713700Y-93813200D01*
X157791700Y-96364650D02*
X157713700Y-96353200D01*
X157796040Y-48153190D02*
X157849280Y-48095050D01*
X157796040Y-50693190D02*
X157849280Y-50635050D01*
X157803540Y-94297650D02*
X157872240Y-94258990D01*
X157803540Y-96837650D02*
X157872240Y-96798990D01*
X157842140Y-47809400D02*
X157786040Y-47754010D01*
X157842140Y-50349400D02*
X157786040Y-50294010D01*
X157849280Y-48095050D02*
X157881790Y-48023220D01*
X157849280Y-50635050D02*
X157881790Y-50563220D01*
X157862240Y-93859810D02*
X157791700Y-93824650D01*
X157862240Y-96399810D02*
X157791700Y-96364650D01*
X157872240Y-94258990D02*
X157925480Y-94200850D01*
X157872240Y-96798990D02*
X157925480Y-96740850D01*
X157878190Y-47879510D02*
X157842140Y-47809400D01*
X157878190Y-50419510D02*
X157842140Y-50349400D01*
X157881790Y-48023220D02*
X157890630Y-47957360D01*
X157881790Y-50563220D02*
X157890630Y-50497360D01*
X157890630Y-47957360D02*
X157878190Y-47879510D01*
X157890630Y-50497360D02*
X157878190Y-50419510D01*
X157918340Y-93915200D02*
X157862240Y-93859810D01*
X157918340Y-96455200D02*
X157862240Y-96399810D01*
X157925480Y-94200850D02*
X157957990Y-94129020D01*
X157925480Y-96740850D02*
X157957990Y-96669020D01*
X157954390Y-93985310D02*
X157918340Y-93915200D01*
X157954390Y-96525310D02*
X157918340Y-96455200D01*
X157957990Y-94129020D02*
X157966830Y-94063160D01*
X157957990Y-96669020D02*
X157966830Y-96603160D01*
X157966830Y-94063160D02*
X157954390Y-93985310D01*
X157966830Y-96603160D02*
X157954390Y-96525310D01*
X159930710Y-47963630D02*
X159945060Y-48041150D01*
X159930710Y-50503630D02*
X159945060Y-50581150D01*
X159941170Y-47885500D02*
X159930710Y-47963630D01*
X159941170Y-50425500D02*
X159930710Y-50503630D01*
X159945060Y-48041150D02*
X159982880Y-48110320D01*
X159945060Y-50581150D02*
X159982880Y-50650320D01*
X159975460Y-47814510D02*
X159941170Y-47885500D01*
X159975460Y-50354510D02*
X159941170Y-50425500D01*
X159982880Y-48110320D02*
X160040340Y-48164290D01*
X159982880Y-50650320D02*
X160040340Y-50704290D01*
X160006910Y-94069430D02*
X160021260Y-94146950D01*
X160006910Y-96609430D02*
X160021260Y-96686950D01*
X160017370Y-93991300D02*
X160006910Y-94069430D01*
X160017370Y-96531300D02*
X160006910Y-96609430D01*
X160021260Y-94146950D02*
X160059080Y-94216120D01*
X160021260Y-96686950D02*
X160059080Y-96756120D01*
X160030150Y-47757710D02*
X159975460Y-47814510D01*
X160030150Y-50297710D02*
X159975460Y-50354510D01*
X160040340Y-48164290D02*
X160111740Y-48197690D01*
X160040340Y-50704290D02*
X160111740Y-50737690D01*
X160051660Y-93920310D02*
X160017370Y-93991300D01*
X160051660Y-96460310D02*
X160017370Y-96531300D01*
X160059080Y-94216120D02*
X160116540Y-94270090D01*
X160059080Y-96756120D02*
X160116540Y-96810090D01*
X160099800Y-47720780D02*
X160030150Y-47757710D01*
X160099800Y-50260780D02*
X160030150Y-50297710D01*
X160106350Y-93863520D02*
X160051660Y-93920310D01*
X160106350Y-96403520D02*
X160051660Y-96460310D01*
X160111740Y-48197690D02*
X160189990Y-48207190D01*
X160111740Y-50737690D02*
X160189990Y-50747190D01*
X160116540Y-94270090D02*
X160187940Y-94303490D01*
X160116540Y-96810090D02*
X160187940Y-96843490D01*
X160176000Y-93826580D02*
X160106350Y-93863520D01*
X160176000Y-96366580D02*
X160106350Y-96403520D01*
X160177500Y-47707400D02*
X160099800Y-47720780D01*
X160177500Y-50247400D02*
X160099800Y-50260780D01*
X160187940Y-94303490D02*
X160266190Y-94312990D01*
X160187940Y-96843490D02*
X160266190Y-96852990D01*
X160189990Y-48207190D02*
X160267340Y-48191850D01*
X160189990Y-50747190D02*
X160267340Y-50731850D01*
X160253700Y-93813200D02*
X160176000Y-93826580D01*
X160253700Y-96353200D02*
X160176000Y-96366580D01*
X160255500Y-47718850D02*
X160177500Y-47707400D01*
X160255500Y-50258850D02*
X160177500Y-50247400D01*
X160266190Y-94312990D02*
X160343540Y-94297650D01*
X160266190Y-96852990D02*
X160343540Y-96837650D01*
X160267340Y-48191850D02*
X160336040Y-48153190D01*
X160267340Y-50731850D02*
X160336040Y-50693190D01*
X160326040Y-47754010D02*
X160255500Y-47718850D01*
X160326040Y-50294010D02*
X160255500Y-50258850D01*
X160331700Y-93824650D02*
X160253700Y-93813200D01*
X160331700Y-96364650D02*
X160253700Y-96353200D01*
X160336040Y-48153190D02*
X160389280Y-48095050D01*
X160336040Y-50693190D02*
X160389280Y-50635050D01*
X160343540Y-94297650D02*
X160412240Y-94258990D01*
X160343540Y-96837650D02*
X160412240Y-96798990D01*
X160382140Y-47809400D02*
X160326040Y-47754010D01*
X160382140Y-50349400D02*
X160326040Y-50294010D01*
X160389280Y-48095050D02*
X160421790Y-48023220D01*
X160389280Y-50635050D02*
X160421790Y-50563220D01*
X160402240Y-93859810D02*
X160331700Y-93824650D01*
X160402240Y-96399810D02*
X160331700Y-96364650D01*
X160412240Y-94258990D02*
X160465480Y-94200850D01*
X160412240Y-96798990D02*
X160465480Y-96740850D01*
X160418190Y-47879510D02*
X160382140Y-47809400D01*
X160418190Y-50419510D02*
X160382140Y-50349400D01*
X160421790Y-48023220D02*
X160430630Y-47957360D01*
X160421790Y-50563220D02*
X160430630Y-50497360D01*
X160430630Y-47957360D02*
X160418190Y-47879510D01*
X160430630Y-50497360D02*
X160418190Y-50419510D01*
X160458340Y-93915200D02*
X160402240Y-93859810D01*
X160458340Y-96455200D02*
X160402240Y-96399810D01*
X160465480Y-94200850D02*
X160497990Y-94129020D01*
X160465480Y-96740850D02*
X160497990Y-96669020D01*
X160494390Y-93985310D02*
X160458340Y-93915200D01*
X160494390Y-96525310D02*
X160458340Y-96455200D01*
X160497990Y-94129020D02*
X160506830Y-94063160D01*
X160497990Y-96669020D02*
X160506830Y-96603160D01*
X160506830Y-94063160D02*
X160494390Y-93985310D01*
X160506830Y-96603160D02*
X160494390Y-96525310D01*
X162470710Y-47963630D02*
X162485060Y-48041150D01*
X162470710Y-50503630D02*
X162485060Y-50581150D01*
X162481170Y-47885500D02*
X162470710Y-47963630D01*
X162481170Y-50425500D02*
X162470710Y-50503630D01*
X162485060Y-48041150D02*
X162522880Y-48110320D01*
X162485060Y-50581150D02*
X162522880Y-50650320D01*
X162515460Y-47814510D02*
X162481170Y-47885500D01*
X162515460Y-50354510D02*
X162481170Y-50425500D01*
X162522880Y-48110320D02*
X162580340Y-48164290D01*
X162522880Y-50650320D02*
X162580340Y-50704290D01*
X162546910Y-94069430D02*
X162561260Y-94146950D01*
X162546910Y-96609430D02*
X162561260Y-96686950D01*
X162557370Y-93991300D02*
X162546910Y-94069430D01*
X162557370Y-96531300D02*
X162546910Y-96609430D01*
X162561260Y-94146950D02*
X162599080Y-94216120D01*
X162561260Y-96686950D02*
X162599080Y-96756120D01*
X162570150Y-47757710D02*
X162515460Y-47814510D01*
X162570150Y-50297710D02*
X162515460Y-50354510D01*
X162580340Y-48164290D02*
X162651740Y-48197690D01*
X162580340Y-50704290D02*
X162651740Y-50737690D01*
X162591660Y-93920310D02*
X162557370Y-93991300D01*
X162591660Y-96460310D02*
X162557370Y-96531300D01*
X162599080Y-94216120D02*
X162656540Y-94270090D01*
X162599080Y-96756120D02*
X162656540Y-96810090D01*
X162639800Y-47720780D02*
X162570150Y-47757710D01*
X162639800Y-50260780D02*
X162570150Y-50297710D01*
X162646350Y-93863520D02*
X162591660Y-93920310D01*
X162646350Y-96403520D02*
X162591660Y-96460310D01*
X162651740Y-48197690D02*
X162729990Y-48207190D01*
X162651740Y-50737690D02*
X162729990Y-50747190D01*
X162656540Y-94270090D02*
X162727940Y-94303490D01*
X162656540Y-96810090D02*
X162727940Y-96843490D01*
X162716000Y-93826580D02*
X162646350Y-93863520D01*
X162716000Y-96366580D02*
X162646350Y-96403520D01*
X162717500Y-47707400D02*
X162639800Y-47720780D01*
X162717500Y-50247400D02*
X162639800Y-50260780D01*
X162727940Y-94303490D02*
X162806190Y-94312990D01*
X162727940Y-96843490D02*
X162806190Y-96852990D01*
X162729990Y-48207190D02*
X162807340Y-48191850D01*
X162729990Y-50747190D02*
X162807340Y-50731850D01*
X162793700Y-93813200D02*
X162716000Y-93826580D01*
X162793700Y-96353200D02*
X162716000Y-96366580D01*
X162795500Y-47718850D02*
X162717500Y-47707400D01*
X162795500Y-50258850D02*
X162717500Y-50247400D01*
X162806190Y-94312990D02*
X162883540Y-94297650D01*
X162806190Y-96852990D02*
X162883540Y-96837650D01*
X162807340Y-48191850D02*
X162876040Y-48153190D01*
X162807340Y-50731850D02*
X162876040Y-50693190D01*
X162866040Y-47754010D02*
X162795500Y-47718850D01*
X162866040Y-50294010D02*
X162795500Y-50258850D01*
X162871700Y-93824650D02*
X162793700Y-93813200D01*
X162871700Y-96364650D02*
X162793700Y-96353200D01*
X162876040Y-48153190D02*
X162929280Y-48095050D01*
X162876040Y-50693190D02*
X162929280Y-50635050D01*
X162883540Y-94297650D02*
X162952240Y-94258990D01*
X162883540Y-96837650D02*
X162952240Y-96798990D01*
X162922140Y-47809400D02*
X162866040Y-47754010D01*
X162922140Y-50349400D02*
X162866040Y-50294010D01*
X162929280Y-48095050D02*
X162961790Y-48023220D01*
X162929280Y-50635050D02*
X162961790Y-50563220D01*
X162942240Y-93859810D02*
X162871700Y-93824650D01*
X162942240Y-96399810D02*
X162871700Y-96364650D01*
X162952240Y-94258990D02*
X163005480Y-94200850D01*
X162952240Y-96798990D02*
X163005480Y-96740850D01*
X162958190Y-47879510D02*
X162922140Y-47809400D01*
X162958190Y-50419510D02*
X162922140Y-50349400D01*
X162961790Y-48023220D02*
X162970630Y-47957360D01*
X162961790Y-50563220D02*
X162970630Y-50497360D01*
X162970630Y-47957360D02*
X162958190Y-47879510D01*
X162970630Y-50497360D02*
X162958190Y-50419510D01*
X162998340Y-93915200D02*
X162942240Y-93859810D01*
X162998340Y-96455200D02*
X162942240Y-96399810D01*
X163005480Y-94200850D02*
X163037990Y-94129020D01*
X163005480Y-96740850D02*
X163037990Y-96669020D01*
X163034390Y-93985310D02*
X162998340Y-93915200D01*
X163034390Y-96525310D02*
X162998340Y-96455200D01*
X163037990Y-94129020D02*
X163046830Y-94063160D01*
X163037990Y-96669020D02*
X163046830Y-96603160D01*
X163046830Y-94063160D02*
X163034390Y-93985310D01*
X163046830Y-96603160D02*
X163034390Y-96525310D01*
X165010710Y-47963630D02*
X165025060Y-48041150D01*
X165010710Y-50503630D02*
X165025060Y-50581150D01*
X165021170Y-47885500D02*
X165010710Y-47963630D01*
X165021170Y-50425500D02*
X165010710Y-50503630D01*
X165025060Y-48041150D02*
X165062880Y-48110320D01*
X165025060Y-50581150D02*
X165062880Y-50650320D01*
X165055460Y-47814510D02*
X165021170Y-47885500D01*
X165055460Y-50354510D02*
X165021170Y-50425500D01*
X165062880Y-48110320D02*
X165120340Y-48164290D01*
X165062880Y-50650320D02*
X165120340Y-50704290D01*
X165086910Y-94069430D02*
X165101260Y-94146950D01*
X165086910Y-96609430D02*
X165101260Y-96686950D01*
X165097370Y-93991300D02*
X165086910Y-94069430D01*
X165097370Y-96531300D02*
X165086910Y-96609430D01*
X165101260Y-94146950D02*
X165139080Y-94216120D01*
X165101260Y-96686950D02*
X165139080Y-96756120D01*
X165110150Y-47757710D02*
X165055460Y-47814510D01*
X165110150Y-50297710D02*
X165055460Y-50354510D01*
X165120340Y-48164290D02*
X165191740Y-48197690D01*
X165120340Y-50704290D02*
X165191740Y-50737690D01*
X165131660Y-93920310D02*
X165097370Y-93991300D01*
X165131660Y-96460310D02*
X165097370Y-96531300D01*
X165139080Y-94216120D02*
X165196540Y-94270090D01*
X165139080Y-96756120D02*
X165196540Y-96810090D01*
X165179800Y-47720780D02*
X165110150Y-47757710D01*
X165179800Y-50260780D02*
X165110150Y-50297710D01*
X165186350Y-93863520D02*
X165131660Y-93920310D01*
X165186350Y-96403520D02*
X165131660Y-96460310D01*
X165191740Y-48197690D02*
X165269990Y-48207190D01*
X165191740Y-50737690D02*
X165269990Y-50747190D01*
X165196540Y-94270090D02*
X165267940Y-94303490D01*
X165196540Y-96810090D02*
X165267940Y-96843490D01*
X165256000Y-93826580D02*
X165186350Y-93863520D01*
X165256000Y-96366580D02*
X165186350Y-96403520D01*
X165257500Y-47707400D02*
X165179800Y-47720780D01*
X165257500Y-50247400D02*
X165179800Y-50260780D01*
X165267940Y-94303490D02*
X165346190Y-94312990D01*
X165267940Y-96843490D02*
X165346190Y-96852990D01*
X165269990Y-48207190D02*
X165347340Y-48191850D01*
X165269990Y-50747190D02*
X165347340Y-50731850D01*
X165333700Y-93813200D02*
X165256000Y-93826580D01*
X165333700Y-96353200D02*
X165256000Y-96366580D01*
X165335500Y-47718850D02*
X165257500Y-47707400D01*
X165335500Y-50258850D02*
X165257500Y-50247400D01*
X165346190Y-94312990D02*
X165423540Y-94297650D01*
X165346190Y-96852990D02*
X165423540Y-96837650D01*
X165347340Y-48191850D02*
X165416040Y-48153190D01*
X165347340Y-50731850D02*
X165416040Y-50693190D01*
X165406040Y-47754010D02*
X165335500Y-47718850D01*
X165406040Y-50294010D02*
X165335500Y-50258850D01*
X165411700Y-93824650D02*
X165333700Y-93813200D01*
X165411700Y-96364650D02*
X165333700Y-96353200D01*
X165416040Y-48153190D02*
X165469280Y-48095050D01*
X165416040Y-50693190D02*
X165469280Y-50635050D01*
X165423540Y-94297650D02*
X165492240Y-94258990D01*
X165423540Y-96837650D02*
X165492240Y-96798990D01*
X165462140Y-47809400D02*
X165406040Y-47754010D01*
X165462140Y-50349400D02*
X165406040Y-50294010D01*
X165469280Y-48095050D02*
X165501790Y-48023220D01*
X165469280Y-50635050D02*
X165501790Y-50563220D01*
X165482240Y-93859810D02*
X165411700Y-93824650D01*
X165482240Y-96399810D02*
X165411700Y-96364650D01*
X165492240Y-94258990D02*
X165545480Y-94200850D01*
X165492240Y-96798990D02*
X165545480Y-96740850D01*
X165498190Y-47879510D02*
X165462140Y-47809400D01*
X165498190Y-50419510D02*
X165462140Y-50349400D01*
X165501790Y-48023220D02*
X165510630Y-47957360D01*
X165501790Y-50563220D02*
X165510630Y-50497360D01*
X165510630Y-47957360D02*
X165498190Y-47879510D01*
X165510630Y-50497360D02*
X165498190Y-50419510D01*
X165538340Y-93915200D02*
X165482240Y-93859810D01*
X165538340Y-96455200D02*
X165482240Y-96399810D01*
X165545480Y-94200850D02*
X165577990Y-94129020D01*
X165545480Y-96740850D02*
X165577990Y-96669020D01*
X165574390Y-93985310D02*
X165538340Y-93915200D01*
X165574390Y-96525310D02*
X165538340Y-96455200D01*
X165577990Y-94129020D02*
X165586830Y-94063160D01*
X165577990Y-96669020D02*
X165586830Y-96603160D01*
X165586830Y-94063160D02*
X165574390Y-93985310D01*
X165586830Y-96603160D02*
X165574390Y-96525310D01*
X167550710Y-47963630D02*
X167565060Y-48041150D01*
X167550710Y-50503630D02*
X167565060Y-50581150D01*
X167561170Y-47885500D02*
X167550710Y-47963630D01*
X167561170Y-50425500D02*
X167550710Y-50503630D01*
X167565060Y-48041150D02*
X167602880Y-48110320D01*
X167565060Y-50581150D02*
X167602880Y-50650320D01*
X167595460Y-47814510D02*
X167561170Y-47885500D01*
X167595460Y-50354510D02*
X167561170Y-50425500D01*
X167602880Y-48110320D02*
X167660340Y-48164290D01*
X167602880Y-50650320D02*
X167660340Y-50704290D01*
X167626910Y-94069430D02*
X167641260Y-94146950D01*
X167626910Y-96609430D02*
X167641260Y-96686950D01*
X167637370Y-93991300D02*
X167626910Y-94069430D01*
X167637370Y-96531300D02*
X167626910Y-96609430D01*
X167641260Y-94146950D02*
X167679080Y-94216120D01*
X167641260Y-96686950D02*
X167679080Y-96756120D01*
X167650150Y-47757710D02*
X167595460Y-47814510D01*
X167650150Y-50297710D02*
X167595460Y-50354510D01*
X167660340Y-48164290D02*
X167731740Y-48197690D01*
X167660340Y-50704290D02*
X167731740Y-50737690D01*
X167671660Y-93920310D02*
X167637370Y-93991300D01*
X167671660Y-96460310D02*
X167637370Y-96531300D01*
X167679080Y-94216120D02*
X167736540Y-94270090D01*
X167679080Y-96756120D02*
X167736540Y-96810090D01*
X167719800Y-47720780D02*
X167650150Y-47757710D01*
X167719800Y-50260780D02*
X167650150Y-50297710D01*
X167726350Y-93863520D02*
X167671660Y-93920310D01*
X167726350Y-96403520D02*
X167671660Y-96460310D01*
X167731740Y-48197690D02*
X167809990Y-48207190D01*
X167731740Y-50737690D02*
X167809990Y-50747190D01*
X167736540Y-94270090D02*
X167807940Y-94303490D01*
X167736540Y-96810090D02*
X167807940Y-96843490D01*
X167796000Y-93826580D02*
X167726350Y-93863520D01*
X167796000Y-96366580D02*
X167726350Y-96403520D01*
X167797500Y-47707400D02*
X167719800Y-47720780D01*
X167797500Y-50247400D02*
X167719800Y-50260780D01*
X167807940Y-94303490D02*
X167886190Y-94312990D01*
X167807940Y-96843490D02*
X167886190Y-96852990D01*
X167809990Y-48207190D02*
X167887340Y-48191850D01*
X167809990Y-50747190D02*
X167887340Y-50731850D01*
X167873700Y-93813200D02*
X167796000Y-93826580D01*
X167873700Y-96353200D02*
X167796000Y-96366580D01*
X167875500Y-47718850D02*
X167797500Y-47707400D01*
X167875500Y-50258850D02*
X167797500Y-50247400D01*
X167886190Y-94312990D02*
X167963540Y-94297650D01*
X167886190Y-96852990D02*
X167963540Y-96837650D01*
X167887340Y-48191850D02*
X167956040Y-48153190D01*
X167887340Y-50731850D02*
X167956040Y-50693190D01*
X167946040Y-47754010D02*
X167875500Y-47718850D01*
X167946040Y-50294010D02*
X167875500Y-50258850D01*
X167951700Y-93824650D02*
X167873700Y-93813200D01*
X167951700Y-96364650D02*
X167873700Y-96353200D01*
X167956040Y-48153190D02*
X168009280Y-48095050D01*
X167956040Y-50693190D02*
X168009280Y-50635050D01*
X167963540Y-94297650D02*
X168032240Y-94258990D01*
X167963540Y-96837650D02*
X168032240Y-96798990D01*
X168002140Y-47809400D02*
X167946040Y-47754010D01*
X168002140Y-50349400D02*
X167946040Y-50294010D01*
X168009280Y-48095050D02*
X168041790Y-48023220D01*
X168009280Y-50635050D02*
X168041790Y-50563220D01*
X168022240Y-93859810D02*
X167951700Y-93824650D01*
X168022240Y-96399810D02*
X167951700Y-96364650D01*
X168032240Y-94258990D02*
X168085480Y-94200850D01*
X168032240Y-96798990D02*
X168085480Y-96740850D01*
X168038190Y-47879510D02*
X168002140Y-47809400D01*
X168038190Y-50419510D02*
X168002140Y-50349400D01*
X168041790Y-48023220D02*
X168050630Y-47957360D01*
X168041790Y-50563220D02*
X168050630Y-50497360D01*
X168050630Y-47957360D02*
X168038190Y-47879510D01*
X168050630Y-50497360D02*
X168038190Y-50419510D01*
X168078340Y-93915200D02*
X168022240Y-93859810D01*
X168078340Y-96455200D02*
X168022240Y-96399810D01*
X168085480Y-94200850D02*
X168117990Y-94129020D01*
X168085480Y-96740850D02*
X168117990Y-96669020D01*
X168114390Y-93985310D02*
X168078340Y-93915200D01*
X168114390Y-96525310D02*
X168078340Y-96455200D01*
X168117990Y-94129020D02*
X168126830Y-94063160D01*
X168117990Y-96669020D02*
X168126830Y-96603160D01*
X168126830Y-94063160D02*
X168114390Y-93985310D01*
X168126830Y-96603160D02*
X168114390Y-96525310D01*
X170090710Y-47963630D02*
X170105060Y-48041150D01*
X170090710Y-50503630D02*
X170105060Y-50581150D01*
X170101170Y-47885500D02*
X170090710Y-47963630D01*
X170101170Y-50425500D02*
X170090710Y-50503630D01*
X170105060Y-48041150D02*
X170142880Y-48110320D01*
X170105060Y-50581150D02*
X170142880Y-50650320D01*
X170135460Y-47814510D02*
X170101170Y-47885500D01*
X170135460Y-50354510D02*
X170101170Y-50425500D01*
X170142880Y-48110320D02*
X170200340Y-48164290D01*
X170142880Y-50650320D02*
X170200340Y-50704290D01*
X170166910Y-94069430D02*
X170181260Y-94146950D01*
X170166910Y-96609430D02*
X170181260Y-96686950D01*
X170177370Y-93991300D02*
X170166910Y-94069430D01*
X170177370Y-96531300D02*
X170166910Y-96609430D01*
X170181260Y-94146950D02*
X170219080Y-94216120D01*
X170181260Y-96686950D02*
X170219080Y-96756120D01*
X170190150Y-47757710D02*
X170135460Y-47814510D01*
X170190150Y-50297710D02*
X170135460Y-50354510D01*
X170200340Y-48164290D02*
X170271740Y-48197690D01*
X170200340Y-50704290D02*
X170271740Y-50737690D01*
X170211660Y-93920310D02*
X170177370Y-93991300D01*
X170211660Y-96460310D02*
X170177370Y-96531300D01*
X170219080Y-94216120D02*
X170276540Y-94270090D01*
X170219080Y-96756120D02*
X170276540Y-96810090D01*
X170259800Y-47720780D02*
X170190150Y-47757710D01*
X170259800Y-50260780D02*
X170190150Y-50297710D01*
X170266350Y-93863520D02*
X170211660Y-93920310D01*
X170266350Y-96403520D02*
X170211660Y-96460310D01*
X170271740Y-48197690D02*
X170349990Y-48207190D01*
X170271740Y-50737690D02*
X170349990Y-50747190D01*
X170276540Y-94270090D02*
X170347940Y-94303490D01*
X170276540Y-96810090D02*
X170347940Y-96843490D01*
X170336000Y-93826580D02*
X170266350Y-93863520D01*
X170336000Y-96366580D02*
X170266350Y-96403520D01*
X170337500Y-47707400D02*
X170259800Y-47720780D01*
X170337500Y-50247400D02*
X170259800Y-50260780D01*
X170347940Y-94303490D02*
X170426190Y-94312990D01*
X170347940Y-96843490D02*
X170426190Y-96852990D01*
X170349990Y-48207190D02*
X170427340Y-48191850D01*
X170349990Y-50747190D02*
X170427340Y-50731850D01*
X170413700Y-93813200D02*
X170336000Y-93826580D01*
X170413700Y-96353200D02*
X170336000Y-96366580D01*
X170415500Y-47718850D02*
X170337500Y-47707400D01*
X170415500Y-50258850D02*
X170337500Y-50247400D01*
X170426190Y-94312990D02*
X170503540Y-94297650D01*
X170426190Y-96852990D02*
X170503540Y-96837650D01*
X170427340Y-48191850D02*
X170496040Y-48153190D01*
X170427340Y-50731850D02*
X170496040Y-50693190D01*
X170486040Y-47754010D02*
X170415500Y-47718850D01*
X170486040Y-50294010D02*
X170415500Y-50258850D01*
X170491700Y-93824650D02*
X170413700Y-93813200D01*
X170491700Y-96364650D02*
X170413700Y-96353200D01*
X170496040Y-48153190D02*
X170549280Y-48095050D01*
X170496040Y-50693190D02*
X170549280Y-50635050D01*
X170503540Y-94297650D02*
X170572240Y-94258990D01*
X170503540Y-96837650D02*
X170572240Y-96798990D01*
X170542140Y-47809400D02*
X170486040Y-47754010D01*
X170542140Y-50349400D02*
X170486040Y-50294010D01*
X170549280Y-48095050D02*
X170581790Y-48023220D01*
X170549280Y-50635050D02*
X170581790Y-50563220D01*
X170562240Y-93859810D02*
X170491700Y-93824650D01*
X170562240Y-96399810D02*
X170491700Y-96364650D01*
X170572240Y-94258990D02*
X170625480Y-94200850D01*
X170572240Y-96798990D02*
X170625480Y-96740850D01*
X170578190Y-47879510D02*
X170542140Y-47809400D01*
X170578190Y-50419510D02*
X170542140Y-50349400D01*
X170581790Y-48023220D02*
X170590630Y-47957360D01*
X170581790Y-50563220D02*
X170590630Y-50497360D01*
X170590630Y-47957360D02*
X170578190Y-47879510D01*
X170590630Y-50497360D02*
X170578190Y-50419510D01*
X170618340Y-93915200D02*
X170562240Y-93859810D01*
X170618340Y-96455200D02*
X170562240Y-96399810D01*
X170625480Y-94200850D02*
X170657990Y-94129020D01*
X170625480Y-96740850D02*
X170657990Y-96669020D01*
X170654390Y-93985310D02*
X170618340Y-93915200D01*
X170654390Y-96525310D02*
X170618340Y-96455200D01*
X170657990Y-94129020D02*
X170666830Y-94063160D01*
X170657990Y-96669020D02*
X170666830Y-96603160D01*
X170666830Y-94063160D02*
X170654390Y-93985310D01*
X170666830Y-96603160D02*
X170654390Y-96525310D01*
X172630710Y-47963630D02*
X172645060Y-48041150D01*
X172630710Y-50503630D02*
X172645060Y-50581150D01*
X172641170Y-47885500D02*
X172630710Y-47963630D01*
X172641170Y-50425500D02*
X172630710Y-50503630D01*
X172645060Y-48041150D02*
X172682880Y-48110320D01*
X172645060Y-50581150D02*
X172682880Y-50650320D01*
X172675460Y-47814510D02*
X172641170Y-47885500D01*
X172675460Y-50354510D02*
X172641170Y-50425500D01*
X172682880Y-48110320D02*
X172740340Y-48164290D01*
X172682880Y-50650320D02*
X172740340Y-50704290D01*
X172706910Y-94069430D02*
X172721260Y-94146950D01*
X172706910Y-96609430D02*
X172721260Y-96686950D01*
X172717370Y-93991300D02*
X172706910Y-94069430D01*
X172717370Y-96531300D02*
X172706910Y-96609430D01*
X172721260Y-94146950D02*
X172759080Y-94216120D01*
X172721260Y-96686950D02*
X172759080Y-96756120D01*
X172730150Y-47757710D02*
X172675460Y-47814510D01*
X172730150Y-50297710D02*
X172675460Y-50354510D01*
X172740340Y-48164290D02*
X172811740Y-48197690D01*
X172740340Y-50704290D02*
X172811740Y-50737690D01*
X172751660Y-93920310D02*
X172717370Y-93991300D01*
X172751660Y-96460310D02*
X172717370Y-96531300D01*
X172759080Y-94216120D02*
X172816540Y-94270090D01*
X172759080Y-96756120D02*
X172816540Y-96810090D01*
X172799800Y-47720780D02*
X172730150Y-47757710D01*
X172799800Y-50260780D02*
X172730150Y-50297710D01*
X172806350Y-93863520D02*
X172751660Y-93920310D01*
X172806350Y-96403520D02*
X172751660Y-96460310D01*
X172811740Y-48197690D02*
X172889990Y-48207190D01*
X172811740Y-50737690D02*
X172889990Y-50747190D01*
X172816540Y-94270090D02*
X172887940Y-94303490D01*
X172816540Y-96810090D02*
X172887940Y-96843490D01*
X172876000Y-93826580D02*
X172806350Y-93863520D01*
X172876000Y-96366580D02*
X172806350Y-96403520D01*
X172877500Y-47707400D02*
X172799800Y-47720780D01*
X172877500Y-50247400D02*
X172799800Y-50260780D01*
X172887940Y-94303490D02*
X172966190Y-94312990D01*
X172887940Y-96843490D02*
X172966190Y-96852990D01*
X172889990Y-48207190D02*
X172967340Y-48191850D01*
X172889990Y-50747190D02*
X172967340Y-50731850D01*
X172953700Y-93813200D02*
X172876000Y-93826580D01*
X172953700Y-96353200D02*
X172876000Y-96366580D01*
X172955500Y-47718850D02*
X172877500Y-47707400D01*
X172955500Y-50258850D02*
X172877500Y-50247400D01*
X172966190Y-94312990D02*
X173043540Y-94297650D01*
X172966190Y-96852990D02*
X173043540Y-96837650D01*
X172967340Y-48191850D02*
X173036040Y-48153190D01*
X172967340Y-50731850D02*
X173036040Y-50693190D01*
X173026040Y-47754010D02*
X172955500Y-47718850D01*
X173026040Y-50294010D02*
X172955500Y-50258850D01*
X173031700Y-93824650D02*
X172953700Y-93813200D01*
X173031700Y-96364650D02*
X172953700Y-96353200D01*
X173036040Y-48153190D02*
X173089280Y-48095050D01*
X173036040Y-50693190D02*
X173089280Y-50635050D01*
X173043540Y-94297650D02*
X173112240Y-94258990D01*
X173043540Y-96837650D02*
X173112240Y-96798990D01*
X173082140Y-47809400D02*
X173026040Y-47754010D01*
X173082140Y-50349400D02*
X173026040Y-50294010D01*
X173089280Y-48095050D02*
X173121790Y-48023220D01*
X173089280Y-50635050D02*
X173121790Y-50563220D01*
X173102240Y-93859810D02*
X173031700Y-93824650D01*
X173102240Y-96399810D02*
X173031700Y-96364650D01*
X173112240Y-94258990D02*
X173165480Y-94200850D01*
X173112240Y-96798990D02*
X173165480Y-96740850D01*
X173118190Y-47879510D02*
X173082140Y-47809400D01*
X173118190Y-50419510D02*
X173082140Y-50349400D01*
X173121790Y-48023220D02*
X173130630Y-47957360D01*
X173121790Y-50563220D02*
X173130630Y-50497360D01*
X173130630Y-47957360D02*
X173118190Y-47879510D01*
X173130630Y-50497360D02*
X173118190Y-50419510D01*
X173158340Y-93915200D02*
X173102240Y-93859810D01*
X173158340Y-96455200D02*
X173102240Y-96399810D01*
X173165480Y-94200850D02*
X173197990Y-94129020D01*
X173165480Y-96740850D02*
X173197990Y-96669020D01*
X173194390Y-93985310D02*
X173158340Y-93915200D01*
X173194390Y-96525310D02*
X173158340Y-96455200D01*
X173197990Y-94129020D02*
X173206830Y-94063160D01*
X173197990Y-96669020D02*
X173206830Y-96603160D01*
X173206830Y-94063160D02*
X173194390Y-93985310D01*
X173206830Y-96603160D02*
X173194390Y-96525310D01*
X175170710Y-47963630D02*
X175185060Y-48041150D01*
X175170710Y-50503630D02*
X175185060Y-50581150D01*
X175181170Y-47885500D02*
X175170710Y-47963630D01*
X175181170Y-50425500D02*
X175170710Y-50503630D01*
X175185060Y-48041150D02*
X175222880Y-48110320D01*
X175185060Y-50581150D02*
X175222880Y-50650320D01*
X175215460Y-47814510D02*
X175181170Y-47885500D01*
X175215460Y-50354510D02*
X175181170Y-50425500D01*
X175222880Y-48110320D02*
X175280340Y-48164290D01*
X175222880Y-50650320D02*
X175280340Y-50704290D01*
X175246910Y-94069430D02*
X175261260Y-94146950D01*
X175246910Y-96609430D02*
X175261260Y-96686950D01*
X175257370Y-93991300D02*
X175246910Y-94069430D01*
X175257370Y-96531300D02*
X175246910Y-96609430D01*
X175261260Y-94146950D02*
X175299080Y-94216120D01*
X175261260Y-96686950D02*
X175299080Y-96756120D01*
X175270150Y-47757710D02*
X175215460Y-47814510D01*
X175270150Y-50297710D02*
X175215460Y-50354510D01*
X175280340Y-48164290D02*
X175351740Y-48197690D01*
X175280340Y-50704290D02*
X175351740Y-50737690D01*
X175291660Y-93920310D02*
X175257370Y-93991300D01*
X175291660Y-96460310D02*
X175257370Y-96531300D01*
X175299080Y-94216120D02*
X175356540Y-94270090D01*
X175299080Y-96756120D02*
X175356540Y-96810090D01*
X175339800Y-47720780D02*
X175270150Y-47757710D01*
X175339800Y-50260780D02*
X175270150Y-50297710D01*
X175346350Y-93863520D02*
X175291660Y-93920310D01*
X175346350Y-96403520D02*
X175291660Y-96460310D01*
X175351740Y-48197690D02*
X175429990Y-48207190D01*
X175351740Y-50737690D02*
X175429990Y-50747190D01*
X175356540Y-94270090D02*
X175427940Y-94303490D01*
X175356540Y-96810090D02*
X175427940Y-96843490D01*
X175416000Y-93826580D02*
X175346350Y-93863520D01*
X175416000Y-96366580D02*
X175346350Y-96403520D01*
X175417500Y-47707400D02*
X175339800Y-47720780D01*
X175417500Y-50247400D02*
X175339800Y-50260780D01*
X175427940Y-94303490D02*
X175506190Y-94312990D01*
X175427940Y-96843490D02*
X175506190Y-96852990D01*
X175429990Y-48207190D02*
X175507340Y-48191850D01*
X175429990Y-50747190D02*
X175507340Y-50731850D01*
X175493700Y-93813200D02*
X175416000Y-93826580D01*
X175493700Y-96353200D02*
X175416000Y-96366580D01*
X175495500Y-47718850D02*
X175417500Y-47707400D01*
X175495500Y-50258850D02*
X175417500Y-50247400D01*
X175506190Y-94312990D02*
X175583540Y-94297650D01*
X175506190Y-96852990D02*
X175583540Y-96837650D01*
X175507340Y-48191850D02*
X175576040Y-48153190D01*
X175507340Y-50731850D02*
X175576040Y-50693190D01*
X175566040Y-47754010D02*
X175495500Y-47718850D01*
X175566040Y-50294010D02*
X175495500Y-50258850D01*
X175571700Y-93824650D02*
X175493700Y-93813200D01*
X175571700Y-96364650D02*
X175493700Y-96353200D01*
X175576040Y-48153190D02*
X175629280Y-48095050D01*
X175576040Y-50693190D02*
X175629280Y-50635050D01*
X175583540Y-94297650D02*
X175652240Y-94258990D01*
X175583540Y-96837650D02*
X175652240Y-96798990D01*
X175622140Y-47809400D02*
X175566040Y-47754010D01*
X175622140Y-50349400D02*
X175566040Y-50294010D01*
X175629280Y-48095050D02*
X175661790Y-48023220D01*
X175629280Y-50635050D02*
X175661790Y-50563220D01*
X175642240Y-93859810D02*
X175571700Y-93824650D01*
X175642240Y-96399810D02*
X175571700Y-96364650D01*
X175652240Y-94258990D02*
X175705480Y-94200850D01*
X175652240Y-96798990D02*
X175705480Y-96740850D01*
X175658190Y-47879510D02*
X175622140Y-47809400D01*
X175658190Y-50419510D02*
X175622140Y-50349400D01*
X175661790Y-48023220D02*
X175670630Y-47957360D01*
X175661790Y-50563220D02*
X175670630Y-50497360D01*
X175670630Y-47957360D02*
X175658190Y-47879510D01*
X175670630Y-50497360D02*
X175658190Y-50419510D01*
X175698340Y-93915200D02*
X175642240Y-93859810D01*
X175698340Y-96455200D02*
X175642240Y-96399810D01*
X175705480Y-94200850D02*
X175737990Y-94129020D01*
X175705480Y-96740850D02*
X175737990Y-96669020D01*
X175734390Y-93985310D02*
X175698340Y-93915200D01*
X175734390Y-96525310D02*
X175698340Y-96455200D01*
X175737990Y-94129020D02*
X175746830Y-94063160D01*
X175737990Y-96669020D02*
X175746830Y-96603160D01*
X175746830Y-94063160D02*
X175734390Y-93985310D01*
X175746830Y-96603160D02*
X175734390Y-96525310D01*
X177710710Y-47963630D02*
X177725060Y-48041150D01*
X177710710Y-50503630D02*
X177725060Y-50581150D01*
X177721170Y-47885500D02*
X177710710Y-47963630D01*
X177721170Y-50425500D02*
X177710710Y-50503630D01*
X177725060Y-48041150D02*
X177762880Y-48110320D01*
X177725060Y-50581150D02*
X177762880Y-50650320D01*
X177755460Y-47814510D02*
X177721170Y-47885500D01*
X177755460Y-50354510D02*
X177721170Y-50425500D01*
X177762880Y-48110320D02*
X177820340Y-48164290D01*
X177762880Y-50650320D02*
X177820340Y-50704290D01*
X177786910Y-94069430D02*
X177801260Y-94146950D01*
X177786910Y-96609430D02*
X177801260Y-96686950D01*
X177797370Y-93991300D02*
X177786910Y-94069430D01*
X177797370Y-96531300D02*
X177786910Y-96609430D01*
X177801260Y-94146950D02*
X177839080Y-94216120D01*
X177801260Y-96686950D02*
X177839080Y-96756120D01*
X177810150Y-47757710D02*
X177755460Y-47814510D01*
X177810150Y-50297710D02*
X177755460Y-50354510D01*
X177820340Y-48164290D02*
X177891740Y-48197690D01*
X177820340Y-50704290D02*
X177891740Y-50737690D01*
X177831660Y-93920310D02*
X177797370Y-93991300D01*
X177831660Y-96460310D02*
X177797370Y-96531300D01*
X177839080Y-94216120D02*
X177896540Y-94270090D01*
X177839080Y-96756120D02*
X177896540Y-96810090D01*
X177879800Y-47720780D02*
X177810150Y-47757710D01*
X177879800Y-50260780D02*
X177810150Y-50297710D01*
X177886350Y-93863520D02*
X177831660Y-93920310D01*
X177886350Y-96403520D02*
X177831660Y-96460310D01*
X177891740Y-48197690D02*
X177969990Y-48207190D01*
X177891740Y-50737690D02*
X177969990Y-50747190D01*
X177896540Y-94270090D02*
X177967940Y-94303490D01*
X177896540Y-96810090D02*
X177967940Y-96843490D01*
X177956000Y-93826580D02*
X177886350Y-93863520D01*
X177956000Y-96366580D02*
X177886350Y-96403520D01*
X177957500Y-47707400D02*
X177879800Y-47720780D01*
X177957500Y-50247400D02*
X177879800Y-50260780D01*
X177967940Y-94303490D02*
X178046190Y-94312990D01*
X177967940Y-96843490D02*
X178046190Y-96852990D01*
X177969990Y-48207190D02*
X178047340Y-48191850D01*
X177969990Y-50747190D02*
X178047340Y-50731850D01*
X178033700Y-93813200D02*
X177956000Y-93826580D01*
X178033700Y-96353200D02*
X177956000Y-96366580D01*
X178035500Y-47718850D02*
X177957500Y-47707400D01*
X178035500Y-50258850D02*
X177957500Y-50247400D01*
X178046190Y-94312990D02*
X178123540Y-94297650D01*
X178046190Y-96852990D02*
X178123540Y-96837650D01*
X178047340Y-48191850D02*
X178116040Y-48153190D01*
X178047340Y-50731850D02*
X178116040Y-50693190D01*
X178106040Y-47754010D02*
X178035500Y-47718850D01*
X178106040Y-50294010D02*
X178035500Y-50258850D01*
X178111700Y-93824650D02*
X178033700Y-93813200D01*
X178111700Y-96364650D02*
X178033700Y-96353200D01*
X178116040Y-48153190D02*
X178169280Y-48095050D01*
X178116040Y-50693190D02*
X178169280Y-50635050D01*
X178123540Y-94297650D02*
X178192240Y-94258990D01*
X178123540Y-96837650D02*
X178192240Y-96798990D01*
X178162140Y-47809400D02*
X178106040Y-47754010D01*
X178162140Y-50349400D02*
X178106040Y-50294010D01*
X178169280Y-48095050D02*
X178201790Y-48023220D01*
X178169280Y-50635050D02*
X178201790Y-50563220D01*
X178182240Y-93859810D02*
X178111700Y-93824650D01*
X178182240Y-96399810D02*
X178111700Y-96364650D01*
X178192240Y-94258990D02*
X178245480Y-94200850D01*
X178192240Y-96798990D02*
X178245480Y-96740850D01*
X178198190Y-47879510D02*
X178162140Y-47809400D01*
X178198190Y-50419510D02*
X178162140Y-50349400D01*
X178201790Y-48023220D02*
X178210630Y-47957360D01*
X178201790Y-50563220D02*
X178210630Y-50497360D01*
X178210630Y-47957360D02*
X178198190Y-47879510D01*
X178210630Y-50497360D02*
X178198190Y-50419510D01*
X178238340Y-93915200D02*
X178182240Y-93859810D01*
X178238340Y-96455200D02*
X178182240Y-96399810D01*
X178245480Y-94200850D02*
X178277990Y-94129020D01*
X178245480Y-96740850D02*
X178277990Y-96669020D01*
X178274390Y-93985310D02*
X178238340Y-93915200D01*
X178274390Y-96525310D02*
X178238340Y-96455200D01*
X178277990Y-94129020D02*
X178286830Y-94063160D01*
X178277990Y-96669020D02*
X178286830Y-96603160D01*
X178286830Y-94063160D02*
X178274390Y-93985310D01*
X178286830Y-96603160D02*
X178274390Y-96525310D01*
X180250710Y-47963630D02*
X180265060Y-48041150D01*
X180250710Y-50503630D02*
X180265060Y-50581150D01*
X180261170Y-47885500D02*
X180250710Y-47963630D01*
X180261170Y-50425500D02*
X180250710Y-50503630D01*
X180265060Y-48041150D02*
X180302880Y-48110320D01*
X180265060Y-50581150D02*
X180302880Y-50650320D01*
X180295460Y-47814510D02*
X180261170Y-47885500D01*
X180295460Y-50354510D02*
X180261170Y-50425500D01*
X180302880Y-48110320D02*
X180360340Y-48164290D01*
X180302880Y-50650320D02*
X180360340Y-50704290D01*
X180326910Y-94069430D02*
X180341260Y-94146950D01*
X180326910Y-96609430D02*
X180341260Y-96686950D01*
X180337370Y-93991300D02*
X180326910Y-94069430D01*
X180337370Y-96531300D02*
X180326910Y-96609430D01*
X180341260Y-94146950D02*
X180379080Y-94216120D01*
X180341260Y-96686950D02*
X180379080Y-96756120D01*
X180350150Y-47757710D02*
X180295460Y-47814510D01*
X180350150Y-50297710D02*
X180295460Y-50354510D01*
X180360340Y-48164290D02*
X180431740Y-48197690D01*
X180360340Y-50704290D02*
X180431740Y-50737690D01*
X180371660Y-93920310D02*
X180337370Y-93991300D01*
X180371660Y-96460310D02*
X180337370Y-96531300D01*
X180379080Y-94216120D02*
X180436540Y-94270090D01*
X180379080Y-96756120D02*
X180436540Y-96810090D01*
X180419800Y-47720780D02*
X180350150Y-47757710D01*
X180419800Y-50260780D02*
X180350150Y-50297710D01*
X180426350Y-93863520D02*
X180371660Y-93920310D01*
X180426350Y-96403520D02*
X180371660Y-96460310D01*
X180431740Y-48197690D02*
X180509990Y-48207190D01*
X180431740Y-50737690D02*
X180509990Y-50747190D01*
X180436540Y-94270090D02*
X180507940Y-94303490D01*
X180436540Y-96810090D02*
X180507940Y-96843490D01*
X180496000Y-93826580D02*
X180426350Y-93863520D01*
X180496000Y-96366580D02*
X180426350Y-96403520D01*
X180497500Y-47707400D02*
X180419800Y-47720780D01*
X180497500Y-50247400D02*
X180419800Y-50260780D01*
X180507940Y-94303490D02*
X180586190Y-94312990D01*
X180507940Y-96843490D02*
X180586190Y-96852990D01*
X180509990Y-48207190D02*
X180587340Y-48191850D01*
X180509990Y-50747190D02*
X180587340Y-50731850D01*
X180573700Y-93813200D02*
X180496000Y-93826580D01*
X180573700Y-96353200D02*
X180496000Y-96366580D01*
X180575500Y-47718850D02*
X180497500Y-47707400D01*
X180575500Y-50258850D02*
X180497500Y-50247400D01*
X180586190Y-94312990D02*
X180663540Y-94297650D01*
X180586190Y-96852990D02*
X180663540Y-96837650D01*
X180587340Y-48191850D02*
X180656040Y-48153190D01*
X180587340Y-50731850D02*
X180656040Y-50693190D01*
X180646040Y-47754010D02*
X180575500Y-47718850D01*
X180646040Y-50294010D02*
X180575500Y-50258850D01*
X180651700Y-93824650D02*
X180573700Y-93813200D01*
X180651700Y-96364650D02*
X180573700Y-96353200D01*
X180656040Y-48153190D02*
X180709280Y-48095050D01*
X180656040Y-50693190D02*
X180709280Y-50635050D01*
X180663540Y-94297650D02*
X180732240Y-94258990D01*
X180663540Y-96837650D02*
X180732240Y-96798990D01*
X180702140Y-47809400D02*
X180646040Y-47754010D01*
X180702140Y-50349400D02*
X180646040Y-50294010D01*
X180709280Y-48095050D02*
X180741790Y-48023220D01*
X180709280Y-50635050D02*
X180741790Y-50563220D01*
X180722240Y-93859810D02*
X180651700Y-93824650D01*
X180722240Y-96399810D02*
X180651700Y-96364650D01*
X180732240Y-94258990D02*
X180785480Y-94200850D01*
X180732240Y-96798990D02*
X180785480Y-96740850D01*
X180738190Y-47879510D02*
X180702140Y-47809400D01*
X180738190Y-50419510D02*
X180702140Y-50349400D01*
X180741790Y-48023220D02*
X180750630Y-47957360D01*
X180741790Y-50563220D02*
X180750630Y-50497360D01*
X180750630Y-47957360D02*
X180738190Y-47879510D01*
X180750630Y-50497360D02*
X180738190Y-50419510D01*
X180778340Y-93915200D02*
X180722240Y-93859810D01*
X180778340Y-96455200D02*
X180722240Y-96399810D01*
X180785480Y-94200850D02*
X180817990Y-94129020D01*
X180785480Y-96740850D02*
X180817990Y-96669020D01*
X180814390Y-93985310D02*
X180778340Y-93915200D01*
X180814390Y-96525310D02*
X180778340Y-96455200D01*
X180817990Y-94129020D02*
X180826830Y-94063160D01*
X180817990Y-96669020D02*
X180826830Y-96603160D01*
X180826830Y-94063160D02*
X180814390Y-93985310D01*
X180826830Y-96603160D02*
X180814390Y-96525310D01*
D12*
%TO.C,C3*%
X198140000Y-46110000D03*
X198140000Y-47070000D03*
%TD*%
D13*
%TO.C,R3*%
X184920000Y-93080000D03*
X183900000Y-93080000D03*
%TD*%
D14*
%TO.C,C1*%
X191960000Y-83930000D03*
X191960000Y-82970000D03*
%TD*%
D13*
%TO.C,R4*%
X184840000Y-94440000D03*
X183820000Y-94440000D03*
%TD*%
D15*
%TO.C,C8*%
X186570000Y-85085000D03*
X186570000Y-86635000D03*
%TD*%
D16*
%TO.C,R1*%
X199160000Y-50150000D03*
X199160000Y-51170000D03*
%TD*%
D13*
%TO.C,R6*%
X184850000Y-97020000D03*
X183830000Y-97020000D03*
%TD*%
D12*
%TO.C,C4*%
X199830000Y-46150000D03*
X199830000Y-47110000D03*
%TD*%
D17*
%TO.C,SLOT1*%
X199350000Y-55800000D03*
X199050000Y-64000000D03*
X198750000Y-55800000D03*
X198450000Y-64000000D03*
X198150000Y-55800000D03*
X197850000Y-64000000D03*
X197550000Y-55800000D03*
X197250000Y-64000000D03*
X196950000Y-55800000D03*
X196650000Y-64000000D03*
X196350000Y-55800000D03*
X196050000Y-64000000D03*
X195750000Y-55800000D03*
X195450000Y-64000000D03*
X195150000Y-55800000D03*
X194850000Y-64000000D03*
X194550000Y-55800000D03*
X194250000Y-64000000D03*
X193950000Y-55800000D03*
X193650000Y-64000000D03*
X193350000Y-55800000D03*
X193050000Y-64000000D03*
X192750000Y-55800000D03*
X192450000Y-64000000D03*
X192150000Y-55800000D03*
X191850000Y-64000000D03*
X191550000Y-55800000D03*
X191250000Y-64000000D03*
X190950000Y-55800000D03*
X190650000Y-64000000D03*
X190350000Y-55800000D03*
X190050000Y-64000000D03*
X189750000Y-55800000D03*
X189450000Y-64000000D03*
X189150000Y-55800000D03*
X188850000Y-64000000D03*
X188550000Y-55800000D03*
X188250000Y-64000000D03*
X187950000Y-55800000D03*
X187650000Y-64000000D03*
X187350000Y-55800000D03*
X187050000Y-64000000D03*
X186750000Y-55800000D03*
X186450000Y-64000000D03*
X186150000Y-55800000D03*
X185850000Y-64000000D03*
X185550000Y-55800000D03*
X185250000Y-64000000D03*
X184950000Y-55800000D03*
X184650000Y-64000000D03*
X184350000Y-55800000D03*
X184050000Y-64000000D03*
X183750000Y-55800000D03*
X183450000Y-64000000D03*
X183150000Y-55800000D03*
X182850000Y-64000000D03*
X182550000Y-55800000D03*
X182250000Y-64000000D03*
X181950000Y-55800000D03*
X181650000Y-64000000D03*
X181350000Y-55800000D03*
X181050000Y-64000000D03*
X180750000Y-55800000D03*
X180450000Y-64000000D03*
X180150000Y-55800000D03*
X179850000Y-64000000D03*
X179550000Y-55800000D03*
X179250000Y-64000000D03*
X178950000Y-55800000D03*
X178650000Y-64000000D03*
X178350000Y-55800000D03*
X178050000Y-64000000D03*
X175350000Y-55800000D03*
X175050000Y-64000000D03*
X174750000Y-55800000D03*
X174450000Y-64000000D03*
X174150000Y-55800000D03*
X173850000Y-64000000D03*
X173550000Y-55800000D03*
X173250000Y-64000000D03*
X172950000Y-55800000D03*
X172650000Y-64000000D03*
X172350000Y-55800000D03*
X172050000Y-64000000D03*
X171750000Y-55800000D03*
X171450000Y-64000000D03*
X171150000Y-55800000D03*
X170850000Y-64000000D03*
X170550000Y-55800000D03*
X170250000Y-64000000D03*
X169950000Y-55800000D03*
X169650000Y-64000000D03*
X169350000Y-55800000D03*
X169050000Y-64000000D03*
X168750000Y-55800000D03*
X168450000Y-64000000D03*
X168150000Y-55800000D03*
X167850000Y-64000000D03*
X167550000Y-55800000D03*
X167250000Y-64000000D03*
X166950000Y-55800000D03*
X166650000Y-64000000D03*
X166350000Y-55800000D03*
X166050000Y-64000000D03*
X165750000Y-55800000D03*
X165450000Y-64000000D03*
X165150000Y-55800000D03*
X164850000Y-64000000D03*
X164550000Y-55800000D03*
X164250000Y-64000000D03*
X163950000Y-55800000D03*
X163650000Y-64000000D03*
X163350000Y-55800000D03*
X163050000Y-64000000D03*
X162750000Y-55800000D03*
X162450000Y-64000000D03*
X162150000Y-55800000D03*
X161850000Y-64000000D03*
X161550000Y-55800000D03*
X161250000Y-64000000D03*
X160950000Y-55800000D03*
X160650000Y-64000000D03*
X160350000Y-55800000D03*
X160050000Y-64000000D03*
X159750000Y-55800000D03*
X159450000Y-64000000D03*
X159150000Y-55800000D03*
X158850000Y-64000000D03*
X158550000Y-55800000D03*
X158250000Y-64000000D03*
X157950000Y-55800000D03*
X157650000Y-64000000D03*
X157350000Y-55800000D03*
X157050000Y-64000000D03*
X156750000Y-55800000D03*
X156450000Y-64000000D03*
X156150000Y-55800000D03*
X155850000Y-64000000D03*
X155550000Y-55800000D03*
X155250000Y-64000000D03*
X154950000Y-55800000D03*
X154650000Y-64000000D03*
X154350000Y-55800000D03*
X154050000Y-64000000D03*
X153750000Y-55800000D03*
X153450000Y-64000000D03*
X153150000Y-55800000D03*
X152850000Y-64000000D03*
X152550000Y-55800000D03*
X152250000Y-64000000D03*
X151950000Y-55800000D03*
X151650000Y-64000000D03*
X151350000Y-55800000D03*
X151050000Y-64000000D03*
X150750000Y-55800000D03*
X150450000Y-64000000D03*
X150150000Y-55800000D03*
X149850000Y-64000000D03*
X149550000Y-55800000D03*
X149250000Y-64000000D03*
X148950000Y-55800000D03*
X148650000Y-64000000D03*
X148350000Y-55800000D03*
X148050000Y-64000000D03*
X147750000Y-55800000D03*
X147450000Y-64000000D03*
X147150000Y-55800000D03*
X146850000Y-64000000D03*
X146550000Y-55800000D03*
X146250000Y-64000000D03*
X145950000Y-55800000D03*
X145650000Y-64000000D03*
X145350000Y-55800000D03*
X145050000Y-64000000D03*
X144750000Y-55800000D03*
X144450000Y-64000000D03*
X144150000Y-55800000D03*
X143850000Y-64000000D03*
X143550000Y-55800000D03*
X143250000Y-64000000D03*
X142950000Y-55800000D03*
X142650000Y-64000000D03*
X142350000Y-55800000D03*
X142050000Y-64000000D03*
X141750000Y-55800000D03*
X141450000Y-64000000D03*
X141150000Y-55800000D03*
X140850000Y-64000000D03*
X140550000Y-55800000D03*
X140250000Y-64000000D03*
X139950000Y-55800000D03*
X139650000Y-64000000D03*
X139350000Y-55800000D03*
X139050000Y-64000000D03*
X138750000Y-55800000D03*
X138450000Y-64000000D03*
X138150000Y-55800000D03*
X137850000Y-64000000D03*
X137550000Y-55800000D03*
X137250000Y-64000000D03*
X136950000Y-55800000D03*
X136650000Y-64000000D03*
X136350000Y-55800000D03*
X136050000Y-64000000D03*
D18*
X200500000Y-71900000D03*
X134900000Y-71900000D03*
%TD*%
D19*
%TO.C,SW1*%
X184780000Y-51140000D03*
X184780000Y-44840000D03*
X188580000Y-51140000D03*
X188580000Y-44840000D03*
%TD*%
D13*
%TO.C,R5*%
X184840000Y-95730000D03*
X183820000Y-95730000D03*
%TD*%
D15*
%TO.C,C2*%
X191950000Y-85175000D03*
X191950000Y-86725000D03*
%TD*%
D16*
%TO.C,R2*%
X200920000Y-50180000D03*
X200920000Y-51200000D03*
%TD*%
D19*
%TO.C,SW2*%
X191760000Y-50840000D03*
X191760000Y-44540000D03*
X195560000Y-50840000D03*
X195560000Y-44540000D03*
%TD*%
D14*
%TO.C,C9*%
X186570000Y-83810000D03*
X186570000Y-82850000D03*
%TD*%
D20*
%TO.C,U1*%
X188280000Y-84987500D03*
X190180000Y-84987500D03*
X189230000Y-82712500D03*
%TD*%
M02*
