%TF.GenerationSoftware,KiCad,Pcbnew,10.0.5*%
%TF.CreationDate,2026-08-23T16:38:26+05:30*%
%TF.ProjectId,primercarrier,7072696d-6572-4636-9172-726965722e6b,rev?*%
%TF.SameCoordinates,Original*%
%TF.FileFunction,Soldermask,Bot*%
%TF.FilePolarity,Negative*%
%FSLAX46Y46*%
G04 Gerber Fmt 4.6, Leading zero omitted, Abs format (unit mm)*
G04 Created by KiCad (PCBNEW 10.0.5) date 2026-08-23 16:38:26*
%MOMM*%
%LPD*%
G01*
G04 APERTURE LIST*
G04 Aperture macros list*
%AMRoundRect*
0 Rectangle with rounded corners*
0 $1 Rounding radius*
0 $2 $3 $4 $5 $6 $7 $8 $9 X,Y pos of 4 corners*
0 Add a 4 corners polygon primitive as box body*
4,1,4,$2,$3,$4,$5,$6,$7,$8,$9,$2,$3,0*
0 Add four circle primitives for the rounded corners*
1,1,$1+$1,$2,$3*
1,1,$1+$1,$4,$5*
1,1,$1+$1,$6,$7*
1,1,$1+$1,$8,$9*
0 Add four rect primitives between the rounded corners*
20,1,$1+$1,$2,$3,$4,$5,0*
20,1,$1+$1,$4,$5,$6,$7,0*
20,1,$1+$1,$6,$7,$8,$9,0*
20,1,$1+$1,$8,$9,$2,$3,0*%
G04 Aperture macros list end*
%ADD10C,0.000000*%
%ADD11C,0.650240*%
%ADD12C,0.626110*%
%ADD13C,0.675640*%
%ADD14C,0.876300*%
%ADD15C,0.924560*%
%ADD16C,1.600000*%
%ADD17RoundRect,0.400000X0.400000X-0.400000X0.400000X0.400000X-0.400000X0.400000X-0.400000X-0.400000X0*%
%ADD18R,1.700000X1.700000*%
%ADD19C,1.700000*%
%ADD20C,1.100000*%
G04 APERTURE END LIST*
D10*
G36*
X157657100Y-49588910D02*
G01*
X157668580Y-49589130D01*
X157680050Y-49589490D01*
X157691520Y-49589990D01*
X157702980Y-49590640D01*
X157714430Y-49591440D01*
X157725870Y-49592370D01*
X157737300Y-49593450D01*
X157748720Y-49594680D01*
X157760110Y-49596040D01*
X157771490Y-49597550D01*
X157782850Y-49599210D01*
X157794190Y-49601000D01*
X157805510Y-49602940D01*
X157816800Y-49605020D01*
X157828060Y-49607240D01*
X157839290Y-49609610D01*
X157850500Y-49612110D01*
X157861670Y-49614750D01*
X157872800Y-49617540D01*
X157883900Y-49620460D01*
X157894970Y-49623530D01*
X157905990Y-49626730D01*
X157916970Y-49630070D01*
X157927910Y-49633550D01*
X157938810Y-49637170D01*
X157949660Y-49640920D01*
X157960460Y-49644810D01*
X157971210Y-49648830D01*
X157981910Y-49652990D01*
X157992560Y-49657280D01*
X158003150Y-49661710D01*
X158013680Y-49666270D01*
X158024160Y-49670960D01*
X158034580Y-49675780D01*
X158044930Y-49680740D01*
X158055230Y-49685820D01*
X158065460Y-49691030D01*
X158075620Y-49696370D01*
X158085710Y-49701840D01*
X158095740Y-49707430D01*
X158105690Y-49713150D01*
X158115570Y-49718990D01*
X158125380Y-49724960D01*
X158135110Y-49731050D01*
X158144760Y-49737260D01*
X158154340Y-49743590D01*
X158163830Y-49750050D01*
X158173240Y-49756620D01*
X158182570Y-49763310D01*
X158191820Y-49770110D01*
X158200980Y-49777030D01*
X158210050Y-49784070D01*
X158219030Y-49791220D01*
X158227920Y-49798480D01*
X158236720Y-49805850D01*
X158245420Y-49813340D01*
X158254040Y-49820930D01*
X158262550Y-49828630D01*
X158270970Y-49836430D01*
X158279290Y-49844340D01*
X158287500Y-49852360D01*
X158295620Y-49860480D01*
X158303640Y-49868690D01*
X158311550Y-49877010D01*
X158319350Y-49885430D01*
X158327050Y-49893940D01*
X158334640Y-49902560D01*
X158342130Y-49911260D01*
X158349500Y-49920060D01*
X158356760Y-49928950D01*
X158363910Y-49937930D01*
X158370950Y-49947000D01*
X158377870Y-49956160D01*
X158384670Y-49965410D01*
X158391360Y-49974740D01*
X158397930Y-49984150D01*
X158404390Y-49993640D01*
X158410720Y-50003220D01*
X158416930Y-50012870D01*
X158423020Y-50022600D01*
X158428990Y-50032410D01*
X158434830Y-50042290D01*
X158440550Y-50052240D01*
X158446140Y-50062270D01*
X158451610Y-50072360D01*
X158456950Y-50082520D01*
X158462160Y-50092750D01*
X158467240Y-50103050D01*
X158472200Y-50113400D01*
X158477020Y-50123820D01*
X158481710Y-50134300D01*
X158486270Y-50144830D01*
X158490700Y-50155420D01*
X158494990Y-50166070D01*
X158499150Y-50176770D01*
X158503170Y-50187520D01*
X158507060Y-50198320D01*
X158510810Y-50209170D01*
X158514430Y-50220070D01*
X158517910Y-50231010D01*
X158521250Y-50241990D01*
X158524450Y-50253010D01*
X158527520Y-50264080D01*
X158530440Y-50275180D01*
X158533230Y-50286310D01*
X158535870Y-50297480D01*
X158538370Y-50308690D01*
X158540740Y-50319920D01*
X158542960Y-50331180D01*
X158545040Y-50342470D01*
X158546980Y-50353790D01*
X158548770Y-50365130D01*
X158550430Y-50376490D01*
X158551940Y-50387870D01*
X158553300Y-50399260D01*
X158554530Y-50410680D01*
X158555610Y-50422110D01*
X158556540Y-50433550D01*
X158557340Y-50445000D01*
X158557990Y-50456460D01*
X158558490Y-50467930D01*
X158558850Y-50479400D01*
X158559070Y-50490880D01*
X158559140Y-50502360D01*
X158559130Y-50502360D01*
X158559050Y-50513880D01*
X158558840Y-50525400D01*
X158558470Y-50536910D01*
X158557960Y-50548420D01*
X158557310Y-50559920D01*
X158556510Y-50571410D01*
X158555570Y-50582890D01*
X158554480Y-50594360D01*
X158553250Y-50605810D01*
X158551870Y-50617250D01*
X158550350Y-50628670D01*
X158548690Y-50640070D01*
X158546880Y-50651450D01*
X158544930Y-50662800D01*
X158542830Y-50674130D01*
X158540600Y-50685430D01*
X158538220Y-50696700D01*
X158535690Y-50707940D01*
X158533030Y-50719140D01*
X158530230Y-50730320D01*
X158527280Y-50741450D01*
X158524200Y-50752550D01*
X158520970Y-50763610D01*
X158517610Y-50774630D01*
X158514110Y-50785600D01*
X158510460Y-50796530D01*
X158506690Y-50807410D01*
X158502770Y-50818250D01*
X158498720Y-50829030D01*
X158494530Y-50839760D01*
X158490210Y-50850440D01*
X158485750Y-50861060D01*
X158481160Y-50871630D01*
X158476440Y-50882140D01*
X158471590Y-50892580D01*
X158466600Y-50902970D01*
X158461480Y-50913290D01*
X158456240Y-50923540D01*
X158450860Y-50933730D01*
X158445360Y-50943850D01*
X158439730Y-50953900D01*
X158433970Y-50963880D01*
X158428090Y-50973780D01*
X158422080Y-50983610D01*
X158415950Y-50993370D01*
X158409700Y-51003040D01*
X158403320Y-51012640D01*
X158396830Y-51022150D01*
X158390210Y-51031580D01*
X158383480Y-51040930D01*
X158376630Y-51050190D01*
X158369660Y-51059360D01*
X158362580Y-51068450D01*
X158355390Y-51077450D01*
X158348080Y-51086350D01*
X158340660Y-51095160D01*
X158333130Y-51103880D01*
X158325490Y-51112500D01*
X158317740Y-51121030D01*
X158309880Y-51129450D01*
X158301920Y-51137780D01*
X158293860Y-51146000D01*
X158285690Y-51154130D01*
X158277420Y-51162150D01*
X158269050Y-51170060D01*
X158260580Y-51177870D01*
X158252010Y-51185570D01*
X158243350Y-51193160D01*
X158234590Y-51200640D01*
X158225740Y-51208020D01*
X158216790Y-51215270D01*
X158207760Y-51222420D01*
X158198630Y-51229450D01*
X158189420Y-51236370D01*
X158180120Y-51243170D01*
X158170740Y-51249850D01*
X158161270Y-51256410D01*
X158151720Y-51262850D01*
X158142090Y-51269170D01*
X158132380Y-51275370D01*
X158122600Y-51281450D01*
X158112730Y-51287400D01*
X158102800Y-51293230D01*
X158092790Y-51298930D01*
X158082710Y-51304510D01*
X158072560Y-51309960D01*
X158062340Y-51315270D01*
X158052060Y-51320460D01*
X158041710Y-51325520D01*
X158031290Y-51330450D01*
X158020820Y-51335250D01*
X158010290Y-51339920D01*
X157999700Y-51344450D01*
X157989050Y-51348850D01*
X157978350Y-51353110D01*
X157967600Y-51357240D01*
X157956790Y-51361230D01*
X157945930Y-51365080D01*
X157935030Y-51368800D01*
X157924080Y-51372380D01*
X157913090Y-51375830D01*
X157902050Y-51379130D01*
X157890980Y-51382290D01*
X157879860Y-51385320D01*
X157868710Y-51388200D01*
X157857520Y-51390940D01*
X157846300Y-51393540D01*
X157835040Y-51396000D01*
X157823760Y-51398320D01*
X157812450Y-51400500D01*
X157801110Y-51402530D01*
X157789750Y-51404420D01*
X157778360Y-51406160D01*
X157766950Y-51407760D01*
X157755520Y-51409220D01*
X157744080Y-51410540D01*
X157732620Y-51411710D01*
X157721150Y-51412730D01*
X157709660Y-51413610D01*
X157709660Y-51413620D01*
X157699000Y-51414310D01*
X157688330Y-51414870D01*
X157677660Y-51415310D01*
X157666980Y-51415620D01*
X157656300Y-51415810D01*
X157645620Y-51415870D01*
X157634050Y-51415800D01*
X157622480Y-51415580D01*
X157610910Y-51415210D01*
X157599350Y-51414700D01*
X157587800Y-51414040D01*
X157576250Y-51413230D01*
X157564720Y-51412280D01*
X157553200Y-51411180D01*
X157541700Y-51409940D01*
X157530210Y-51408550D01*
X157518740Y-51407020D01*
X157507290Y-51405340D01*
X157495860Y-51403510D01*
X157484460Y-51401540D01*
X157473080Y-51399430D01*
X157461730Y-51397170D01*
X157450410Y-51394770D01*
X157439120Y-51392220D01*
X157427870Y-51389540D01*
X157416650Y-51386710D01*
X157405460Y-51383740D01*
X157394320Y-51380620D01*
X157383210Y-51377370D01*
X157372150Y-51373980D01*
X157361130Y-51370440D01*
X157350160Y-51366770D01*
X157339230Y-51362960D01*
X157328350Y-51359010D01*
X157317530Y-51354920D01*
X157306750Y-51350690D01*
X157296030Y-51346330D01*
X157285370Y-51341840D01*
X157274770Y-51337210D01*
X157264220Y-51332440D01*
X157253740Y-51327540D01*
X157243320Y-51322510D01*
X157232960Y-51317350D01*
X157222670Y-51312060D01*
X157212450Y-51306640D01*
X157202290Y-51301080D01*
X157192210Y-51295400D01*
X157182200Y-51289600D01*
X157172270Y-51283660D01*
X157162410Y-51277610D01*
X157152620Y-51271420D01*
X157142920Y-51265120D01*
X157133300Y-51258690D01*
X157123760Y-51252140D01*
X157114300Y-51245460D01*
X157104930Y-51238670D01*
X157095650Y-51231770D01*
X157086460Y-51224740D01*
X157077350Y-51217600D01*
X157068330Y-51210340D01*
X157059410Y-51202980D01*
X157050580Y-51195490D01*
X157041850Y-51187900D01*
X157033220Y-51180200D01*
X157024680Y-51172380D01*
X157016240Y-51164470D01*
X157007910Y-51156440D01*
X156999670Y-51148310D01*
X156991540Y-51140070D01*
X156983510Y-51131740D01*
X156975600Y-51123300D01*
X156967780Y-51114760D01*
X156960080Y-51106130D01*
X156952490Y-51097400D01*
X156945000Y-51088570D01*
X156937640Y-51079650D01*
X156930380Y-51070630D01*
X156923240Y-51061520D01*
X156916210Y-51052330D01*
X156909310Y-51043050D01*
X156902520Y-51033680D01*
X156895840Y-51024220D01*
X156889290Y-51014680D01*
X156882860Y-51005060D01*
X156876560Y-50995360D01*
X156870370Y-50985570D01*
X156864320Y-50975710D01*
X156858380Y-50965780D01*
X156852580Y-50955770D01*
X156846900Y-50945690D01*
X156841340Y-50935530D01*
X156835920Y-50925310D01*
X156830630Y-50915020D01*
X156825470Y-50904660D01*
X156820440Y-50894240D01*
X156815540Y-50883760D01*
X156810770Y-50873210D01*
X156806140Y-50862610D01*
X156801650Y-50851950D01*
X156797290Y-50841230D01*
X156793060Y-50830450D01*
X156788970Y-50819630D01*
X156785020Y-50808750D01*
X156781210Y-50797820D01*
X156777540Y-50786850D01*
X156774000Y-50775830D01*
X156770610Y-50764770D01*
X156767360Y-50753660D01*
X156764240Y-50742520D01*
X156761270Y-50731330D01*
X156758440Y-50720110D01*
X156755760Y-50708860D01*
X156753210Y-50697570D01*
X156750810Y-50686250D01*
X156748550Y-50674900D01*
X156746440Y-50663520D01*
X156744470Y-50652120D01*
X156742640Y-50640690D01*
X156740960Y-50629240D01*
X156739430Y-50617770D01*
X156738040Y-50606280D01*
X156736800Y-50594780D01*
X156735700Y-50583260D01*
X156734750Y-50571730D01*
X156733940Y-50560180D01*
X156733280Y-50548630D01*
X156732770Y-50537070D01*
X156732400Y-50525500D01*
X156732180Y-50513930D01*
X156732110Y-50502360D01*
X156732120Y-50502360D01*
X156732190Y-50490840D01*
X156732410Y-50479320D01*
X156732780Y-50467810D01*
X156733280Y-50456300D01*
X156733940Y-50444800D01*
X156734740Y-50433310D01*
X156735680Y-50421830D01*
X156736770Y-50410360D01*
X156738000Y-50398910D01*
X156739380Y-50387470D01*
X156740900Y-50376050D01*
X156742560Y-50364650D01*
X156744370Y-50353280D01*
X156746320Y-50341920D01*
X156748420Y-50330600D01*
X156750650Y-50319300D01*
X156753030Y-50308030D01*
X156755550Y-50296790D01*
X156758220Y-50285580D01*
X156761020Y-50274410D01*
X156763970Y-50263270D01*
X156767050Y-50252170D01*
X156770280Y-50241110D01*
X156773640Y-50230090D01*
X156777140Y-50219120D01*
X156780780Y-50208190D01*
X156784560Y-50197310D01*
X156788480Y-50186480D01*
X156792530Y-50175690D01*
X156796710Y-50164960D01*
X156801040Y-50154280D01*
X156805490Y-50143660D01*
X156810080Y-50133090D01*
X156814810Y-50122590D01*
X156819660Y-50112140D01*
X156824650Y-50101760D01*
X156829760Y-50091440D01*
X156835010Y-50081180D01*
X156840390Y-50070990D01*
X156845890Y-50060870D01*
X156851520Y-50050820D01*
X156857280Y-50040850D01*
X156863160Y-50030940D01*
X156869170Y-50021110D01*
X156875300Y-50011360D01*
X156881550Y-50001690D01*
X156887920Y-49992090D01*
X156894420Y-49982580D01*
X156901030Y-49973150D01*
X156907770Y-49963800D01*
X156914620Y-49954540D01*
X156921580Y-49945360D01*
X156928660Y-49936280D01*
X156935860Y-49927280D01*
X156943170Y-49918380D01*
X156950590Y-49909560D01*
X156958120Y-49900850D01*
X156965760Y-49892230D01*
X156973500Y-49883700D01*
X156981360Y-49875280D01*
X156989320Y-49866950D01*
X156997380Y-49858720D01*
X157005550Y-49850600D01*
X157013820Y-49842580D01*
X157022190Y-49834670D01*
X157030660Y-49826860D01*
X157039230Y-49819160D01*
X157047890Y-49811560D01*
X157056650Y-49804080D01*
X157065500Y-49796710D01*
X157074440Y-49789450D01*
X157083480Y-49782310D01*
X157092600Y-49775270D01*
X157101820Y-49768360D01*
X157111120Y-49761560D01*
X157120500Y-49754880D01*
X157129970Y-49748320D01*
X157139520Y-49741870D01*
X157149150Y-49735550D01*
X157158860Y-49729350D01*
X157168640Y-49723280D01*
X157178500Y-49717320D01*
X157188440Y-49711500D01*
X157198450Y-49705790D01*
X157208530Y-49700220D01*
X157218680Y-49694770D01*
X157228900Y-49689450D01*
X157239180Y-49684260D01*
X157249530Y-49679200D01*
X157259940Y-49674270D01*
X157270410Y-49669470D01*
X157280950Y-49664810D01*
X157291540Y-49660280D01*
X157302180Y-49655880D01*
X157312890Y-49651620D01*
X157323640Y-49647490D01*
X157334440Y-49643500D01*
X157345300Y-49639640D01*
X157356200Y-49635920D01*
X157367150Y-49632340D01*
X157378140Y-49628900D01*
X157389180Y-49625590D01*
X157400260Y-49622430D01*
X157411370Y-49619410D01*
X157422520Y-49616520D01*
X157433710Y-49613780D01*
X157444930Y-49611180D01*
X157456190Y-49608720D01*
X157467470Y-49606400D01*
X157478780Y-49604230D01*
X157490120Y-49602190D01*
X157501490Y-49600300D01*
X157512870Y-49598560D01*
X157524280Y-49596960D01*
X157535710Y-49595500D01*
X157547150Y-49594180D01*
X157558610Y-49593020D01*
X157570080Y-49591990D01*
X157581570Y-49591110D01*
X157581570Y-49591100D01*
X157592230Y-49590410D01*
X157602900Y-49589850D01*
X157613570Y-49589410D01*
X157624250Y-49589100D01*
X157634940Y-49588910D01*
X157645620Y-49588850D01*
X157645620Y-49588840D01*
X157657100Y-49588910D01*
G37*
G36*
X162737010Y-49588910D02*
G01*
X162748390Y-49589120D01*
X162759780Y-49589480D01*
X162771160Y-49589980D01*
X162782530Y-49590610D01*
X162793890Y-49591390D01*
X162805240Y-49592320D01*
X162816580Y-49593380D01*
X162827900Y-49594580D01*
X162839210Y-49595930D01*
X162850500Y-49597420D01*
X162861770Y-49599040D01*
X162873020Y-49600810D01*
X162884250Y-49602720D01*
X162895450Y-49604770D01*
X162906630Y-49606950D01*
X162917780Y-49609280D01*
X162928900Y-49611740D01*
X162939980Y-49614350D01*
X162951040Y-49617090D01*
X162962060Y-49619970D01*
X162973040Y-49622980D01*
X162983980Y-49626140D01*
X162994880Y-49629430D01*
X163005750Y-49632850D01*
X163016560Y-49636410D01*
X163027340Y-49640100D01*
X163038060Y-49643930D01*
X163048740Y-49647890D01*
X163059370Y-49651990D01*
X163069940Y-49656210D01*
X163080460Y-49660570D01*
X163090930Y-49665060D01*
X163101340Y-49669680D01*
X163111690Y-49674430D01*
X163121980Y-49679310D01*
X163132210Y-49684310D01*
X163142380Y-49689440D01*
X163152480Y-49694700D01*
X163162510Y-49700090D01*
X163172480Y-49705600D01*
X163182380Y-49711230D01*
X163192210Y-49716980D01*
X163201960Y-49722860D01*
X163211640Y-49728860D01*
X163221250Y-49734980D01*
X163230770Y-49741220D01*
X163240220Y-49747570D01*
X163249590Y-49754050D01*
X163258880Y-49760640D01*
X163268090Y-49767340D01*
X163277210Y-49774160D01*
X163286240Y-49781100D01*
X163295190Y-49788140D01*
X163304050Y-49795300D01*
X163312820Y-49802560D01*
X163321500Y-49809940D01*
X163330080Y-49817420D01*
X163338570Y-49825010D01*
X163346970Y-49832700D01*
X163355270Y-49840500D01*
X163363470Y-49848400D01*
X163371580Y-49856400D01*
X163379580Y-49864510D01*
X163387480Y-49872710D01*
X163395280Y-49881010D01*
X163402970Y-49889410D01*
X163410560Y-49897900D01*
X163418040Y-49906480D01*
X163425420Y-49915160D01*
X163432680Y-49923930D01*
X163439840Y-49932790D01*
X163446880Y-49941740D01*
X163453820Y-49950770D01*
X163460640Y-49959890D01*
X163467340Y-49969100D01*
X163473930Y-49978390D01*
X163480410Y-49987760D01*
X163486760Y-49997210D01*
X163493000Y-50006730D01*
X163499120Y-50016340D01*
X163505120Y-50026020D01*
X163511000Y-50035770D01*
X163516750Y-50045600D01*
X163522380Y-50055500D01*
X163527890Y-50065470D01*
X163533280Y-50075500D01*
X163538540Y-50085600D01*
X163543670Y-50095770D01*
X163548670Y-50106000D01*
X163553550Y-50116290D01*
X163558300Y-50126640D01*
X163562920Y-50137050D01*
X163567410Y-50147520D01*
X163571770Y-50158040D01*
X163575990Y-50168610D01*
X163580090Y-50179240D01*
X163584050Y-50189920D01*
X163587880Y-50200640D01*
X163591570Y-50211420D01*
X163595130Y-50222230D01*
X163598550Y-50233100D01*
X163601840Y-50244000D01*
X163605000Y-50254940D01*
X163608010Y-50265920D01*
X163610890Y-50276940D01*
X163613630Y-50288000D01*
X163616240Y-50299080D01*
X163618700Y-50310200D01*
X163621030Y-50321350D01*
X163623210Y-50332530D01*
X163625260Y-50343730D01*
X163627170Y-50354960D01*
X163628940Y-50366210D01*
X163630560Y-50377480D01*
X163632050Y-50388770D01*
X163633400Y-50400080D01*
X163634600Y-50411400D01*
X163635660Y-50422740D01*
X163636590Y-50434090D01*
X163637370Y-50445450D01*
X163638000Y-50456820D01*
X163638500Y-50468200D01*
X163638860Y-50479590D01*
X163639070Y-50490970D01*
X163639140Y-50502360D01*
X163639130Y-50502360D01*
X163639060Y-50513780D01*
X163638840Y-50525200D01*
X163638480Y-50536620D01*
X163637980Y-50548040D01*
X163637340Y-50559440D01*
X163636560Y-50570840D01*
X163635630Y-50582220D01*
X163634560Y-50593600D01*
X163633350Y-50604960D01*
X163631990Y-50616300D01*
X163630500Y-50627620D01*
X163628860Y-50638930D01*
X163627080Y-50650210D01*
X163625160Y-50661470D01*
X163623100Y-50672710D01*
X163620900Y-50683920D01*
X163618560Y-50695100D01*
X163616080Y-50706250D01*
X163613460Y-50717370D01*
X163610700Y-50728460D01*
X163607810Y-50739510D01*
X163604770Y-50750520D01*
X163601600Y-50761500D01*
X163598290Y-50772430D01*
X163594850Y-50783320D01*
X163591270Y-50794170D01*
X163587550Y-50804970D01*
X163583700Y-50815730D01*
X163579710Y-50826430D01*
X163575590Y-50837090D01*
X163571340Y-50847690D01*
X163566960Y-50858240D01*
X163562440Y-50868730D01*
X163557790Y-50879170D01*
X163553020Y-50889540D01*
X163548110Y-50899860D01*
X163543070Y-50910110D01*
X163537910Y-50920300D01*
X163532620Y-50930430D01*
X163527200Y-50940490D01*
X163521660Y-50950480D01*
X163516000Y-50960400D01*
X163510210Y-50970240D01*
X163504300Y-50980020D01*
X163498260Y-50989720D01*
X163492110Y-50999340D01*
X163485830Y-51008890D01*
X163479440Y-51018350D01*
X163472930Y-51027740D01*
X163466300Y-51037040D01*
X163459550Y-51046260D01*
X163452700Y-51055400D01*
X163445720Y-51064450D01*
X163438640Y-51073410D01*
X163431440Y-51082280D01*
X163424130Y-51091060D01*
X163416720Y-51099750D01*
X163409190Y-51108350D01*
X163401560Y-51116850D01*
X163393820Y-51125250D01*
X163385980Y-51133560D01*
X163378040Y-51141770D01*
X163369990Y-51149870D01*
X163361840Y-51157880D01*
X163353600Y-51165790D01*
X163345250Y-51173590D01*
X163336810Y-51181280D01*
X163328270Y-51188870D01*
X163319640Y-51196360D01*
X163310910Y-51203730D01*
X163302100Y-51210990D01*
X163293190Y-51218150D01*
X163284200Y-51225190D01*
X163275110Y-51232120D01*
X163265940Y-51238930D01*
X163256690Y-51245630D01*
X163247360Y-51252210D01*
X163237940Y-51258680D01*
X163228440Y-51265030D01*
X163218860Y-51271250D01*
X163209210Y-51277360D01*
X163199480Y-51283350D01*
X163189680Y-51289210D01*
X163179800Y-51294950D01*
X163169850Y-51300570D01*
X163159840Y-51306060D01*
X163149750Y-51311430D01*
X163139600Y-51316670D01*
X163129390Y-51321780D01*
X163119110Y-51326770D01*
X163108770Y-51331630D01*
X163098370Y-51336350D01*
X163087910Y-51340950D01*
X163077400Y-51345410D01*
X163066830Y-51349750D01*
X163056200Y-51353950D01*
X163045530Y-51358010D01*
X163034800Y-51361950D01*
X163024030Y-51365750D01*
X163013210Y-51369410D01*
X163002340Y-51372940D01*
X162991440Y-51376330D01*
X162980490Y-51379590D01*
X162969500Y-51382700D01*
X162958470Y-51385680D01*
X162947400Y-51388530D01*
X162936310Y-51391230D01*
X162925170Y-51393800D01*
X162914010Y-51396220D01*
X162902820Y-51398510D01*
X162891600Y-51400650D01*
X162880350Y-51402660D01*
X162869080Y-51404520D01*
X162857790Y-51406250D01*
X162846480Y-51407830D01*
X162835140Y-51409270D01*
X162823790Y-51410570D01*
X162812430Y-51411720D01*
X162801050Y-51412740D01*
X162789660Y-51413610D01*
X162789660Y-51413620D01*
X162779000Y-51414310D01*
X162768330Y-51414870D01*
X162757660Y-51415310D01*
X162746980Y-51415620D01*
X162736300Y-51415810D01*
X162725620Y-51415870D01*
X162714140Y-51415800D01*
X162702660Y-51415580D01*
X162691190Y-51415220D01*
X162679720Y-51414720D01*
X162668260Y-51414070D01*
X162656810Y-51413270D01*
X162645370Y-51412340D01*
X162633940Y-51411260D01*
X162622520Y-51410030D01*
X162611130Y-51408670D01*
X162599750Y-51407160D01*
X162588390Y-51405500D01*
X162577050Y-51403710D01*
X162565730Y-51401770D01*
X162554450Y-51399690D01*
X162543180Y-51397470D01*
X162531950Y-51395100D01*
X162520750Y-51392600D01*
X162509580Y-51389960D01*
X162498440Y-51387170D01*
X162487340Y-51384250D01*
X162476280Y-51381180D01*
X162465250Y-51377980D01*
X162454270Y-51374640D01*
X162443330Y-51371160D01*
X162432430Y-51367540D01*
X162421590Y-51363790D01*
X162410790Y-51359900D01*
X162400030Y-51355880D01*
X162389330Y-51351720D01*
X162378690Y-51347430D01*
X162368100Y-51343000D01*
X162357560Y-51338440D01*
X162347080Y-51333750D01*
X162336670Y-51328930D01*
X162326310Y-51323980D01*
X162316020Y-51318890D01*
X162305790Y-51313680D01*
X162295630Y-51308340D01*
X162285530Y-51302870D01*
X162275510Y-51297280D01*
X162265560Y-51291560D01*
X162255670Y-51285720D01*
X162245870Y-51279750D01*
X162236140Y-51273660D01*
X162226480Y-51267450D01*
X162216910Y-51261120D01*
X162207410Y-51254670D01*
X162198000Y-51248090D01*
X162188670Y-51241410D01*
X162179430Y-51234600D01*
X162170270Y-51227680D01*
X162161200Y-51220640D01*
X162152220Y-51213490D01*
X162143330Y-51206230D01*
X162134530Y-51198860D01*
X162125820Y-51191380D01*
X162117210Y-51183780D01*
X162108700Y-51176090D01*
X162100280Y-51168280D01*
X162091960Y-51160370D01*
X162083740Y-51152350D01*
X162075630Y-51144240D01*
X162067610Y-51136020D01*
X162059700Y-51127700D01*
X162051890Y-51119280D01*
X162044200Y-51110770D01*
X162036600Y-51102160D01*
X162029120Y-51093450D01*
X162021750Y-51084650D01*
X162014490Y-51075760D01*
X162007340Y-51066780D01*
X162000300Y-51057710D01*
X161993380Y-51048550D01*
X161986570Y-51039310D01*
X161979890Y-51029980D01*
X161973310Y-51020570D01*
X161966860Y-51011070D01*
X161960530Y-51001500D01*
X161954320Y-50991840D01*
X161948230Y-50982110D01*
X161942260Y-50972310D01*
X161936420Y-50962420D01*
X161930700Y-50952470D01*
X161925110Y-50942450D01*
X161919640Y-50932350D01*
X161914300Y-50922190D01*
X161909090Y-50911960D01*
X161904000Y-50901670D01*
X161899050Y-50891310D01*
X161894230Y-50880900D01*
X161889540Y-50870420D01*
X161884980Y-50859880D01*
X161880550Y-50849290D01*
X161876260Y-50838650D01*
X161872100Y-50827950D01*
X161868080Y-50817190D01*
X161864190Y-50806390D01*
X161860440Y-50795550D01*
X161856820Y-50784650D01*
X161853340Y-50773710D01*
X161850000Y-50762730D01*
X161846800Y-50751700D01*
X161843730Y-50740640D01*
X161840810Y-50729540D01*
X161838020Y-50718400D01*
X161835380Y-50707230D01*
X161832880Y-50696030D01*
X161830510Y-50684800D01*
X161828290Y-50673530D01*
X161826210Y-50662250D01*
X161824270Y-50650930D01*
X161822480Y-50639590D01*
X161820820Y-50628230D01*
X161819310Y-50616850D01*
X161817950Y-50605460D01*
X161816720Y-50594040D01*
X161815640Y-50582610D01*
X161814710Y-50571170D01*
X161813910Y-50559720D01*
X161813260Y-50548260D01*
X161812760Y-50536790D01*
X161812400Y-50525320D01*
X161812180Y-50513840D01*
X161812110Y-50502360D01*
X161812120Y-50502360D01*
X161812190Y-50490940D01*
X161812410Y-50479520D01*
X161812760Y-50468100D01*
X161813260Y-50456690D01*
X161813910Y-50445280D01*
X161814690Y-50433880D01*
X161815620Y-50422500D01*
X161816690Y-50411120D01*
X161817900Y-50399770D01*
X161819260Y-50388420D01*
X161820750Y-50377100D01*
X161822390Y-50365790D01*
X161824170Y-50354510D01*
X161826090Y-50343250D01*
X161828150Y-50332010D01*
X161830350Y-50320800D01*
X161832690Y-50309620D01*
X161835170Y-50298470D01*
X161837790Y-50287350D01*
X161840540Y-50276260D01*
X161843440Y-50265210D01*
X161846470Y-50254200D01*
X161849650Y-50243230D01*
X161852960Y-50232290D01*
X161856400Y-50221400D01*
X161859980Y-50210560D01*
X161863700Y-50199750D01*
X161867550Y-50189000D01*
X161871540Y-50178290D01*
X161875660Y-50167640D01*
X161879910Y-50157040D01*
X161884290Y-50146490D01*
X161888810Y-50135990D01*
X161893450Y-50125560D01*
X161898230Y-50115180D01*
X161903140Y-50104870D01*
X161908170Y-50094610D01*
X161913340Y-50084420D01*
X161918620Y-50074300D01*
X161924040Y-50064240D01*
X161929580Y-50054250D01*
X161935250Y-50044330D01*
X161941040Y-50034480D01*
X161946950Y-50024710D01*
X161952980Y-50015010D01*
X161959140Y-50005380D01*
X161965410Y-49995840D01*
X161971810Y-49986370D01*
X161978320Y-49976990D01*
X161984950Y-49967680D01*
X161991690Y-49958460D01*
X161998550Y-49949330D01*
X162005520Y-49940280D01*
X162012610Y-49931320D01*
X162019800Y-49922450D01*
X162027110Y-49913660D01*
X162034530Y-49904980D01*
X162042050Y-49896380D01*
X162049680Y-49887880D01*
X162057420Y-49879480D01*
X162065260Y-49871170D01*
X162073200Y-49862960D01*
X162081250Y-49854850D01*
X162089400Y-49846840D01*
X162097640Y-49838940D01*
X162105990Y-49831140D01*
X162114430Y-49823440D01*
X162122970Y-49815850D01*
X162131600Y-49808370D01*
X162140330Y-49801000D01*
X162149140Y-49793730D01*
X162158050Y-49786580D01*
X162167040Y-49779540D01*
X162176130Y-49772610D01*
X162185290Y-49765800D01*
X162194550Y-49759100D01*
X162203880Y-49752510D01*
X162213300Y-49746050D01*
X162222800Y-49739700D01*
X162232370Y-49733470D01*
X162242030Y-49727360D01*
X162251760Y-49721380D01*
X162261560Y-49715510D01*
X162271440Y-49709770D01*
X162281380Y-49704150D01*
X162291400Y-49698660D01*
X162301480Y-49693290D01*
X162311630Y-49688050D01*
X162321850Y-49682940D01*
X162332130Y-49677960D01*
X162342470Y-49673100D01*
X162352870Y-49668370D01*
X162363320Y-49663780D01*
X162373840Y-49659310D01*
X162384410Y-49654980D01*
X162395030Y-49650780D01*
X162405710Y-49646710D01*
X162416430Y-49642780D01*
X162427200Y-49638980D01*
X162438020Y-49635310D01*
X162448890Y-49631790D01*
X162459800Y-49628390D01*
X162470750Y-49625140D01*
X162481740Y-49622020D01*
X162492760Y-49619040D01*
X162503830Y-49616200D01*
X162514930Y-49613490D01*
X162526060Y-49610930D01*
X162537220Y-49608500D01*
X162548410Y-49606210D01*
X162559630Y-49604070D01*
X162570880Y-49602060D01*
X162582150Y-49600200D01*
X162593440Y-49598480D01*
X162604760Y-49596890D01*
X162616090Y-49595450D01*
X162627440Y-49594150D01*
X162638800Y-49593000D01*
X162650180Y-49591980D01*
X162661570Y-49591110D01*
X162661570Y-49591100D01*
X162672230Y-49590410D01*
X162682900Y-49589850D01*
X162693570Y-49589410D01*
X162704250Y-49589100D01*
X162714940Y-49588910D01*
X162725620Y-49588850D01*
X162725620Y-49588840D01*
X162737010Y-49588910D01*
G37*
D11*
X132570310Y-47962240D02*
G75*
G02*
X131920070Y-47962240I-325120J0D01*
G01*
X131920070Y-47962240D02*
G75*
G02*
X132570310Y-47962240I325120J0D01*
G01*
X132570310Y-50502240D02*
G75*
G02*
X131920070Y-50502240I-325120J0D01*
G01*
X131920070Y-50502240D02*
G75*
G02*
X132570310Y-50502240I325120J0D01*
G01*
X132640290Y-94047230D02*
G75*
G02*
X131990050Y-94047230I-325120J0D01*
G01*
X131990050Y-94047230D02*
G75*
G02*
X132640290Y-94047230I325120J0D01*
G01*
X132640290Y-96587230D02*
G75*
G02*
X131990050Y-96587230I-325120J0D01*
G01*
X131990050Y-96587230D02*
G75*
G02*
X132640290Y-96587230I325120J0D01*
G01*
D12*
X134613235Y-59895230D02*
G75*
G02*
X133987125Y-59895230I-313055J0D01*
G01*
X133987125Y-59895230D02*
G75*
G02*
X134613235Y-59895230I313055J0D01*
G01*
D13*
X134638000Y-59895230D02*
G75*
G02*
X133962360Y-59895230I-337820J0D01*
G01*
X133962360Y-59895230D02*
G75*
G02*
X134638000Y-59895230I337820J0D01*
G01*
D11*
X135110310Y-47962240D02*
G75*
G02*
X134460070Y-47962240I-325120J0D01*
G01*
X134460070Y-47962240D02*
G75*
G02*
X135110310Y-47962240I325120J0D01*
G01*
X135110310Y-50502240D02*
G75*
G02*
X134460070Y-50502240I-325120J0D01*
G01*
X134460070Y-50502240D02*
G75*
G02*
X135110310Y-50502240I325120J0D01*
G01*
X135180290Y-94047230D02*
G75*
G02*
X134530050Y-94047230I-325120J0D01*
G01*
X134530050Y-94047230D02*
G75*
G02*
X135180290Y-94047230I325120J0D01*
G01*
X135180290Y-96587230D02*
G75*
G02*
X134530050Y-96587230I-325120J0D01*
G01*
X134530050Y-96587230D02*
G75*
G02*
X135180290Y-96587230I325120J0D01*
G01*
X137650310Y-47962240D02*
G75*
G02*
X137000070Y-47962240I-325120J0D01*
G01*
X137000070Y-47962240D02*
G75*
G02*
X137650310Y-47962240I325120J0D01*
G01*
X137650310Y-50502240D02*
G75*
G02*
X137000070Y-50502240I-325120J0D01*
G01*
X137000070Y-50502240D02*
G75*
G02*
X137650310Y-50502240I325120J0D01*
G01*
X137720290Y-94047230D02*
G75*
G02*
X137070050Y-94047230I-325120J0D01*
G01*
X137070050Y-94047230D02*
G75*
G02*
X137720290Y-94047230I325120J0D01*
G01*
X137720290Y-96587230D02*
G75*
G02*
X137070050Y-96587230I-325120J0D01*
G01*
X137070050Y-96587230D02*
G75*
G02*
X137720290Y-96587230I325120J0D01*
G01*
X140190310Y-47962240D02*
G75*
G02*
X139540070Y-47962240I-325120J0D01*
G01*
X139540070Y-47962240D02*
G75*
G02*
X140190310Y-47962240I325120J0D01*
G01*
X140190310Y-50502240D02*
G75*
G02*
X139540070Y-50502240I-325120J0D01*
G01*
X139540070Y-50502240D02*
G75*
G02*
X140190310Y-50502240I325120J0D01*
G01*
X140260290Y-94047230D02*
G75*
G02*
X139610050Y-94047230I-325120J0D01*
G01*
X139610050Y-94047230D02*
G75*
G02*
X140260290Y-94047230I325120J0D01*
G01*
X140260290Y-96587230D02*
G75*
G02*
X139610050Y-96587230I-325120J0D01*
G01*
X139610050Y-96587230D02*
G75*
G02*
X140260290Y-96587230I325120J0D01*
G01*
X142730310Y-47962240D02*
G75*
G02*
X142080070Y-47962240I-325120J0D01*
G01*
X142080070Y-47962240D02*
G75*
G02*
X142730310Y-47962240I325120J0D01*
G01*
X142730310Y-50502240D02*
G75*
G02*
X142080070Y-50502240I-325120J0D01*
G01*
X142080070Y-50502240D02*
G75*
G02*
X142730310Y-50502240I325120J0D01*
G01*
X142800290Y-94047230D02*
G75*
G02*
X142150050Y-94047230I-325120J0D01*
G01*
X142150050Y-94047230D02*
G75*
G02*
X142800290Y-94047230I325120J0D01*
G01*
X142800290Y-96587230D02*
G75*
G02*
X142150050Y-96587230I-325120J0D01*
G01*
X142150050Y-96587230D02*
G75*
G02*
X142800290Y-96587230I325120J0D01*
G01*
X145270310Y-47962240D02*
G75*
G02*
X144620070Y-47962240I-325120J0D01*
G01*
X144620070Y-47962240D02*
G75*
G02*
X145270310Y-47962240I325120J0D01*
G01*
X145270310Y-50502240D02*
G75*
G02*
X144620070Y-50502240I-325120J0D01*
G01*
X144620070Y-50502240D02*
G75*
G02*
X145270310Y-50502240I325120J0D01*
G01*
X145340290Y-94047230D02*
G75*
G02*
X144690050Y-94047230I-325120J0D01*
G01*
X144690050Y-94047230D02*
G75*
G02*
X145340290Y-94047230I325120J0D01*
G01*
X145340290Y-96587230D02*
G75*
G02*
X144690050Y-96587230I-325120J0D01*
G01*
X144690050Y-96587230D02*
G75*
G02*
X145340290Y-96587230I325120J0D01*
G01*
X147810310Y-47962240D02*
G75*
G02*
X147160070Y-47962240I-325120J0D01*
G01*
X147160070Y-47962240D02*
G75*
G02*
X147810310Y-47962240I325120J0D01*
G01*
X147880290Y-96587230D02*
G75*
G02*
X147230050Y-96587230I-325120J0D01*
G01*
X147230050Y-96587230D02*
G75*
G02*
X147880290Y-96587230I325120J0D01*
G01*
X150350310Y-47962240D02*
G75*
G02*
X149700070Y-47962240I-325120J0D01*
G01*
X149700070Y-47962240D02*
G75*
G02*
X150350310Y-47962240I325120J0D01*
G01*
X150350310Y-50502240D02*
G75*
G02*
X149700070Y-50502240I-325120J0D01*
G01*
X149700070Y-50502240D02*
G75*
G02*
X150350310Y-50502240I325120J0D01*
G01*
X150420290Y-94047230D02*
G75*
G02*
X149770050Y-94047230I-325120J0D01*
G01*
X149770050Y-94047230D02*
G75*
G02*
X150420290Y-94047230I325120J0D01*
G01*
X150420290Y-96587230D02*
G75*
G02*
X149770050Y-96587230I-325120J0D01*
G01*
X149770050Y-96587230D02*
G75*
G02*
X150420290Y-96587230I325120J0D01*
G01*
X152890310Y-47962240D02*
G75*
G02*
X152240070Y-47962240I-325120J0D01*
G01*
X152240070Y-47962240D02*
G75*
G02*
X152890310Y-47962240I325120J0D01*
G01*
X152890310Y-50502240D02*
G75*
G02*
X152240070Y-50502240I-325120J0D01*
G01*
X152240070Y-50502240D02*
G75*
G02*
X152890310Y-50502240I325120J0D01*
G01*
X152960290Y-96587230D02*
G75*
G02*
X152310050Y-96587230I-325120J0D01*
G01*
X152310050Y-96587230D02*
G75*
G02*
X152960290Y-96587230I325120J0D01*
G01*
X155430310Y-47962240D02*
G75*
G02*
X154780070Y-47962240I-325120J0D01*
G01*
X154780070Y-47962240D02*
G75*
G02*
X155430310Y-47962240I325120J0D01*
G01*
X155430310Y-50502240D02*
G75*
G02*
X154780070Y-50502240I-325120J0D01*
G01*
X154780070Y-50502240D02*
G75*
G02*
X155430310Y-50502240I325120J0D01*
G01*
X155500290Y-96587230D02*
G75*
G02*
X154850050Y-96587230I-325120J0D01*
G01*
X154850050Y-96587230D02*
G75*
G02*
X155500290Y-96587230I325120J0D01*
G01*
X157970310Y-47962240D02*
G75*
G02*
X157320070Y-47962240I-325120J0D01*
G01*
X157320070Y-47962240D02*
G75*
G02*
X157970310Y-47962240I325120J0D01*
G01*
X157970310Y-50502240D02*
G75*
G02*
X157320070Y-50502240I-325120J0D01*
G01*
X157320070Y-50502240D02*
G75*
G02*
X157970310Y-50502240I325120J0D01*
G01*
X158040290Y-96587230D02*
G75*
G02*
X157390050Y-96587230I-325120J0D01*
G01*
X157390050Y-96587230D02*
G75*
G02*
X158040290Y-96587230I325120J0D01*
G01*
X160510310Y-47962240D02*
G75*
G02*
X159860070Y-47962240I-325120J0D01*
G01*
X159860070Y-47962240D02*
G75*
G02*
X160510310Y-47962240I325120J0D01*
G01*
X160510310Y-50502240D02*
G75*
G02*
X159860070Y-50502240I-325120J0D01*
G01*
X159860070Y-50502240D02*
G75*
G02*
X160510310Y-50502240I325120J0D01*
G01*
X160580290Y-94047230D02*
G75*
G02*
X159930050Y-94047230I-325120J0D01*
G01*
X159930050Y-94047230D02*
G75*
G02*
X160580290Y-94047230I325120J0D01*
G01*
X160580290Y-96587230D02*
G75*
G02*
X159930050Y-96587230I-325120J0D01*
G01*
X159930050Y-96587230D02*
G75*
G02*
X160580290Y-96587230I325120J0D01*
G01*
X163050310Y-47962240D02*
G75*
G02*
X162400070Y-47962240I-325120J0D01*
G01*
X162400070Y-47962240D02*
G75*
G02*
X163050310Y-47962240I325120J0D01*
G01*
X163050310Y-50502240D02*
G75*
G02*
X162400070Y-50502240I-325120J0D01*
G01*
X162400070Y-50502240D02*
G75*
G02*
X163050310Y-50502240I325120J0D01*
G01*
X163120290Y-94047230D02*
G75*
G02*
X162470050Y-94047230I-325120J0D01*
G01*
X162470050Y-94047230D02*
G75*
G02*
X163120290Y-94047230I325120J0D01*
G01*
X163120290Y-96587230D02*
G75*
G02*
X162470050Y-96587230I-325120J0D01*
G01*
X162470050Y-96587230D02*
G75*
G02*
X163120290Y-96587230I325120J0D01*
G01*
X165590310Y-50502240D02*
G75*
G02*
X164940070Y-50502240I-325120J0D01*
G01*
X164940070Y-50502240D02*
G75*
G02*
X165590310Y-50502240I325120J0D01*
G01*
X165660290Y-94047230D02*
G75*
G02*
X165010050Y-94047230I-325120J0D01*
G01*
X165010050Y-94047230D02*
G75*
G02*
X165660290Y-94047230I325120J0D01*
G01*
X165660290Y-96587230D02*
G75*
G02*
X165010050Y-96587230I-325120J0D01*
G01*
X165010050Y-96587230D02*
G75*
G02*
X165660290Y-96587230I325120J0D01*
G01*
X168130310Y-47962240D02*
G75*
G02*
X167480070Y-47962240I-325120J0D01*
G01*
X167480070Y-47962240D02*
G75*
G02*
X168130310Y-47962240I325120J0D01*
G01*
X168130310Y-50502240D02*
G75*
G02*
X167480070Y-50502240I-325120J0D01*
G01*
X167480070Y-50502240D02*
G75*
G02*
X168130310Y-50502240I325120J0D01*
G01*
X168200290Y-94047230D02*
G75*
G02*
X167550050Y-94047230I-325120J0D01*
G01*
X167550050Y-94047230D02*
G75*
G02*
X168200290Y-94047230I325120J0D01*
G01*
X168200290Y-96587230D02*
G75*
G02*
X167550050Y-96587230I-325120J0D01*
G01*
X167550050Y-96587230D02*
G75*
G02*
X168200290Y-96587230I325120J0D01*
G01*
X170670310Y-47962240D02*
G75*
G02*
X170020070Y-47962240I-325120J0D01*
G01*
X170020070Y-47962240D02*
G75*
G02*
X170670310Y-47962240I325120J0D01*
G01*
X170670310Y-50502240D02*
G75*
G02*
X170020070Y-50502240I-325120J0D01*
G01*
X170020070Y-50502240D02*
G75*
G02*
X170670310Y-50502240I325120J0D01*
G01*
X170740290Y-94047230D02*
G75*
G02*
X170090050Y-94047230I-325120J0D01*
G01*
X170090050Y-94047230D02*
G75*
G02*
X170740290Y-94047230I325120J0D01*
G01*
X170740290Y-96587230D02*
G75*
G02*
X170090050Y-96587230I-325120J0D01*
G01*
X170090050Y-96587230D02*
G75*
G02*
X170740290Y-96587230I325120J0D01*
G01*
X173210310Y-50502240D02*
G75*
G02*
X172560070Y-50502240I-325120J0D01*
G01*
X172560070Y-50502240D02*
G75*
G02*
X173210310Y-50502240I325120J0D01*
G01*
X173280290Y-94047230D02*
G75*
G02*
X172630050Y-94047230I-325120J0D01*
G01*
X172630050Y-94047230D02*
G75*
G02*
X173280290Y-94047230I325120J0D01*
G01*
X173280290Y-96587230D02*
G75*
G02*
X172630050Y-96587230I-325120J0D01*
G01*
X172630050Y-96587230D02*
G75*
G02*
X173280290Y-96587230I325120J0D01*
G01*
X175750310Y-47962240D02*
G75*
G02*
X175100070Y-47962240I-325120J0D01*
G01*
X175100070Y-47962240D02*
G75*
G02*
X175750310Y-47962240I325120J0D01*
G01*
X175750310Y-50502240D02*
G75*
G02*
X175100070Y-50502240I-325120J0D01*
G01*
X175100070Y-50502240D02*
G75*
G02*
X175750310Y-50502240I325120J0D01*
G01*
X175820290Y-94047230D02*
G75*
G02*
X175170050Y-94047230I-325120J0D01*
G01*
X175170050Y-94047230D02*
G75*
G02*
X175820290Y-94047230I325120J0D01*
G01*
X175820290Y-96587230D02*
G75*
G02*
X175170050Y-96587230I-325120J0D01*
G01*
X175170050Y-96587230D02*
G75*
G02*
X175820290Y-96587230I325120J0D01*
G01*
X178290310Y-47962240D02*
G75*
G02*
X177640070Y-47962240I-325120J0D01*
G01*
X177640070Y-47962240D02*
G75*
G02*
X178290310Y-47962240I325120J0D01*
G01*
X178290310Y-50502240D02*
G75*
G02*
X177640070Y-50502240I-325120J0D01*
G01*
X177640070Y-50502240D02*
G75*
G02*
X178290310Y-50502240I325120J0D01*
G01*
X178360290Y-94047230D02*
G75*
G02*
X177710050Y-94047230I-325120J0D01*
G01*
X177710050Y-94047230D02*
G75*
G02*
X178360290Y-94047230I325120J0D01*
G01*
X178360290Y-96587230D02*
G75*
G02*
X177710050Y-96587230I-325120J0D01*
G01*
X177710050Y-96587230D02*
G75*
G02*
X178360290Y-96587230I325120J0D01*
G01*
X180830310Y-50502240D02*
G75*
G02*
X180180070Y-50502240I-325120J0D01*
G01*
X180180070Y-50502240D02*
G75*
G02*
X180830310Y-50502240I325120J0D01*
G01*
X180900290Y-94047230D02*
G75*
G02*
X180250050Y-94047230I-325120J0D01*
G01*
X180250050Y-94047230D02*
G75*
G02*
X180900290Y-94047230I325120J0D01*
G01*
X180900290Y-96587230D02*
G75*
G02*
X180250050Y-96587230I-325120J0D01*
G01*
X180250050Y-96587230D02*
G75*
G02*
X180900290Y-96587230I325120J0D01*
G01*
D14*
X201538320Y-59895230D02*
G75*
G02*
X200662020Y-59895230I-438150J0D01*
G01*
X200662020Y-59895230D02*
G75*
G02*
X201538320Y-59895230I438150J0D01*
G01*
D15*
X201562450Y-59895230D02*
G75*
G02*
X200637890Y-59895230I-462280J0D01*
G01*
X200637890Y-59895230D02*
G75*
G02*
X201562450Y-59895230I462280J0D01*
G01*
D16*
%TO.C,SW3*%
X193200000Y-98760000D03*
X188120000Y-98760000D03*
D17*
X193200000Y-93680000D03*
D16*
X190660000Y-93680000D03*
X188120000Y-93680000D03*
%TD*%
D18*
%TO.C,J3*%
X132300000Y-50500000D03*
D19*
X132300000Y-47960000D03*
X134840000Y-50500000D03*
X134840000Y-47960000D03*
X137380000Y-50500000D03*
X137380000Y-47960000D03*
X139920000Y-50500000D03*
X139920000Y-47960000D03*
X142460000Y-50500000D03*
X142460000Y-47960000D03*
X145000000Y-50500000D03*
X145000000Y-47960000D03*
X147540000Y-50500000D03*
X147540000Y-47960000D03*
X150080000Y-50500000D03*
X150080000Y-47960000D03*
X152620000Y-50500000D03*
X152620000Y-47960000D03*
X155160000Y-50500000D03*
X155160000Y-47960000D03*
X157700000Y-50500000D03*
X157700000Y-47960000D03*
X160240000Y-50500000D03*
X160240000Y-47960000D03*
X162780000Y-50500000D03*
X162780000Y-47960000D03*
X165320000Y-50500000D03*
X165320000Y-47960000D03*
X167860000Y-50500000D03*
X167860000Y-47960000D03*
X170400000Y-50500000D03*
X170400000Y-47960000D03*
X172940000Y-50500000D03*
X172940000Y-47960000D03*
X175480000Y-50500000D03*
X175480000Y-47960000D03*
X178020000Y-50500000D03*
X178020000Y-47960000D03*
X180560000Y-50500000D03*
X180560000Y-47960000D03*
%TD*%
D16*
%TO.C,SLOT1*%
X201100000Y-59900000D03*
D20*
X134300000Y-59900000D03*
%TD*%
D16*
%TO.C,SW4*%
X201970000Y-98870000D03*
X196890000Y-98870000D03*
D17*
X201970000Y-93790000D03*
D16*
X199430000Y-93790000D03*
X196890000Y-93790000D03*
%TD*%
D18*
%TO.C,J1*%
X132360000Y-96540000D03*
D19*
X132360000Y-94000000D03*
X134900000Y-96540000D03*
X134900000Y-94000000D03*
X137440000Y-96540000D03*
X137440000Y-94000000D03*
X139980000Y-96540000D03*
X139980000Y-94000000D03*
X142520000Y-96540000D03*
X142520000Y-94000000D03*
X145060000Y-96540000D03*
X145060000Y-94000000D03*
X147600000Y-96540000D03*
X147600000Y-94000000D03*
X150140000Y-96540000D03*
X150140000Y-94000000D03*
X152680000Y-96540000D03*
X152680000Y-94000000D03*
X155220000Y-96540000D03*
X155220000Y-94000000D03*
X157760000Y-96540000D03*
X157760000Y-94000000D03*
X160300000Y-96540000D03*
X160300000Y-94000000D03*
X162840000Y-96540000D03*
X162840000Y-94000000D03*
X165380000Y-96540000D03*
X165380000Y-94000000D03*
X167920000Y-96540000D03*
X167920000Y-94000000D03*
X170460000Y-96540000D03*
X170460000Y-94000000D03*
X173000000Y-96540000D03*
X173000000Y-94000000D03*
X175540000Y-96540000D03*
X175540000Y-94000000D03*
X178080000Y-96540000D03*
X178080000Y-94000000D03*
X180620000Y-96540000D03*
X180620000Y-94000000D03*
%TD*%
D18*
%TO.C,J6*%
X205280000Y-89850000D03*
D19*
X207820000Y-89850000D03*
X205280000Y-87310000D03*
X207820000Y-87310000D03*
X205280000Y-84770000D03*
X207820000Y-84770000D03*
X205280000Y-82230000D03*
X207820000Y-82230000D03*
X205280000Y-79690000D03*
X207820000Y-79690000D03*
X205280000Y-77150000D03*
X207820000Y-77150000D03*
%TD*%
D18*
%TO.C,J4*%
X130290000Y-54360000D03*
D19*
X127750000Y-54360000D03*
X130290000Y-56900000D03*
X127750000Y-56900000D03*
X130290000Y-59440000D03*
X127750000Y-59440000D03*
X130290000Y-61980000D03*
X127750000Y-61980000D03*
X130290000Y-64520000D03*
X127750000Y-64520000D03*
X130290000Y-67060000D03*
X127750000Y-67060000D03*
%TD*%
D18*
%TO.C,J5*%
X205280000Y-66980000D03*
D19*
X207820000Y-66980000D03*
X205280000Y-64440000D03*
X207820000Y-64440000D03*
X205280000Y-61900000D03*
X207820000Y-61900000D03*
X205280000Y-59360000D03*
X207820000Y-59360000D03*
X205280000Y-56820000D03*
X207820000Y-56820000D03*
X205280000Y-54280000D03*
X207820000Y-54280000D03*
%TD*%
D18*
%TO.C,J2*%
X130290000Y-77210000D03*
D19*
X127750000Y-77210000D03*
X130290000Y-79750000D03*
X127750000Y-79750000D03*
X130290000Y-82290000D03*
X127750000Y-82290000D03*
X130290000Y-84830000D03*
X127750000Y-84830000D03*
X130290000Y-87370000D03*
X127750000Y-87370000D03*
X130290000Y-89910000D03*
X127750000Y-89910000D03*
%TD*%
M02*
