%TF.GenerationSoftware,KiCad,Pcbnew,10.0.5*%
%TF.CreationDate,2026-08-23T16:38:26+05:30*%
%TF.ProjectId,primercarrier,7072696d-6572-4636-9172-726965722e6b,rev?*%
%TF.SameCoordinates,Original*%
%TF.FileFunction,Legend,Top*%
%TF.FilePolarity,Positive*%
%FSLAX46Y46*%
G04 Gerber Fmt 4.6, Leading zero omitted, Abs format (unit mm)*
G04 Created by KiCad (PCBNEW 10.0.5) date 2026-08-23 16:38:26*
%MOMM*%
%LPD*%
G01*
G04 APERTURE LIST*
%ADD10C,0.000000*%
%ADD11C,0.129540*%
%ADD12C,0.254000*%
%ADD13C,0.170180*%
%ADD14C,0.200660*%
%ADD15C,0.150000*%
%ADD16C,0.120000*%
%ADD17C,0.127000*%
%ADD18C,0.200000*%
G04 APERTURE END LIST*
D10*
G36*
X177643530Y-63832480D02*
G01*
X177645130Y-63832490D01*
X177646740Y-63832520D01*
X177648340Y-63832570D01*
X177649940Y-63832640D01*
X177651540Y-63832730D01*
X177653150Y-63832840D01*
X177654740Y-63832970D01*
X177656340Y-63833120D01*
X177657940Y-63833300D01*
X177659530Y-63833490D01*
X177661120Y-63833700D01*
X177662700Y-63833930D01*
X177664290Y-63834180D01*
X177665870Y-63834460D01*
X177667450Y-63834750D01*
X177669020Y-63835060D01*
X177670590Y-63835390D01*
X177672150Y-63835740D01*
X177673720Y-63836120D01*
X177675270Y-63836510D01*
X177676820Y-63836920D01*
X177678370Y-63837350D01*
X177679910Y-63837800D01*
X177681440Y-63838270D01*
X177682970Y-63838760D01*
X177684490Y-63839260D01*
X177686000Y-63839790D01*
X177687510Y-63840340D01*
X177689010Y-63840900D01*
X177690510Y-63841490D01*
X177691990Y-63842090D01*
X177693470Y-63842710D01*
X177694940Y-63843350D01*
X177696410Y-63844010D01*
X177697860Y-63844690D01*
X177699310Y-63845380D01*
X177700740Y-63846090D01*
X177702170Y-63846830D01*
X177703590Y-63847580D01*
X177705000Y-63848340D01*
X177706400Y-63849130D01*
X177707780Y-63849930D01*
X177709160Y-63850750D01*
X177710530Y-63851590D01*
X177710530Y-64067330D01*
X177710540Y-64067340D01*
X177709170Y-64068180D01*
X177707790Y-64069000D01*
X177706400Y-64069800D01*
X177705000Y-64070590D01*
X177703590Y-64071360D01*
X177702180Y-64072110D01*
X177700750Y-64072840D01*
X177699310Y-64073550D01*
X177697870Y-64074250D01*
X177696410Y-64074920D01*
X177694950Y-64075580D01*
X177693480Y-64076220D01*
X177692000Y-64076850D01*
X177690510Y-64077450D01*
X177689020Y-64078030D01*
X177687520Y-64078600D01*
X177686010Y-64079140D01*
X177684490Y-64079670D01*
X177682970Y-64080180D01*
X177681440Y-64080670D01*
X177679910Y-64081140D01*
X177678370Y-64081590D01*
X177676830Y-64082020D01*
X177675270Y-64082430D01*
X177673720Y-64082820D01*
X177672160Y-64083190D01*
X177670590Y-64083540D01*
X177669020Y-64083870D01*
X177667450Y-64084190D01*
X177665870Y-64084480D01*
X177664290Y-64084750D01*
X177662710Y-64085000D01*
X177661120Y-64085230D01*
X177659530Y-64085450D01*
X177657940Y-64085640D01*
X177656340Y-64085810D01*
X177654740Y-64085960D01*
X177653150Y-64086090D01*
X177651550Y-64086210D01*
X177649940Y-64086300D01*
X177648340Y-64086370D01*
X177646740Y-64086420D01*
X177645130Y-64086450D01*
X177643530Y-64086460D01*
X175456080Y-64086460D01*
X175456080Y-64086450D01*
X175454480Y-64086440D01*
X175452880Y-64086410D01*
X175451290Y-64086360D01*
X175449690Y-64086290D01*
X175448090Y-64086200D01*
X175446500Y-64086090D01*
X175444900Y-64085960D01*
X175443310Y-64085810D01*
X175441720Y-64085630D01*
X175440140Y-64085440D01*
X175438550Y-64085230D01*
X175436970Y-64085000D01*
X175435390Y-64084750D01*
X175433810Y-64084480D01*
X175432240Y-64084190D01*
X175430670Y-64083880D01*
X175429110Y-64083550D01*
X175427550Y-64083200D01*
X175425990Y-64082830D01*
X175424440Y-64082450D01*
X175422900Y-64082040D01*
X175421360Y-64081610D01*
X175419820Y-64081160D01*
X175418290Y-64080700D01*
X175416770Y-64080210D01*
X175415250Y-64079710D01*
X175413740Y-64079180D01*
X175412240Y-64078640D01*
X175410740Y-64078080D01*
X175409250Y-64077500D01*
X175407770Y-64076900D01*
X175406290Y-64076280D01*
X175404830Y-64075650D01*
X175403370Y-64074990D01*
X175401920Y-64074320D01*
X175400480Y-64073630D01*
X175399040Y-64072920D01*
X175397620Y-64072190D01*
X175396210Y-64071450D01*
X175394800Y-64070690D01*
X175393410Y-64069910D01*
X175392020Y-64069110D01*
X175390640Y-64068290D01*
X175389280Y-64067460D01*
X175389280Y-63851460D01*
X175389270Y-63851450D01*
X175390640Y-63850610D01*
X175392010Y-63849800D01*
X175393400Y-63849000D01*
X175394790Y-63848220D01*
X175396200Y-63847460D01*
X175397610Y-63846710D01*
X175399040Y-63845990D01*
X175400470Y-63845280D01*
X175401910Y-63844590D01*
X175403360Y-63843920D01*
X175404820Y-63843260D01*
X175406290Y-63842620D01*
X175407760Y-63842010D01*
X175409250Y-63841410D01*
X175410740Y-63840830D01*
X175412230Y-63840270D01*
X175413740Y-63839720D01*
X175415250Y-63839200D01*
X175416770Y-63838700D01*
X175418290Y-63838210D01*
X175419820Y-63837750D01*
X175421350Y-63837300D01*
X175422890Y-63836870D01*
X175424440Y-63836460D01*
X175425990Y-63836080D01*
X175427550Y-63835710D01*
X175429110Y-63835360D01*
X175430670Y-63835030D01*
X175432240Y-63834720D01*
X175433810Y-63834430D01*
X175435390Y-63834160D01*
X175436970Y-63833910D01*
X175438550Y-63833680D01*
X175440130Y-63833460D01*
X175441720Y-63833270D01*
X175443310Y-63833100D01*
X175444900Y-63832950D01*
X175446500Y-63832820D01*
X175448090Y-63832710D01*
X175449690Y-63832620D01*
X175451280Y-63832550D01*
X175452880Y-63832500D01*
X175454480Y-63832470D01*
X175456080Y-63832460D01*
X177643530Y-63832460D01*
X177643530Y-63832480D01*
G37*
G36*
X177945100Y-55704470D02*
G01*
X177946670Y-55704500D01*
X177948230Y-55704550D01*
X177949800Y-55704620D01*
X177951360Y-55704700D01*
X177952930Y-55704810D01*
X177954490Y-55704930D01*
X177956050Y-55705080D01*
X177957610Y-55705240D01*
X177959170Y-55705430D01*
X177960720Y-55705630D01*
X177962280Y-55705850D01*
X177963820Y-55706090D01*
X177965370Y-55706350D01*
X177966910Y-55706630D01*
X177968450Y-55706930D01*
X177969990Y-55707250D01*
X177971520Y-55707580D01*
X177973050Y-55707940D01*
X177974570Y-55708310D01*
X177976090Y-55708710D01*
X177977600Y-55709120D01*
X177979110Y-55709550D01*
X177980610Y-55709990D01*
X177982110Y-55710460D01*
X177983600Y-55710950D01*
X177985080Y-55711450D01*
X177986560Y-55711970D01*
X177988030Y-55712510D01*
X177989500Y-55713070D01*
X177990960Y-55713650D01*
X177992410Y-55714240D01*
X177993850Y-55714860D01*
X177995290Y-55715490D01*
X177996710Y-55716130D01*
X177998130Y-55716800D01*
X177999540Y-55717480D01*
X178000950Y-55718180D01*
X178002340Y-55718900D01*
X178003730Y-55719630D01*
X178005100Y-55720390D01*
X178006470Y-55721150D01*
X178007830Y-55721940D01*
X178009170Y-55722740D01*
X178010510Y-55723560D01*
X178010510Y-55939360D01*
X178009170Y-55940180D01*
X178007830Y-55940980D01*
X178006470Y-55941770D01*
X178005100Y-55942540D01*
X178003730Y-55943290D01*
X178002340Y-55944020D01*
X178000950Y-55944740D01*
X177999540Y-55945440D01*
X177998130Y-55946120D01*
X177996710Y-55946790D01*
X177995290Y-55947440D01*
X177993850Y-55948070D01*
X177992410Y-55948680D01*
X177990960Y-55949270D01*
X177989500Y-55949850D01*
X177988030Y-55950410D01*
X177986560Y-55950950D01*
X177985080Y-55951470D01*
X177983600Y-55951970D01*
X177982110Y-55952460D01*
X177980610Y-55952930D01*
X177979110Y-55953370D01*
X177977600Y-55953800D01*
X177976090Y-55954220D01*
X177974570Y-55954610D01*
X177973050Y-55954980D01*
X177971520Y-55955340D01*
X177969990Y-55955670D01*
X177968450Y-55955990D01*
X177966910Y-55956290D01*
X177965370Y-55956570D01*
X177963820Y-55956830D01*
X177962280Y-55957070D01*
X177960720Y-55957290D01*
X177959170Y-55957490D01*
X177957610Y-55957680D01*
X177956050Y-55957840D01*
X177954490Y-55957990D01*
X177952930Y-55958110D01*
X177951360Y-55958220D01*
X177949800Y-55958310D01*
X177948230Y-55958370D01*
X177946670Y-55958420D01*
X177945100Y-55958450D01*
X177943530Y-55958460D01*
X175756080Y-55958460D01*
X175754520Y-55958460D01*
X175752950Y-55958430D01*
X175751390Y-55958380D01*
X175749830Y-55958310D01*
X175748270Y-55958220D01*
X175746700Y-55958120D01*
X175745150Y-55957990D01*
X175743590Y-55957850D01*
X175742030Y-55957690D01*
X175740480Y-55957500D01*
X175738930Y-55957300D01*
X175737380Y-55957080D01*
X175735840Y-55956840D01*
X175734290Y-55956580D01*
X175732750Y-55956300D01*
X175731220Y-55956010D01*
X175729690Y-55955690D01*
X175728160Y-55955360D01*
X175726640Y-55955000D01*
X175725120Y-55954630D01*
X175723600Y-55954240D01*
X175722090Y-55953830D01*
X175720590Y-55953410D01*
X175719090Y-55952960D01*
X175717600Y-55952490D01*
X175716110Y-55952010D01*
X175714630Y-55951510D01*
X175713150Y-55950990D01*
X175711680Y-55950450D01*
X175710220Y-55949900D01*
X175708770Y-55949320D01*
X175707320Y-55948730D01*
X175705880Y-55948120D01*
X175704450Y-55947500D01*
X175703020Y-55946850D01*
X175701600Y-55946190D01*
X175700200Y-55945510D01*
X175698800Y-55944810D01*
X175697400Y-55944100D01*
X175696020Y-55943370D01*
X175694650Y-55942620D01*
X175693280Y-55941850D01*
X175691930Y-55941070D01*
X175690580Y-55940270D01*
X175689250Y-55939460D01*
X175689250Y-55723460D01*
X175690590Y-55722650D01*
X175691930Y-55721850D01*
X175693290Y-55721070D01*
X175694650Y-55720300D01*
X175696020Y-55719560D01*
X175697410Y-55718830D01*
X175698800Y-55718110D01*
X175700200Y-55717420D01*
X175701610Y-55716740D01*
X175703020Y-55716070D01*
X175704450Y-55715430D01*
X175705880Y-55714800D01*
X175707320Y-55714190D01*
X175708770Y-55713600D01*
X175710220Y-55713030D01*
X175711690Y-55712470D01*
X175713150Y-55711930D01*
X175714630Y-55711410D01*
X175716110Y-55710910D01*
X175717600Y-55710430D01*
X175719090Y-55709970D01*
X175720590Y-55709520D01*
X175722090Y-55709090D01*
X175723600Y-55708680D01*
X175725120Y-55708290D01*
X175726640Y-55707920D01*
X175728160Y-55707570D01*
X175729690Y-55707230D01*
X175731220Y-55706920D01*
X175732760Y-55706620D01*
X175734290Y-55706340D01*
X175735840Y-55706080D01*
X175737380Y-55705840D01*
X175738930Y-55705620D01*
X175740480Y-55705420D01*
X175742030Y-55705240D01*
X175743590Y-55705080D01*
X175745150Y-55704930D01*
X175746710Y-55704810D01*
X175748270Y-55704700D01*
X175749830Y-55704610D01*
X175751390Y-55704550D01*
X175752950Y-55704500D01*
X175754520Y-55704470D01*
X175756080Y-55704460D01*
X177943530Y-55704460D01*
X177945100Y-55704470D01*
G37*
G36*
X203261480Y-63832470D02*
G01*
X203263020Y-63832500D01*
X203264570Y-63832540D01*
X203266110Y-63832610D01*
X203267660Y-63832700D01*
X203269200Y-63832800D01*
X203270740Y-63832920D01*
X203272280Y-63833060D01*
X203273820Y-63833220D01*
X203275360Y-63833400D01*
X203276890Y-63833600D01*
X203278420Y-63833810D01*
X203279950Y-63834050D01*
X203281480Y-63834300D01*
X203283000Y-63834570D01*
X203284520Y-63834860D01*
X203286030Y-63835170D01*
X203287540Y-63835500D01*
X203289050Y-63835840D01*
X203290550Y-63836210D01*
X203292050Y-63836590D01*
X203293550Y-63836990D01*
X203295040Y-63837410D01*
X203296520Y-63837840D01*
X203298000Y-63838300D01*
X203299470Y-63838770D01*
X203300940Y-63839260D01*
X203302400Y-63839770D01*
X203303850Y-63840300D01*
X203305300Y-63840840D01*
X203306740Y-63841400D01*
X203308170Y-63841980D01*
X203309600Y-63842580D01*
X203311020Y-63843190D01*
X203312430Y-63843820D01*
X203313840Y-63844470D01*
X203315230Y-63845130D01*
X203316620Y-63845810D01*
X203318000Y-63846510D01*
X203319370Y-63847230D01*
X203320730Y-63847960D01*
X203322090Y-63848710D01*
X203323430Y-63849470D01*
X203324760Y-63850260D01*
X203326090Y-63851050D01*
X203327400Y-63851870D01*
X203328710Y-63852700D01*
X203330000Y-63853540D01*
X203331290Y-63854400D01*
X203332560Y-63855280D01*
X203333830Y-63856170D01*
X203335080Y-63857080D01*
X203336320Y-63858000D01*
X203337550Y-63858940D01*
X203338770Y-63859890D01*
X203339970Y-63860860D01*
X203341170Y-63861840D01*
X203342350Y-63862840D01*
X203343520Y-63863850D01*
X203344680Y-63864870D01*
X203345820Y-63865910D01*
X203346960Y-63866970D01*
X203348080Y-63868030D01*
X203349180Y-63869110D01*
X203350280Y-63870210D01*
X203351360Y-63871310D01*
X203352420Y-63872430D01*
X203353480Y-63873570D01*
X203354520Y-63874710D01*
X203355540Y-63875870D01*
X203356550Y-63877040D01*
X203357550Y-63878220D01*
X203358530Y-63879420D01*
X203359500Y-63880620D01*
X203360450Y-63881840D01*
X203361390Y-63883070D01*
X203362310Y-63884310D01*
X203363220Y-63885560D01*
X203364110Y-63886830D01*
X203364990Y-63888100D01*
X203365850Y-63889390D01*
X203366690Y-63890680D01*
X203367520Y-63891990D01*
X203368340Y-63893300D01*
X203369130Y-63894630D01*
X203369920Y-63895960D01*
X203370680Y-63897300D01*
X203371430Y-63898660D01*
X203372160Y-63900020D01*
X203372880Y-63901390D01*
X203373580Y-63902770D01*
X203374260Y-63904160D01*
X203374920Y-63905550D01*
X203375570Y-63906960D01*
X203376200Y-63908370D01*
X203376810Y-63909790D01*
X203377410Y-63911220D01*
X203377990Y-63912650D01*
X203378550Y-63914090D01*
X203379090Y-63915540D01*
X203379620Y-63916990D01*
X203380130Y-63918450D01*
X203380620Y-63919920D01*
X203381090Y-63921390D01*
X203381550Y-63922870D01*
X203381980Y-63924350D01*
X203382400Y-63925840D01*
X203382800Y-63927340D01*
X203383180Y-63928840D01*
X203383550Y-63930340D01*
X203383890Y-63931850D01*
X203384220Y-63933360D01*
X203384530Y-63934870D01*
X203384820Y-63936390D01*
X203385090Y-63937910D01*
X203385340Y-63939440D01*
X203385580Y-63940970D01*
X203385790Y-63942500D01*
X203385990Y-63944030D01*
X203386170Y-63945570D01*
X203386330Y-63947110D01*
X203386470Y-63948650D01*
X203386590Y-63950190D01*
X203386690Y-63951730D01*
X203386780Y-63953280D01*
X203386850Y-63954820D01*
X203386890Y-63956370D01*
X203386920Y-63957910D01*
X203386930Y-63959460D01*
X203386920Y-63961010D01*
X203386890Y-63962550D01*
X203386850Y-63964100D01*
X203386780Y-63965640D01*
X203386690Y-63967190D01*
X203386590Y-63968730D01*
X203386470Y-63970270D01*
X203386330Y-63971810D01*
X203386170Y-63973350D01*
X203385990Y-63974890D01*
X203385790Y-63976420D01*
X203385580Y-63977950D01*
X203385340Y-63979480D01*
X203385090Y-63981010D01*
X203384820Y-63982530D01*
X203384530Y-63984050D01*
X203384220Y-63985560D01*
X203383890Y-63987070D01*
X203383550Y-63988580D01*
X203383180Y-63990080D01*
X203382800Y-63991580D01*
X203382400Y-63993080D01*
X203381980Y-63994570D01*
X203381550Y-63996050D01*
X203381090Y-63997530D01*
X203380620Y-63999000D01*
X203380130Y-64000470D01*
X203379620Y-64001930D01*
X203379090Y-64003380D01*
X203378550Y-64004830D01*
X203377990Y-64006270D01*
X203377410Y-64007700D01*
X203376810Y-64009130D01*
X203376200Y-64010550D01*
X203375570Y-64011960D01*
X203374920Y-64013370D01*
X203374260Y-64014760D01*
X203373580Y-64016150D01*
X203372880Y-64017530D01*
X203372160Y-64018900D01*
X203371430Y-64020260D01*
X203370680Y-64021620D01*
X203369920Y-64022960D01*
X203369130Y-64024290D01*
X203368340Y-64025620D01*
X203367520Y-64026930D01*
X203366690Y-64028240D01*
X203365850Y-64029530D01*
X203364990Y-64030820D01*
X203364110Y-64032090D01*
X203363220Y-64033360D01*
X203362310Y-64034610D01*
X203361390Y-64035850D01*
X203360450Y-64037080D01*
X203359500Y-64038300D01*
X203358530Y-64039500D01*
X203357550Y-64040700D01*
X203356550Y-64041880D01*
X203355540Y-64043050D01*
X203354520Y-64044210D01*
X203353480Y-64045350D01*
X203352420Y-64046490D01*
X203351360Y-64047610D01*
X203350280Y-64048710D01*
X203349180Y-64049810D01*
X203348080Y-64050890D01*
X203346960Y-64051950D01*
X203345820Y-64053010D01*
X203344680Y-64054050D01*
X203343520Y-64055070D01*
X203342350Y-64056080D01*
X203341170Y-64057080D01*
X203339970Y-64058060D01*
X203338770Y-64059030D01*
X203337550Y-64059980D01*
X203336320Y-64060920D01*
X203335080Y-64061840D01*
X203333830Y-64062750D01*
X203332560Y-64063640D01*
X203331290Y-64064520D01*
X203330000Y-64065380D01*
X203328710Y-64066220D01*
X203327400Y-64067050D01*
X203326090Y-64067870D01*
X203324760Y-64068660D01*
X203323430Y-64069450D01*
X203322090Y-64070210D01*
X203320730Y-64070960D01*
X203319370Y-64071690D01*
X203318000Y-64072410D01*
X203316620Y-64073110D01*
X203315230Y-64073790D01*
X203313840Y-64074450D01*
X203312430Y-64075100D01*
X203311020Y-64075730D01*
X203309600Y-64076340D01*
X203308170Y-64076940D01*
X203306740Y-64077520D01*
X203305300Y-64078080D01*
X203303850Y-64078620D01*
X203302400Y-64079150D01*
X203300940Y-64079660D01*
X203299470Y-64080150D01*
X203298000Y-64080620D01*
X203296520Y-64081080D01*
X203295040Y-64081510D01*
X203293550Y-64081930D01*
X203292050Y-64082330D01*
X203290550Y-64082710D01*
X203289050Y-64083080D01*
X203287540Y-64083420D01*
X203286030Y-64083750D01*
X203284520Y-64084060D01*
X203283000Y-64084350D01*
X203281480Y-64084620D01*
X203279950Y-64084870D01*
X203278420Y-64085110D01*
X203276890Y-64085320D01*
X203275360Y-64085520D01*
X203273820Y-64085700D01*
X203272280Y-64085860D01*
X203270740Y-64086000D01*
X203269200Y-64086120D01*
X203267660Y-64086220D01*
X203266110Y-64086310D01*
X203264570Y-64086380D01*
X203263020Y-64086420D01*
X203261480Y-64086450D01*
X203259930Y-64086460D01*
X199455570Y-64086460D01*
X199454010Y-64086450D01*
X199452440Y-64086420D01*
X199450880Y-64086370D01*
X199449310Y-64086300D01*
X199447750Y-64086220D01*
X199446190Y-64086110D01*
X199444630Y-64085990D01*
X199443070Y-64085840D01*
X199441520Y-64085680D01*
X199439960Y-64085500D01*
X199438410Y-64085290D01*
X199436860Y-64085070D01*
X199435320Y-64084830D01*
X199433780Y-64084570D01*
X199432240Y-64084300D01*
X199430700Y-64084000D01*
X199429170Y-64083680D01*
X199427640Y-64083350D01*
X199426120Y-64083000D01*
X199424600Y-64082620D01*
X199423080Y-64082230D01*
X199421570Y-64081820D01*
X199420070Y-64081390D01*
X199418570Y-64080950D01*
X199417070Y-64080480D01*
X199415590Y-64080000D01*
X199414100Y-64079500D01*
X199412630Y-64078980D01*
X199411160Y-64078440D01*
X199409700Y-64077880D01*
X199408240Y-64077310D01*
X199406790Y-64076720D01*
X199405350Y-64076110D01*
X199403920Y-64075480D01*
X199402490Y-64074840D01*
X199401080Y-64074170D01*
X199399670Y-64073490D01*
X199398270Y-64072800D01*
X199396880Y-64072080D01*
X199395490Y-64071350D01*
X199394120Y-64070600D01*
X199392760Y-64069840D01*
X199391400Y-64069050D01*
X199390060Y-64068260D01*
X199388720Y-64067440D01*
X199388720Y-63851480D01*
X199390050Y-63850660D01*
X199391400Y-63849860D01*
X199392750Y-63849080D01*
X199394120Y-63848320D01*
X199395490Y-63847570D01*
X199396880Y-63846840D01*
X199398270Y-63846120D01*
X199399670Y-63845430D01*
X199401080Y-63844750D01*
X199402490Y-63844080D01*
X199403920Y-63843440D01*
X199405350Y-63842810D01*
X199406790Y-63842200D01*
X199408240Y-63841610D01*
X199409700Y-63841030D01*
X199411160Y-63840480D01*
X199412630Y-63839940D01*
X199414100Y-63839420D01*
X199415590Y-63838920D01*
X199417070Y-63838440D01*
X199418570Y-63837970D01*
X199420070Y-63837520D01*
X199421570Y-63837100D01*
X199423080Y-63836690D01*
X199424600Y-63836300D01*
X199426120Y-63835920D01*
X199427640Y-63835570D01*
X199429170Y-63835230D01*
X199430700Y-63834920D01*
X199432240Y-63834620D01*
X199433780Y-63834340D01*
X199435320Y-63834090D01*
X199436860Y-63833850D01*
X199438410Y-63833620D01*
X199439960Y-63833420D01*
X199441520Y-63833240D01*
X199443070Y-63833080D01*
X199444630Y-63832930D01*
X199446190Y-63832810D01*
X199447750Y-63832700D01*
X199449310Y-63832610D01*
X199450880Y-63832550D01*
X199452440Y-63832500D01*
X199454010Y-63832470D01*
X199455570Y-63832460D01*
X203259930Y-63832460D01*
X203261480Y-63832470D01*
G37*
G36*
X203134450Y-55704470D02*
G01*
X203135980Y-55704500D01*
X203137500Y-55704540D01*
X203139020Y-55704610D01*
X203140540Y-55704690D01*
X203142060Y-55704790D01*
X203143580Y-55704910D01*
X203145090Y-55705040D01*
X203146610Y-55705200D01*
X203148120Y-55705370D01*
X203149630Y-55705560D01*
X203151140Y-55705770D01*
X203152650Y-55706000D01*
X203154150Y-55706250D01*
X203155650Y-55706510D01*
X203157150Y-55706790D01*
X203158640Y-55707090D01*
X203160130Y-55707410D01*
X203161610Y-55707740D01*
X203163100Y-55708090D01*
X203164570Y-55708470D01*
X203166050Y-55708850D01*
X203167510Y-55709260D01*
X203168980Y-55709680D01*
X203170430Y-55710120D01*
X203171890Y-55710580D01*
X203173330Y-55711060D01*
X203174770Y-55711550D01*
X203176210Y-55712060D01*
X203177640Y-55712590D01*
X203179060Y-55713130D01*
X203180470Y-55713690D01*
X203181880Y-55714270D01*
X203183280Y-55714870D01*
X203184680Y-55715480D01*
X203186070Y-55716110D01*
X203187440Y-55716760D01*
X203188820Y-55717420D01*
X203190180Y-55718100D01*
X203191530Y-55718790D01*
X203192880Y-55719500D01*
X203194220Y-55720230D01*
X203195550Y-55720970D01*
X203196870Y-55721730D01*
X203198180Y-55722500D01*
X203199480Y-55723290D01*
X203200770Y-55724100D01*
X203202060Y-55724920D01*
X203203330Y-55725760D01*
X203204590Y-55726610D01*
X203205840Y-55727480D01*
X203207090Y-55728360D01*
X203208320Y-55729250D01*
X203209540Y-55730170D01*
X203210750Y-55731090D01*
X203211940Y-55732030D01*
X203213130Y-55732990D01*
X203214300Y-55733960D01*
X203215470Y-55734940D01*
X203216620Y-55735930D01*
X203217760Y-55736940D01*
X203218890Y-55737970D01*
X203220000Y-55739010D01*
X203221100Y-55740060D01*
X203222190Y-55741120D01*
X203223270Y-55742200D01*
X203224330Y-55743290D01*
X203225380Y-55744390D01*
X203226420Y-55745500D01*
X203227450Y-55746630D01*
X203228460Y-55747770D01*
X203229450Y-55748920D01*
X203230430Y-55750090D01*
X203231400Y-55751260D01*
X203232360Y-55752450D01*
X203233300Y-55753640D01*
X203234220Y-55754850D01*
X203235140Y-55756070D01*
X203236030Y-55757300D01*
X203236910Y-55758550D01*
X203237780Y-55759800D01*
X203238630Y-55761060D01*
X203239470Y-55762330D01*
X203240290Y-55763620D01*
X203241100Y-55764910D01*
X203241890Y-55766210D01*
X203242660Y-55767520D01*
X203243420Y-55768840D01*
X203244160Y-55770170D01*
X203244890Y-55771510D01*
X203245600Y-55772860D01*
X203246290Y-55774210D01*
X203246970Y-55775570D01*
X203247630Y-55776950D01*
X203248280Y-55778320D01*
X203248910Y-55779710D01*
X203249520Y-55781110D01*
X203250120Y-55782510D01*
X203250700Y-55783920D01*
X203251260Y-55785330D01*
X203251800Y-55786750D01*
X203252330Y-55788180D01*
X203252840Y-55789620D01*
X203253330Y-55791060D01*
X203253810Y-55792500D01*
X203254270Y-55793960D01*
X203254710Y-55795410D01*
X203255130Y-55796880D01*
X203255540Y-55798340D01*
X203255920Y-55799820D01*
X203256300Y-55801290D01*
X203256650Y-55802780D01*
X203256980Y-55804260D01*
X203257300Y-55805750D01*
X203257600Y-55807240D01*
X203257880Y-55808740D01*
X203258140Y-55810240D01*
X203258390Y-55811740D01*
X203258620Y-55813250D01*
X203258830Y-55814760D01*
X203259020Y-55816270D01*
X203259190Y-55817780D01*
X203259350Y-55819300D01*
X203259480Y-55820810D01*
X203259600Y-55822330D01*
X203259700Y-55823850D01*
X203259780Y-55825370D01*
X203259850Y-55826890D01*
X203259890Y-55828410D01*
X203259920Y-55829940D01*
X203259930Y-55831460D01*
X203259920Y-55832980D01*
X203259890Y-55834510D01*
X203259850Y-55836030D01*
X203259780Y-55837550D01*
X203259700Y-55839070D01*
X203259600Y-55840590D01*
X203259480Y-55842110D01*
X203259350Y-55843620D01*
X203259190Y-55845140D01*
X203259020Y-55846650D01*
X203258830Y-55848160D01*
X203258620Y-55849670D01*
X203258390Y-55851180D01*
X203258140Y-55852680D01*
X203257880Y-55854180D01*
X203257600Y-55855680D01*
X203257300Y-55857170D01*
X203256980Y-55858660D01*
X203256650Y-55860140D01*
X203256300Y-55861630D01*
X203255920Y-55863100D01*
X203255540Y-55864580D01*
X203255130Y-55866040D01*
X203254710Y-55867510D01*
X203254270Y-55868960D01*
X203253810Y-55870420D01*
X203253330Y-55871860D01*
X203252840Y-55873300D01*
X203252330Y-55874740D01*
X203251800Y-55876170D01*
X203251260Y-55877590D01*
X203250700Y-55879000D01*
X203250120Y-55880410D01*
X203249520Y-55881810D01*
X203248910Y-55883210D01*
X203248280Y-55884600D01*
X203247630Y-55885970D01*
X203246970Y-55887350D01*
X203246290Y-55888710D01*
X203245600Y-55890060D01*
X203244890Y-55891410D01*
X203244160Y-55892750D01*
X203243420Y-55894080D01*
X203242660Y-55895400D01*
X203241890Y-55896710D01*
X203241100Y-55898010D01*
X203240290Y-55899300D01*
X203239470Y-55900590D01*
X203238630Y-55901860D01*
X203237780Y-55903120D01*
X203236910Y-55904370D01*
X203236030Y-55905620D01*
X203235140Y-55906850D01*
X203234220Y-55908070D01*
X203233300Y-55909280D01*
X203232360Y-55910470D01*
X203231400Y-55911660D01*
X203230430Y-55912830D01*
X203229450Y-55914000D01*
X203228460Y-55915150D01*
X203227450Y-55916290D01*
X203226420Y-55917420D01*
X203225380Y-55918530D01*
X203224330Y-55919630D01*
X203223270Y-55920720D01*
X203222190Y-55921800D01*
X203221100Y-55922860D01*
X203220000Y-55923910D01*
X203218890Y-55924950D01*
X203217760Y-55925980D01*
X203216620Y-55926990D01*
X203215470Y-55927980D01*
X203214300Y-55928960D01*
X203213130Y-55929930D01*
X203211940Y-55930890D01*
X203210750Y-55931830D01*
X203209540Y-55932750D01*
X203208320Y-55933670D01*
X203207090Y-55934560D01*
X203205840Y-55935440D01*
X203204590Y-55936310D01*
X203203330Y-55937160D01*
X203202060Y-55938000D01*
X203200770Y-55938820D01*
X203199480Y-55939630D01*
X203198180Y-55940420D01*
X203196870Y-55941190D01*
X203195550Y-55941950D01*
X203194220Y-55942690D01*
X203192880Y-55943420D01*
X203191530Y-55944130D01*
X203190180Y-55944820D01*
X203188820Y-55945500D01*
X203187440Y-55946160D01*
X203186070Y-55946810D01*
X203184680Y-55947440D01*
X203183280Y-55948050D01*
X203181880Y-55948650D01*
X203180470Y-55949230D01*
X203179060Y-55949790D01*
X203177640Y-55950330D01*
X203176210Y-55950860D01*
X203174770Y-55951370D01*
X203173330Y-55951860D01*
X203171890Y-55952340D01*
X203170430Y-55952800D01*
X203168980Y-55953240D01*
X203167510Y-55953660D01*
X203166050Y-55954070D01*
X203164570Y-55954450D01*
X203163100Y-55954830D01*
X203161610Y-55955180D01*
X203160130Y-55955510D01*
X203158640Y-55955830D01*
X203157150Y-55956130D01*
X203155650Y-55956410D01*
X203154150Y-55956670D01*
X203152650Y-55956920D01*
X203151140Y-55957150D01*
X203149630Y-55957360D01*
X203148120Y-55957550D01*
X203146610Y-55957720D01*
X203145090Y-55957880D01*
X203143580Y-55958010D01*
X203142060Y-55958130D01*
X203140540Y-55958230D01*
X203139020Y-55958310D01*
X203137500Y-55958380D01*
X203135980Y-55958420D01*
X203134450Y-55958450D01*
X203132930Y-55958460D01*
X199755570Y-55958460D01*
X199755570Y-55958450D01*
X199754040Y-55958440D01*
X199752510Y-55958410D01*
X199750980Y-55958370D01*
X199749450Y-55958300D01*
X199747920Y-55958220D01*
X199746390Y-55958120D01*
X199744860Y-55958000D01*
X199743340Y-55957860D01*
X199741820Y-55957700D01*
X199740290Y-55957530D01*
X199738780Y-55957330D01*
X199737260Y-55957120D01*
X199735750Y-55956890D01*
X199734230Y-55956640D01*
X199732730Y-55956380D01*
X199731220Y-55956090D01*
X199729720Y-55955790D01*
X199728220Y-55955470D01*
X199726730Y-55955130D01*
X199725240Y-55954770D01*
X199723760Y-55954400D01*
X199722280Y-55954010D01*
X199720800Y-55953600D01*
X199719330Y-55953170D01*
X199717870Y-55952720D01*
X199716410Y-55952260D01*
X199714950Y-55951780D01*
X199713510Y-55951280D01*
X199712060Y-55950760D01*
X199710630Y-55950230D01*
X199709200Y-55949680D01*
X199707780Y-55949110D01*
X199706360Y-55948530D01*
X199704950Y-55947930D01*
X199703550Y-55947310D01*
X199702160Y-55946670D01*
X199700780Y-55946020D01*
X199699400Y-55945350D01*
X199698030Y-55944660D01*
X199696670Y-55943960D01*
X199695320Y-55943240D01*
X199693970Y-55942510D01*
X199692640Y-55941760D01*
X199691310Y-55940990D01*
X199690000Y-55940210D01*
X199688690Y-55939410D01*
X199688690Y-55723480D01*
X199688700Y-55723490D01*
X199690000Y-55722690D01*
X199691320Y-55721910D01*
X199692650Y-55721140D01*
X199693980Y-55720390D01*
X199695320Y-55719660D01*
X199696680Y-55718940D01*
X199698040Y-55718240D01*
X199699400Y-55717550D01*
X199700780Y-55716890D01*
X199702170Y-55716230D01*
X199703560Y-55715600D01*
X199704960Y-55714980D01*
X199706370Y-55714380D01*
X199707780Y-55713790D01*
X199709210Y-55713230D01*
X199710630Y-55712680D01*
X199712070Y-55712140D01*
X199713510Y-55711630D01*
X199714960Y-55711130D01*
X199716410Y-55710650D01*
X199717870Y-55710180D01*
X199719340Y-55709740D01*
X199720810Y-55709310D01*
X199722280Y-55708900D01*
X199723760Y-55708510D01*
X199725250Y-55708130D01*
X199726730Y-55707780D01*
X199728230Y-55707440D01*
X199729720Y-55707120D01*
X199731230Y-55706820D01*
X199732730Y-55706530D01*
X199734240Y-55706260D01*
X199735750Y-55706020D01*
X199737260Y-55705790D01*
X199738780Y-55705580D01*
X199740300Y-55705380D01*
X199741820Y-55705210D01*
X199743340Y-55705050D01*
X199744870Y-55704910D01*
X199746390Y-55704790D01*
X199747920Y-55704690D01*
X199749450Y-55704610D01*
X199750980Y-55704540D01*
X199752510Y-55704500D01*
X199754040Y-55704470D01*
X199755570Y-55704460D01*
X203132930Y-55704460D01*
X203134450Y-55704470D01*
G37*
G36*
X135942520Y-55704470D02*
G01*
X135944160Y-55704480D01*
X135945790Y-55704510D01*
X135947430Y-55704570D01*
X135949060Y-55704640D01*
X135950690Y-55704730D01*
X135952330Y-55704850D01*
X135953960Y-55704990D01*
X135955580Y-55705140D01*
X135957210Y-55705320D01*
X135958830Y-55705520D01*
X135960450Y-55705740D01*
X135962070Y-55705990D01*
X135963690Y-55706250D01*
X135965300Y-55706530D01*
X135966910Y-55706830D01*
X135968510Y-55707160D01*
X135970110Y-55707500D01*
X135971700Y-55707870D01*
X135973290Y-55708260D01*
X135974880Y-55708660D01*
X135976460Y-55709090D01*
X135978030Y-55709540D01*
X135979600Y-55710000D01*
X135981160Y-55710490D01*
X135982710Y-55711000D01*
X135984260Y-55711530D01*
X135985800Y-55712070D01*
X135987340Y-55712640D01*
X135988860Y-55713230D01*
X135990380Y-55713840D01*
X135991890Y-55714460D01*
X135993400Y-55715110D01*
X135994890Y-55715770D01*
X135996380Y-55716460D01*
X135997860Y-55717160D01*
X135999320Y-55717880D01*
X136000780Y-55718620D01*
X136002230Y-55719380D01*
X136003670Y-55720160D01*
X136005100Y-55720960D01*
X136006520Y-55721780D01*
X136007920Y-55722610D01*
X136009320Y-55723460D01*
X136009320Y-55939460D01*
X136009330Y-55939470D01*
X136007930Y-55940320D01*
X136006520Y-55941160D01*
X136005100Y-55941970D01*
X136003680Y-55942770D01*
X136002240Y-55943550D01*
X136000790Y-55944310D01*
X135999330Y-55945050D01*
X135997860Y-55945770D01*
X135996380Y-55946470D01*
X135994900Y-55947160D01*
X135993400Y-55947820D01*
X135991900Y-55948470D01*
X135990390Y-55949100D01*
X135988870Y-55949700D01*
X135987340Y-55950290D01*
X135985810Y-55950860D01*
X135984270Y-55951400D01*
X135982720Y-55951930D01*
X135981160Y-55952440D01*
X135979600Y-55952930D01*
X135978030Y-55953390D01*
X135976460Y-55953840D01*
X135974880Y-55954270D01*
X135973300Y-55954680D01*
X135971710Y-55955060D01*
X135970110Y-55955430D01*
X135968510Y-55955770D01*
X135966910Y-55956100D01*
X135965300Y-55956400D01*
X135963690Y-55956680D01*
X135962070Y-55956950D01*
X135960460Y-55957190D01*
X135958840Y-55957410D01*
X135957210Y-55957610D01*
X135955590Y-55957790D01*
X135953960Y-55957940D01*
X135952330Y-55958080D01*
X135950690Y-55958200D01*
X135949060Y-55958290D01*
X135947430Y-55958370D01*
X135945790Y-55958420D01*
X135944160Y-55958450D01*
X135942520Y-55958460D01*
X135327180Y-55958460D01*
X135327170Y-55958460D01*
X135327160Y-55958460D01*
X135327150Y-55958460D01*
X135327140Y-55958460D01*
X135327130Y-55958470D01*
X135327120Y-55958470D01*
X135327110Y-55958470D01*
X135327100Y-55958470D01*
X135327100Y-55958480D01*
X135327090Y-55958480D01*
X135327080Y-55958490D01*
X135327070Y-55958490D01*
X135327070Y-55958500D01*
X135327060Y-55958500D01*
X135327050Y-55958510D01*
X135327040Y-55958510D01*
X135327040Y-55958520D01*
X135327030Y-55958520D01*
X135327030Y-55958530D01*
X135327020Y-55958540D01*
X135327020Y-55958550D01*
X135327010Y-55958550D01*
X135327010Y-55958560D01*
X135327000Y-55958570D01*
X135327000Y-55958580D01*
X135326990Y-55958580D01*
X135326990Y-55958590D01*
X135326990Y-55958600D01*
X135326990Y-55958610D01*
X135326980Y-55958620D01*
X135326980Y-55958630D01*
X135326980Y-55958640D01*
X135326980Y-55958650D01*
X135326980Y-55958660D01*
X135326970Y-55958660D01*
X135326420Y-63832260D01*
X135326420Y-63832270D01*
X135326420Y-63832280D01*
X135326420Y-63832290D01*
X135326420Y-63832300D01*
X135326430Y-63832300D01*
X135326430Y-63832310D01*
X135326430Y-63832320D01*
X135326430Y-63832330D01*
X135326440Y-63832340D01*
X135326440Y-63832350D01*
X135326440Y-63832360D01*
X135326450Y-63832360D01*
X135326450Y-63832370D01*
X135326460Y-63832370D01*
X135326460Y-63832380D01*
X135326470Y-63832390D01*
X135326470Y-63832400D01*
X135326480Y-63832400D01*
X135326480Y-63832410D01*
X135326490Y-63832410D01*
X135326500Y-63832420D01*
X135326510Y-63832420D01*
X135326510Y-63832430D01*
X135326520Y-63832430D01*
X135326520Y-63832440D01*
X135326530Y-63832440D01*
X135326540Y-63832440D01*
X135326550Y-63832450D01*
X135326560Y-63832450D01*
X135326570Y-63832450D01*
X135326580Y-63832450D01*
X135326580Y-63832460D01*
X135326590Y-63832460D01*
X135326600Y-63832460D01*
X135326610Y-63832460D01*
X135326620Y-63832460D01*
X135642520Y-63832460D01*
X135644200Y-63832470D01*
X135645870Y-63832500D01*
X135647550Y-63832550D01*
X135649220Y-63832630D01*
X135650890Y-63832730D01*
X135652560Y-63832850D01*
X135654230Y-63833000D01*
X135655900Y-63833160D01*
X135657570Y-63833350D01*
X135659230Y-63833560D01*
X135660890Y-63833790D01*
X135662540Y-63834040D01*
X135664200Y-63834320D01*
X135665850Y-63834620D01*
X135667490Y-63834930D01*
X135669130Y-63835270D01*
X135670770Y-63835640D01*
X135672400Y-63836020D01*
X135674020Y-63836420D01*
X135675650Y-63836850D01*
X135677260Y-63837300D01*
X135678870Y-63837770D01*
X135680470Y-63838260D01*
X135682070Y-63838770D01*
X135683660Y-63839300D01*
X135685240Y-63839850D01*
X135686810Y-63840430D01*
X135688380Y-63841020D01*
X135689940Y-63841640D01*
X135691490Y-63842270D01*
X135693030Y-63842930D01*
X135694560Y-63843610D01*
X135696090Y-63844300D01*
X135697600Y-63845020D01*
X135699110Y-63845760D01*
X135700600Y-63846510D01*
X135702090Y-63847290D01*
X135703560Y-63848090D01*
X135705020Y-63848900D01*
X135706480Y-63849730D01*
X135707920Y-63850590D01*
X135709350Y-63851460D01*
X135709350Y-64067460D01*
X135707920Y-64068330D01*
X135706470Y-64069180D01*
X135705020Y-64070020D01*
X135703560Y-64070830D01*
X135702080Y-64071630D01*
X135700600Y-64072400D01*
X135699100Y-64073160D01*
X135697600Y-64073900D01*
X135696080Y-64074610D01*
X135694560Y-64075310D01*
X135693030Y-64075990D01*
X135691480Y-64076640D01*
X135689930Y-64077280D01*
X135688380Y-64077890D01*
X135686810Y-64078490D01*
X135685240Y-64079060D01*
X135683650Y-64079610D01*
X135682070Y-64080150D01*
X135680470Y-64080660D01*
X135678870Y-64081150D01*
X135677260Y-64081620D01*
X135675640Y-64082060D01*
X135674020Y-64082490D01*
X135672400Y-64082900D01*
X135670770Y-64083280D01*
X135669130Y-64083640D01*
X135667490Y-64083980D01*
X135665840Y-64084300D01*
X135664200Y-64084600D01*
X135662540Y-64084870D01*
X135660890Y-64085120D01*
X135659230Y-64085360D01*
X135657560Y-64085570D01*
X135655900Y-64085750D01*
X135654230Y-64085920D01*
X135652560Y-64086060D01*
X135650890Y-64086180D01*
X135649220Y-64086280D01*
X135647550Y-64086360D01*
X135645870Y-64086420D01*
X135644200Y-64086450D01*
X135642520Y-64086460D01*
X135326590Y-64086460D01*
X135326580Y-64086460D01*
X135326570Y-64086460D01*
X135326560Y-64086460D01*
X135326550Y-64086460D01*
X135326550Y-64086470D01*
X135326540Y-64086470D01*
X135326530Y-64086470D01*
X135326520Y-64086470D01*
X135326510Y-64086480D01*
X135326500Y-64086480D01*
X135326490Y-64086480D01*
X135326490Y-64086490D01*
X135326480Y-64086490D01*
X135326480Y-64086500D01*
X135326470Y-64086500D01*
X135326460Y-64086510D01*
X135326450Y-64086510D01*
X135326450Y-64086520D01*
X135326440Y-64086520D01*
X135326440Y-64086530D01*
X135326430Y-64086540D01*
X135326430Y-64086550D01*
X135326420Y-64086550D01*
X135326420Y-64086560D01*
X135326410Y-64086560D01*
X135326410Y-64086570D01*
X135326410Y-64086580D01*
X135326400Y-64086590D01*
X135326400Y-64086600D01*
X135326400Y-64086610D01*
X135326400Y-64086620D01*
X135326390Y-64086620D01*
X135326390Y-64086630D01*
X135326390Y-64086640D01*
X135326390Y-64086650D01*
X135326390Y-64086660D01*
X135326010Y-69395370D01*
X135326000Y-69397060D01*
X135325960Y-69398750D01*
X135325910Y-69400440D01*
X135325830Y-69402130D01*
X135325730Y-69403820D01*
X135325610Y-69405500D01*
X135325460Y-69407190D01*
X135325290Y-69408870D01*
X135325100Y-69410550D01*
X135324890Y-69412230D01*
X135324650Y-69413900D01*
X135324390Y-69415570D01*
X135324110Y-69417240D01*
X135323810Y-69418900D01*
X135323490Y-69420560D01*
X135323140Y-69422220D01*
X135322770Y-69423870D01*
X135322380Y-69425510D01*
X135321970Y-69427150D01*
X135321540Y-69428780D01*
X135321080Y-69430410D01*
X135320600Y-69432030D01*
X135320100Y-69433650D01*
X135319580Y-69435260D01*
X135319040Y-69436860D01*
X135318480Y-69438450D01*
X135317890Y-69440040D01*
X135317290Y-69441620D01*
X135316660Y-69443190D01*
X135316020Y-69444750D01*
X135315350Y-69446300D01*
X135314660Y-69447850D01*
X135313950Y-69449380D01*
X135313220Y-69450910D01*
X135312470Y-69452420D01*
X135311700Y-69453930D01*
X135310910Y-69455420D01*
X135310100Y-69456910D01*
X135309280Y-69458380D01*
X135308430Y-69459840D01*
X135307560Y-69461290D01*
X135306670Y-69462730D01*
X135305770Y-69464160D01*
X135304840Y-69465580D01*
X135303900Y-69466980D01*
X135302930Y-69468370D01*
X135301950Y-69469740D01*
X135300950Y-69471110D01*
X135299940Y-69472460D01*
X135298900Y-69473800D01*
X135297850Y-69475120D01*
X135296780Y-69476430D01*
X135295690Y-69477720D01*
X135294590Y-69479000D01*
X135293460Y-69480270D01*
X135292330Y-69481520D01*
X135291170Y-69482750D01*
X135290000Y-69483970D01*
X135288810Y-69485170D01*
X135287610Y-69486360D01*
X135286390Y-69487530D01*
X135285160Y-69488690D01*
X135283910Y-69489820D01*
X135282640Y-69490950D01*
X135281360Y-69492050D01*
X135280070Y-69493140D01*
X135278760Y-69494210D01*
X135277440Y-69495260D01*
X135276100Y-69496300D01*
X135274750Y-69497310D01*
X135273380Y-69498310D01*
X135272010Y-69499290D01*
X135270620Y-69500260D01*
X135269220Y-69501200D01*
X135267800Y-69502130D01*
X135266370Y-69503030D01*
X135264930Y-69503920D01*
X135263480Y-69504790D01*
X135262020Y-69505640D01*
X135260550Y-69506460D01*
X135259060Y-69507270D01*
X135257570Y-69508060D01*
X135256060Y-69508830D01*
X135254550Y-69509580D01*
X135253020Y-69510310D01*
X135251490Y-69511020D01*
X135249940Y-69511710D01*
X135248390Y-69512380D01*
X135246830Y-69513020D01*
X135245260Y-69513650D01*
X135243680Y-69514250D01*
X135242090Y-69514840D01*
X135240500Y-69515400D01*
X135238900Y-69515940D01*
X135237290Y-69516460D01*
X135235670Y-69516960D01*
X135234050Y-69517440D01*
X135232420Y-69517900D01*
X135230790Y-69518330D01*
X135229150Y-69518740D01*
X135227510Y-69519130D01*
X135225860Y-69519500D01*
X135224200Y-69519850D01*
X135222540Y-69520170D01*
X135220880Y-69520470D01*
X135219210Y-69520750D01*
X135217540Y-69521010D01*
X135215870Y-69521250D01*
X135214190Y-69521460D01*
X135212510Y-69521650D01*
X135210830Y-69521820D01*
X135209140Y-69521970D01*
X135207460Y-69522090D01*
X135205770Y-69522190D01*
X135204080Y-69522270D01*
X135202390Y-69522320D01*
X135200700Y-69522360D01*
X135199010Y-69522370D01*
X135197320Y-69522360D01*
X135195630Y-69522320D01*
X135193940Y-69522270D01*
X135192250Y-69522190D01*
X135190560Y-69522090D01*
X135188880Y-69521970D01*
X135187190Y-69521820D01*
X135185510Y-69521650D01*
X135183830Y-69521460D01*
X135182150Y-69521250D01*
X135180480Y-69521010D01*
X135178810Y-69520750D01*
X135177140Y-69520470D01*
X135175480Y-69520170D01*
X135173820Y-69519850D01*
X135172160Y-69519500D01*
X135170510Y-69519130D01*
X135168870Y-69518740D01*
X135167230Y-69518330D01*
X135165600Y-69517900D01*
X135163970Y-69517440D01*
X135162350Y-69516960D01*
X135160730Y-69516460D01*
X135159120Y-69515940D01*
X135157520Y-69515400D01*
X135155930Y-69514840D01*
X135154340Y-69514250D01*
X135152760Y-69513650D01*
X135151190Y-69513020D01*
X135149630Y-69512380D01*
X135148080Y-69511710D01*
X135146530Y-69511020D01*
X135145000Y-69510310D01*
X135143470Y-69509580D01*
X135141960Y-69508830D01*
X135140450Y-69508060D01*
X135138960Y-69507270D01*
X135137470Y-69506460D01*
X135136000Y-69505640D01*
X135134540Y-69504790D01*
X135133090Y-69503920D01*
X135131650Y-69503030D01*
X135130220Y-69502130D01*
X135128800Y-69501200D01*
X135127400Y-69500260D01*
X135126010Y-69499290D01*
X135124640Y-69498310D01*
X135123270Y-69497310D01*
X135121920Y-69496300D01*
X135120580Y-69495260D01*
X135119260Y-69494210D01*
X135117950Y-69493140D01*
X135116660Y-69492050D01*
X135115380Y-69490950D01*
X135114110Y-69489820D01*
X135112860Y-69488690D01*
X135111630Y-69487530D01*
X135110410Y-69486360D01*
X135109210Y-69485170D01*
X135108020Y-69483970D01*
X135106850Y-69482750D01*
X135105690Y-69481520D01*
X135104560Y-69480270D01*
X135103430Y-69479000D01*
X135102330Y-69477720D01*
X135101240Y-69476430D01*
X135100170Y-69475120D01*
X135099120Y-69473800D01*
X135098080Y-69472460D01*
X135097070Y-69471110D01*
X135096070Y-69469740D01*
X135095090Y-69468370D01*
X135094120Y-69466980D01*
X135093180Y-69465580D01*
X135092250Y-69464160D01*
X135091350Y-69462730D01*
X135090460Y-69461290D01*
X135089590Y-69459840D01*
X135088740Y-69458380D01*
X135087920Y-69456910D01*
X135087110Y-69455420D01*
X135086320Y-69453930D01*
X135085550Y-69452420D01*
X135084800Y-69450910D01*
X135084070Y-69449380D01*
X135083360Y-69447850D01*
X135082670Y-69446300D01*
X135082000Y-69444750D01*
X135081360Y-69443190D01*
X135080730Y-69441620D01*
X135080130Y-69440040D01*
X135079540Y-69438450D01*
X135078980Y-69436860D01*
X135078440Y-69435260D01*
X135077920Y-69433650D01*
X135077420Y-69432030D01*
X135076940Y-69430410D01*
X135076480Y-69428780D01*
X135076050Y-69427150D01*
X135075640Y-69425510D01*
X135075250Y-69423870D01*
X135074880Y-69422220D01*
X135074530Y-69420560D01*
X135074210Y-69418900D01*
X135073910Y-69417240D01*
X135073630Y-69415570D01*
X135073370Y-69413900D01*
X135073130Y-69412230D01*
X135072920Y-69410550D01*
X135072730Y-69408870D01*
X135072560Y-69407190D01*
X135072410Y-69405500D01*
X135072290Y-69403820D01*
X135072190Y-69402130D01*
X135072110Y-69400440D01*
X135072060Y-69398750D01*
X135072020Y-69397060D01*
X135072010Y-69395370D01*
X135072390Y-64086660D01*
X135072390Y-64086650D01*
X135072390Y-64086640D01*
X135072390Y-64086630D01*
X135072390Y-64086620D01*
X135072380Y-64086620D01*
X135072380Y-64086610D01*
X135072380Y-64086600D01*
X135072380Y-64086590D01*
X135072370Y-64086580D01*
X135072370Y-64086570D01*
X135072370Y-64086560D01*
X135072360Y-64086560D01*
X135072360Y-64086550D01*
X135072350Y-64086550D01*
X135072350Y-64086540D01*
X135072340Y-64086530D01*
X135072340Y-64086520D01*
X135072330Y-64086520D01*
X135072330Y-64086510D01*
X135072320Y-64086510D01*
X135072310Y-64086500D01*
X135072300Y-64086500D01*
X135072300Y-64086490D01*
X135072290Y-64086490D01*
X135072290Y-64086480D01*
X135072280Y-64086480D01*
X135072270Y-64086480D01*
X135072260Y-64086470D01*
X135072250Y-64086470D01*
X135072240Y-64086470D01*
X135072230Y-64086470D01*
X135072230Y-64086460D01*
X135072220Y-64086460D01*
X135072210Y-64086460D01*
X135072200Y-64086460D01*
X135072190Y-64086460D01*
X132266930Y-64086460D01*
X132265240Y-64086450D01*
X132263550Y-64086410D01*
X132261860Y-64086360D01*
X132260170Y-64086280D01*
X132258480Y-64086180D01*
X132256800Y-64086060D01*
X132255110Y-64085910D01*
X132253430Y-64085740D01*
X132251750Y-64085550D01*
X132250070Y-64085340D01*
X132248400Y-64085100D01*
X132246730Y-64084840D01*
X132245060Y-64084560D01*
X132243400Y-64084260D01*
X132241740Y-64083940D01*
X132240080Y-64083590D01*
X132238430Y-64083220D01*
X132236790Y-64082830D01*
X132235150Y-64082420D01*
X132233520Y-64081990D01*
X132231890Y-64081530D01*
X132230270Y-64081050D01*
X132228650Y-64080550D01*
X132227040Y-64080030D01*
X132225440Y-64079490D01*
X132223850Y-64078930D01*
X132222260Y-64078340D01*
X132220680Y-64077740D01*
X132219110Y-64077110D01*
X132217550Y-64076470D01*
X132216000Y-64075800D01*
X132214450Y-64075110D01*
X132212920Y-64074400D01*
X132211390Y-64073670D01*
X132209880Y-64072920D01*
X132208370Y-64072150D01*
X132206880Y-64071360D01*
X132205390Y-64070550D01*
X132203920Y-64069730D01*
X132202460Y-64068880D01*
X132201010Y-64068010D01*
X132199570Y-64067120D01*
X132198140Y-64066220D01*
X132196720Y-64065290D01*
X132195320Y-64064350D01*
X132193930Y-64063380D01*
X132192560Y-64062400D01*
X132191190Y-64061400D01*
X132189840Y-64060390D01*
X132188500Y-64059350D01*
X132187180Y-64058300D01*
X132185870Y-64057230D01*
X132184580Y-64056140D01*
X132183300Y-64055040D01*
X132182030Y-64053910D01*
X132180780Y-64052780D01*
X132179550Y-64051620D01*
X132178330Y-64050450D01*
X132177130Y-64049260D01*
X132175940Y-64048060D01*
X132174770Y-64046840D01*
X132173610Y-64045610D01*
X132172480Y-64044360D01*
X132171350Y-64043090D01*
X132170250Y-64041810D01*
X132169160Y-64040520D01*
X132168090Y-64039210D01*
X132167040Y-64037890D01*
X132166000Y-64036550D01*
X132164990Y-64035200D01*
X132163990Y-64033830D01*
X132163010Y-64032460D01*
X132162040Y-64031070D01*
X132161100Y-64029670D01*
X132160170Y-64028250D01*
X132159270Y-64026820D01*
X132158380Y-64025380D01*
X132157510Y-64023930D01*
X132156660Y-64022470D01*
X132155840Y-64021000D01*
X132155030Y-64019510D01*
X132154240Y-64018020D01*
X132153470Y-64016510D01*
X132152720Y-64015000D01*
X132151990Y-64013470D01*
X132151280Y-64011940D01*
X132150590Y-64010390D01*
X132149920Y-64008840D01*
X132149280Y-64007280D01*
X132148650Y-64005710D01*
X132148050Y-64004130D01*
X132147460Y-64002540D01*
X132146900Y-64000950D01*
X132146360Y-63999350D01*
X132145840Y-63997740D01*
X132145340Y-63996120D01*
X132144860Y-63994500D01*
X132144400Y-63992870D01*
X132143970Y-63991240D01*
X132143560Y-63989600D01*
X132143170Y-63987960D01*
X132142800Y-63986310D01*
X132142450Y-63984650D01*
X132142130Y-63982990D01*
X132141830Y-63981330D01*
X132141550Y-63979660D01*
X132141290Y-63977990D01*
X132141050Y-63976320D01*
X132140840Y-63974640D01*
X132140650Y-63972960D01*
X132140480Y-63971280D01*
X132140330Y-63969590D01*
X132140210Y-63967910D01*
X132140110Y-63966220D01*
X132140030Y-63964530D01*
X132139980Y-63962840D01*
X132139940Y-63961150D01*
X132139930Y-63959460D01*
X132139940Y-63957770D01*
X132139980Y-63956080D01*
X132140030Y-63954390D01*
X132140110Y-63952700D01*
X132140210Y-63951010D01*
X132140330Y-63949330D01*
X132140480Y-63947640D01*
X132140650Y-63945960D01*
X132140840Y-63944280D01*
X132141050Y-63942600D01*
X132141290Y-63940930D01*
X132141550Y-63939260D01*
X132141830Y-63937590D01*
X132142130Y-63935930D01*
X132142450Y-63934270D01*
X132142800Y-63932610D01*
X132143170Y-63930960D01*
X132143560Y-63929320D01*
X132143970Y-63927680D01*
X132144400Y-63926050D01*
X132144860Y-63924420D01*
X132145340Y-63922800D01*
X132145840Y-63921180D01*
X132146360Y-63919570D01*
X132146900Y-63917970D01*
X132147460Y-63916380D01*
X132148050Y-63914790D01*
X132148650Y-63913210D01*
X132149280Y-63911640D01*
X132149920Y-63910080D01*
X132150590Y-63908530D01*
X132151280Y-63906980D01*
X132151990Y-63905450D01*
X132152720Y-63903920D01*
X132153470Y-63902410D01*
X132154240Y-63900900D01*
X132155030Y-63899410D01*
X132155840Y-63897920D01*
X132156660Y-63896450D01*
X132157510Y-63894990D01*
X132158380Y-63893540D01*
X132159270Y-63892100D01*
X132160170Y-63890670D01*
X132161100Y-63889250D01*
X132162040Y-63887850D01*
X132163010Y-63886460D01*
X132163990Y-63885090D01*
X132164990Y-63883720D01*
X132166000Y-63882370D01*
X132167040Y-63881030D01*
X132168090Y-63879710D01*
X132169160Y-63878400D01*
X132170250Y-63877110D01*
X132171350Y-63875830D01*
X132172480Y-63874560D01*
X132173610Y-63873310D01*
X132174770Y-63872080D01*
X132175940Y-63870860D01*
X132177130Y-63869660D01*
X132178330Y-63868470D01*
X132179550Y-63867300D01*
X132180780Y-63866140D01*
X132182030Y-63865010D01*
X132183300Y-63863880D01*
X132184580Y-63862780D01*
X132185870Y-63861690D01*
X132187180Y-63860620D01*
X132188500Y-63859570D01*
X132189840Y-63858530D01*
X132191190Y-63857520D01*
X132192560Y-63856520D01*
X132193930Y-63855540D01*
X132195320Y-63854570D01*
X132196720Y-63853630D01*
X132198140Y-63852700D01*
X132199570Y-63851800D01*
X132201010Y-63850910D01*
X132202460Y-63850040D01*
X132203920Y-63849190D01*
X132205390Y-63848370D01*
X132206880Y-63847560D01*
X132208370Y-63846770D01*
X132209880Y-63846000D01*
X132211390Y-63845250D01*
X132212920Y-63844520D01*
X132214450Y-63843810D01*
X132216000Y-63843120D01*
X132217550Y-63842450D01*
X132219110Y-63841810D01*
X132220680Y-63841180D01*
X132222260Y-63840580D01*
X132223850Y-63839990D01*
X132225440Y-63839430D01*
X132227040Y-63838890D01*
X132228650Y-63838370D01*
X132230270Y-63837870D01*
X132231890Y-63837390D01*
X132233520Y-63836930D01*
X132235150Y-63836500D01*
X132236790Y-63836090D01*
X132238430Y-63835700D01*
X132240080Y-63835330D01*
X132241740Y-63834980D01*
X132243400Y-63834660D01*
X132245060Y-63834360D01*
X132246730Y-63834080D01*
X132248400Y-63833820D01*
X132250070Y-63833580D01*
X132251750Y-63833370D01*
X132253430Y-63833180D01*
X132255110Y-63833010D01*
X132256800Y-63832860D01*
X132258480Y-63832740D01*
X132260170Y-63832640D01*
X132261860Y-63832560D01*
X132263550Y-63832510D01*
X132265240Y-63832470D01*
X132266930Y-63832460D01*
X135072210Y-63832460D01*
X135072220Y-63832460D01*
X135072230Y-63832460D01*
X135072240Y-63832460D01*
X135072250Y-63832460D01*
X135072250Y-63832450D01*
X135072260Y-63832450D01*
X135072270Y-63832450D01*
X135072280Y-63832450D01*
X135072290Y-63832440D01*
X135072300Y-63832440D01*
X135072310Y-63832440D01*
X135072310Y-63832430D01*
X135072320Y-63832430D01*
X135072320Y-63832420D01*
X135072330Y-63832420D01*
X135072340Y-63832410D01*
X135072350Y-63832410D01*
X135072350Y-63832400D01*
X135072360Y-63832400D01*
X135072360Y-63832390D01*
X135072370Y-63832380D01*
X135072370Y-63832370D01*
X135072380Y-63832370D01*
X135072380Y-63832360D01*
X135072390Y-63832360D01*
X135072390Y-63832350D01*
X135072390Y-63832340D01*
X135072400Y-63832330D01*
X135072400Y-63832320D01*
X135072400Y-63832310D01*
X135072400Y-63832300D01*
X135072410Y-63832300D01*
X135072410Y-63832290D01*
X135072410Y-63832280D01*
X135072410Y-63832270D01*
X135072410Y-63832260D01*
X135072420Y-63832260D01*
X135072700Y-59957440D01*
X135073460Y-59947090D01*
X135074090Y-59936730D01*
X135074570Y-59926360D01*
X135074920Y-59915990D01*
X135075130Y-59905610D01*
X135075180Y-59895230D01*
X135075110Y-59884870D01*
X135074900Y-59874520D01*
X135074560Y-59864170D01*
X135074070Y-59853820D01*
X135073450Y-59843480D01*
X135072700Y-59833150D01*
X135072970Y-55958660D01*
X135072970Y-55958650D01*
X135072970Y-55958640D01*
X135072970Y-55958630D01*
X135072970Y-55958620D01*
X135072960Y-55958610D01*
X135072960Y-55958600D01*
X135072960Y-55958590D01*
X135072960Y-55958580D01*
X135072950Y-55958580D01*
X135072950Y-55958570D01*
X135072940Y-55958560D01*
X135072940Y-55958550D01*
X135072930Y-55958550D01*
X135072930Y-55958540D01*
X135072920Y-55958530D01*
X135072920Y-55958520D01*
X135072910Y-55958520D01*
X135072910Y-55958510D01*
X135072900Y-55958510D01*
X135072890Y-55958500D01*
X135072880Y-55958500D01*
X135072880Y-55958490D01*
X135072870Y-55958490D01*
X135072860Y-55958480D01*
X135072850Y-55958480D01*
X135072850Y-55958470D01*
X135072840Y-55958470D01*
X135072830Y-55958470D01*
X135072820Y-55958470D01*
X135072810Y-55958460D01*
X135072800Y-55958460D01*
X135072790Y-55958460D01*
X135072780Y-55958460D01*
X135072770Y-55958460D01*
X132139930Y-55958460D01*
X132138270Y-55958450D01*
X132136610Y-55958420D01*
X132134940Y-55958360D01*
X132133280Y-55958290D01*
X132131620Y-55958190D01*
X132129970Y-55958070D01*
X132128310Y-55957930D01*
X132126650Y-55957760D01*
X132125000Y-55957580D01*
X132123350Y-55957370D01*
X132121710Y-55957150D01*
X132120060Y-55956900D01*
X132118420Y-55956630D01*
X132116790Y-55956330D01*
X132115150Y-55956020D01*
X132113530Y-55955680D01*
X132111900Y-55955330D01*
X132110280Y-55954950D01*
X132108670Y-55954550D01*
X132107060Y-55954130D01*
X132105460Y-55953690D01*
X132103860Y-55953230D01*
X132102270Y-55952750D01*
X132100680Y-55952240D01*
X132099110Y-55951720D01*
X132097540Y-55951180D01*
X132095970Y-55950610D01*
X132094420Y-55950020D01*
X132092870Y-55949420D01*
X132091330Y-55948790D01*
X132089800Y-55948150D01*
X132088270Y-55947480D01*
X132086760Y-55946790D01*
X132085260Y-55946090D01*
X132083760Y-55945360D01*
X132082270Y-55944620D01*
X132080800Y-55943850D01*
X132079330Y-55943070D01*
X132077880Y-55942270D01*
X132076430Y-55941450D01*
X132075000Y-55940600D01*
X132073570Y-55939750D01*
X132072160Y-55938870D01*
X132070760Y-55937970D01*
X132069370Y-55937060D01*
X132068000Y-55936120D01*
X132066630Y-55935170D01*
X132065280Y-55934210D01*
X132063940Y-55933220D01*
X132062620Y-55932220D01*
X132061310Y-55931200D01*
X132060010Y-55930160D01*
X132058720Y-55929100D01*
X132057450Y-55928030D01*
X132056190Y-55926940D01*
X132054950Y-55925840D01*
X132053720Y-55924720D01*
X132052510Y-55923580D01*
X132051310Y-55922430D01*
X132050130Y-55921260D01*
X132048960Y-55920080D01*
X132047810Y-55918880D01*
X132046670Y-55917670D01*
X132045550Y-55916440D01*
X132044450Y-55915200D01*
X132043360Y-55913940D01*
X132042290Y-55912670D01*
X132041230Y-55911380D01*
X132040190Y-55910080D01*
X132039170Y-55908770D01*
X132038170Y-55907450D01*
X132037180Y-55906110D01*
X132036220Y-55904760D01*
X132035270Y-55903390D01*
X132034330Y-55902020D01*
X132033420Y-55900630D01*
X132032520Y-55899230D01*
X132031640Y-55897820D01*
X132030790Y-55896390D01*
X132029940Y-55894960D01*
X132029120Y-55893510D01*
X132028320Y-55892060D01*
X132027540Y-55890590D01*
X132026770Y-55889120D01*
X132026030Y-55887630D01*
X132025300Y-55886130D01*
X132024600Y-55884630D01*
X132023910Y-55883120D01*
X132023240Y-55881590D01*
X132022600Y-55880060D01*
X132021970Y-55878520D01*
X132021370Y-55876970D01*
X132020780Y-55875420D01*
X132020210Y-55873850D01*
X132019670Y-55872280D01*
X132019150Y-55870710D01*
X132018640Y-55869120D01*
X132018160Y-55867530D01*
X132017700Y-55865930D01*
X132017260Y-55864330D01*
X132016840Y-55862720D01*
X132016440Y-55861110D01*
X132016060Y-55859490D01*
X132015710Y-55857860D01*
X132015370Y-55856240D01*
X132015060Y-55854600D01*
X132014760Y-55852970D01*
X132014490Y-55851330D01*
X132014240Y-55849680D01*
X132014020Y-55848040D01*
X132013810Y-55846390D01*
X132013630Y-55844740D01*
X132013460Y-55843080D01*
X132013320Y-55841420D01*
X132013200Y-55839770D01*
X132013100Y-55838110D01*
X132013030Y-55836450D01*
X132012970Y-55834780D01*
X132012940Y-55833120D01*
X132012930Y-55831460D01*
X132012940Y-55829800D01*
X132012970Y-55828140D01*
X132013030Y-55826470D01*
X132013100Y-55824810D01*
X132013200Y-55823150D01*
X132013320Y-55821500D01*
X132013460Y-55819840D01*
X132013630Y-55818180D01*
X132013810Y-55816530D01*
X132014020Y-55814880D01*
X132014240Y-55813240D01*
X132014490Y-55811590D01*
X132014760Y-55809950D01*
X132015060Y-55808320D01*
X132015370Y-55806680D01*
X132015710Y-55805060D01*
X132016060Y-55803430D01*
X132016440Y-55801810D01*
X132016840Y-55800200D01*
X132017260Y-55798590D01*
X132017700Y-55796990D01*
X132018160Y-55795390D01*
X132018640Y-55793800D01*
X132019150Y-55792210D01*
X132019670Y-55790640D01*
X132020210Y-55789070D01*
X132020780Y-55787500D01*
X132021370Y-55785950D01*
X132021970Y-55784400D01*
X132022600Y-55782860D01*
X132023240Y-55781330D01*
X132023910Y-55779800D01*
X132024600Y-55778290D01*
X132025300Y-55776790D01*
X132026030Y-55775290D01*
X132026770Y-55773800D01*
X132027540Y-55772330D01*
X132028320Y-55770860D01*
X132029120Y-55769410D01*
X132029940Y-55767960D01*
X132030790Y-55766530D01*
X132031640Y-55765100D01*
X132032520Y-55763690D01*
X132033420Y-55762290D01*
X132034330Y-55760900D01*
X132035270Y-55759530D01*
X132036220Y-55758160D01*
X132037180Y-55756810D01*
X132038170Y-55755470D01*
X132039170Y-55754150D01*
X132040190Y-55752840D01*
X132041230Y-55751540D01*
X132042290Y-55750250D01*
X132043360Y-55748980D01*
X132044450Y-55747720D01*
X132045550Y-55746480D01*
X132046670Y-55745250D01*
X132047810Y-55744040D01*
X132048960Y-55742840D01*
X132050130Y-55741660D01*
X132051310Y-55740490D01*
X132052510Y-55739340D01*
X132053720Y-55738200D01*
X132054950Y-55737080D01*
X132056190Y-55735980D01*
X132057450Y-55734890D01*
X132058720Y-55733820D01*
X132060010Y-55732760D01*
X132061310Y-55731720D01*
X132062620Y-55730700D01*
X132063940Y-55729700D01*
X132065280Y-55728710D01*
X132066630Y-55727750D01*
X132068000Y-55726800D01*
X132069370Y-55725860D01*
X132070760Y-55724950D01*
X132072160Y-55724050D01*
X132073570Y-55723170D01*
X132075000Y-55722320D01*
X132076430Y-55721470D01*
X132077880Y-55720650D01*
X132079330Y-55719850D01*
X132080800Y-55719070D01*
X132082270Y-55718300D01*
X132083760Y-55717560D01*
X132085260Y-55716830D01*
X132086760Y-55716130D01*
X132088270Y-55715440D01*
X132089800Y-55714770D01*
X132091330Y-55714130D01*
X132092870Y-55713500D01*
X132094420Y-55712900D01*
X132095970Y-55712310D01*
X132097540Y-55711740D01*
X132099110Y-55711200D01*
X132100680Y-55710680D01*
X132102270Y-55710170D01*
X132103860Y-55709690D01*
X132105460Y-55709230D01*
X132107060Y-55708790D01*
X132108670Y-55708370D01*
X132110280Y-55707970D01*
X132111900Y-55707590D01*
X132113530Y-55707240D01*
X132115150Y-55706900D01*
X132116790Y-55706590D01*
X132118420Y-55706290D01*
X132120060Y-55706020D01*
X132121710Y-55705770D01*
X132123350Y-55705550D01*
X132125000Y-55705340D01*
X132126650Y-55705160D01*
X132128310Y-55704990D01*
X132129970Y-55704850D01*
X132131620Y-55704730D01*
X132133280Y-55704630D01*
X132134940Y-55704560D01*
X132136610Y-55704500D01*
X132138270Y-55704470D01*
X132139930Y-55704460D01*
X135942520Y-55704460D01*
X135942520Y-55704470D01*
G37*
D11*
X126574590Y-53945030D02*
X126984570Y-53945030D01*
X126574590Y-54665040D02*
X126984570Y-54665040D01*
X126574590Y-56485030D02*
X126984570Y-56485030D01*
X126574590Y-57205040D02*
X126984570Y-57205040D01*
X126574590Y-59025030D02*
X126984570Y-59025030D01*
X126574590Y-59745040D02*
X126984570Y-59745040D01*
X126574590Y-61565030D02*
X126984570Y-61565030D01*
X126574590Y-62285040D02*
X126984570Y-62285040D01*
X126574590Y-64105030D02*
X126984570Y-64105030D01*
X126574590Y-64825040D02*
X126984570Y-64825040D01*
X126574590Y-66645030D02*
X126984570Y-66645030D01*
X126574590Y-67365040D02*
X126984570Y-67365040D01*
X126574590Y-76805030D02*
X126984570Y-76805030D01*
X126574590Y-77525040D02*
X126984570Y-77525040D01*
X126574590Y-79345030D02*
X126984570Y-79345030D01*
X126574590Y-80065040D02*
X126984570Y-80065040D01*
X126574590Y-81885030D02*
X126984570Y-81885030D01*
X126574590Y-82605040D02*
X126984570Y-82605040D01*
X126574590Y-84425030D02*
X126984570Y-84425030D01*
X126574590Y-85145040D02*
X126984570Y-85145040D01*
X126574590Y-86965030D02*
X126984570Y-86965030D01*
X126574590Y-87685040D02*
X126984570Y-87685040D01*
X126574590Y-89505030D02*
X126984570Y-89505030D01*
X126574590Y-90225040D02*
X126984570Y-90225040D01*
X129084570Y-53945030D02*
X129464580Y-53945030D01*
X129084570Y-54665040D02*
X129464580Y-54665040D01*
X129084570Y-56485030D02*
X129524570Y-56485030D01*
X129084570Y-57205040D02*
X129524570Y-57205040D01*
X129084570Y-59025030D02*
X129524570Y-59025030D01*
X129084570Y-59745040D02*
X129524570Y-59745040D01*
X129084570Y-61565030D02*
X129524570Y-61565030D01*
X129084570Y-62285040D02*
X129524570Y-62285040D01*
X129084570Y-64105030D02*
X129524570Y-64105030D01*
X129084570Y-64825040D02*
X129524570Y-64825040D01*
X129084570Y-66645030D02*
X129524570Y-66645030D01*
X129084570Y-67365040D02*
X129524570Y-67365040D01*
X129084570Y-76805030D02*
X129464580Y-76805030D01*
X129084570Y-77525040D02*
X129464580Y-77525040D01*
X129084570Y-79345030D02*
X129524570Y-79345030D01*
X129084570Y-80065040D02*
X129524570Y-80065040D01*
X129084570Y-81885030D02*
X129524570Y-81885030D01*
X129084570Y-82605040D02*
X129524570Y-82605040D01*
X129084570Y-84425030D02*
X129524570Y-84425030D01*
X129084570Y-85145040D02*
X129524570Y-85145040D01*
X129084570Y-86965030D02*
X129524570Y-86965030D01*
X129084570Y-87685040D02*
X129524570Y-87685040D01*
X129084570Y-89505030D02*
X129524570Y-89505030D01*
X129084570Y-90225040D02*
X129524570Y-90225040D01*
X130574580Y-52975030D02*
X131684590Y-52975030D01*
X130574580Y-75835030D02*
X131684590Y-75835030D01*
X130915630Y-46632370D02*
X181835620Y-46632370D01*
X130915630Y-49232360D02*
X130915630Y-46632370D01*
X130915630Y-51832360D02*
X130915630Y-50502360D01*
X130985020Y-92716810D02*
X181905010Y-92716810D01*
X130985020Y-95316800D02*
X130985020Y-92716810D01*
X130985020Y-97916800D02*
X130985020Y-96586800D01*
X131684590Y-52975030D02*
X131684590Y-54305020D01*
X131684590Y-75835030D02*
X131684590Y-77165020D01*
D12*
X132199980Y-55895490D02*
X132199980Y-78395600D01*
D11*
X132245620Y-51832360D02*
X130915630Y-51832360D01*
X132315040Y-97916800D02*
X130985020Y-97916800D01*
X133515620Y-49232360D02*
X130915630Y-49232360D01*
X133515620Y-51832360D02*
X133515620Y-49232360D01*
X133515620Y-51832360D02*
X181835620Y-51832360D01*
X133585040Y-95316800D02*
X130985020Y-95316800D01*
X133585040Y-97916800D02*
X133585040Y-95316800D01*
X133585040Y-97916800D02*
X181905010Y-97916800D01*
D12*
X135199010Y-74795380D02*
X135199970Y-78395600D01*
X135199970Y-55895490D02*
X132199980Y-55895490D01*
X135199970Y-78395600D02*
X132199980Y-78395600D01*
D13*
X139622720Y-66586760D02*
X140241770Y-66586760D01*
X139670350Y-67539130D02*
X139622720Y-67491510D01*
X139765570Y-67586760D02*
X139670350Y-67539130D01*
X139908420Y-66967710D02*
X140051300Y-66967710D01*
X140051300Y-66967710D02*
X140146520Y-67015310D01*
X140051300Y-67586760D02*
X139765570Y-67586760D01*
X140146520Y-67015310D02*
X140194150Y-67062930D01*
X140146520Y-67539130D02*
X140051300Y-67586760D01*
X140194150Y-67062930D02*
X140241770Y-67158180D01*
X140194150Y-67491510D02*
X140146520Y-67539130D01*
X140241770Y-66586760D02*
X139908420Y-66967710D01*
X140241770Y-67158180D02*
X140241770Y-67396260D01*
X140241770Y-67396260D02*
X140194150Y-67491510D01*
X140575100Y-66586760D02*
X141241770Y-66586760D01*
X141241770Y-66586760D02*
X140813200Y-67586760D01*
X141670350Y-66824830D02*
X141575100Y-66872460D01*
X141765570Y-66729610D02*
X141670350Y-66824830D01*
X141860820Y-66586760D02*
X141765570Y-66729610D01*
X141860820Y-67586760D02*
X141860820Y-66586760D01*
X142146520Y-67586760D02*
X141575100Y-67586760D01*
X142502750Y-66824830D02*
X142407500Y-66872460D01*
X142597980Y-66729610D02*
X142502750Y-66824830D01*
X142693230Y-66586760D02*
X142597980Y-66729610D01*
X142693230Y-67586760D02*
X142693230Y-66586760D01*
X142978930Y-67586760D02*
X142407500Y-67586760D01*
D11*
X181835620Y-51832360D02*
X181835620Y-46632370D01*
X181905010Y-97916800D02*
X181905010Y-92716810D01*
X187756230Y-83860360D02*
X190756250Y-83860360D01*
D14*
X187756230Y-84379360D02*
X187756230Y-83860360D01*
D11*
X187756230Y-84422740D02*
X187756230Y-83860360D01*
X187756230Y-84422740D02*
X190756230Y-84422740D01*
D14*
X190756230Y-84379360D02*
X190756250Y-83860360D01*
D11*
X190756230Y-84422740D02*
X190756250Y-83860360D01*
D12*
X200199030Y-74895380D02*
X200199840Y-78395600D01*
X200199840Y-63970380D02*
X200199030Y-69395370D01*
X203199840Y-55895490D02*
X200199840Y-55895490D01*
X203199840Y-55895490D02*
X203199840Y-78395600D01*
X203199840Y-78395600D02*
X200199840Y-78395600D01*
D11*
X203906970Y-68360820D02*
X203906970Y-67030830D01*
X203906970Y-91220820D02*
X203906970Y-89890830D01*
X205016980Y-68360820D02*
X203906970Y-68360820D01*
X205016980Y-91220820D02*
X203906970Y-91220820D01*
X206506970Y-53970830D02*
X206066990Y-53970830D01*
X206506970Y-54690820D02*
X206066990Y-54690820D01*
X206506970Y-56510830D02*
X206066990Y-56510830D01*
X206506970Y-57230820D02*
X206066990Y-57230820D01*
X206506970Y-59050830D02*
X206066990Y-59050830D01*
X206506970Y-59770820D02*
X206066990Y-59770820D01*
X206506970Y-61590830D02*
X206066990Y-61590830D01*
X206506970Y-62310820D02*
X206066990Y-62310820D01*
X206506970Y-64130830D02*
X206066990Y-64130830D01*
X206506970Y-64850820D02*
X206066990Y-64850820D01*
X206506970Y-66670830D02*
X206126990Y-66670830D01*
X206506970Y-67390820D02*
X206126990Y-67390820D01*
X206506970Y-76830830D02*
X206066990Y-76830830D01*
X206506970Y-77550820D02*
X206066990Y-77550820D01*
X206506970Y-79370830D02*
X206066990Y-79370830D01*
X206506970Y-80090820D02*
X206066990Y-80090820D01*
X206506970Y-81910830D02*
X206066990Y-81910830D01*
X206506970Y-82630820D02*
X206066990Y-82630820D01*
X206506970Y-84450830D02*
X206066990Y-84450830D01*
X206506970Y-85170820D02*
X206066990Y-85170820D01*
X206506970Y-86990830D02*
X206066990Y-86990830D01*
X206506970Y-87710820D02*
X206066990Y-87710820D01*
X206506970Y-89530830D02*
X206126990Y-89530830D01*
X206506970Y-90250820D02*
X206126990Y-90250820D01*
X209016970Y-53970830D02*
X208606990Y-53970830D01*
X209016970Y-54690820D02*
X208606990Y-54690820D01*
X209016970Y-56510830D02*
X208606990Y-56510830D01*
X209016970Y-57230820D02*
X208606990Y-57230820D01*
X209016970Y-59050830D02*
X208606990Y-59050830D01*
X209016970Y-59770820D02*
X208606990Y-59770820D01*
X209016970Y-61590830D02*
X208606990Y-61590830D01*
X209016970Y-62310820D02*
X208606990Y-62310820D01*
X209016970Y-64130830D02*
X208606990Y-64130830D01*
X209016970Y-64850820D02*
X208606990Y-64850820D01*
X209016970Y-66670830D02*
X208606990Y-66670830D01*
X209016970Y-67390820D02*
X208606990Y-67390820D01*
X209016970Y-76830830D02*
X208606990Y-76830830D01*
X209016970Y-77550820D02*
X208606990Y-77550820D01*
X209016970Y-79370830D02*
X208606990Y-79370830D01*
X209016970Y-80090820D02*
X208606990Y-80090820D01*
X209016970Y-81910830D02*
X208606990Y-81910830D01*
X209016970Y-82630820D02*
X208606990Y-82630820D01*
X209016970Y-84450830D02*
X208606990Y-84450830D01*
X209016970Y-85170820D02*
X208606990Y-85170820D01*
X209016970Y-86990830D02*
X208606990Y-86990830D01*
X209016970Y-87710820D02*
X208606990Y-87710820D01*
X209016970Y-89530830D02*
X208606990Y-89530830D01*
X209016970Y-90250820D02*
X208606990Y-90250820D01*
D15*
X199659580Y-46756666D02*
X199707200Y-46804285D01*
X199707200Y-46804285D02*
X199754819Y-46947142D01*
X199754819Y-46947142D02*
X199754819Y-47042380D01*
X199754819Y-47042380D02*
X199707200Y-47185237D01*
X199707200Y-47185237D02*
X199611961Y-47280475D01*
X199611961Y-47280475D02*
X199516723Y-47328094D01*
X199516723Y-47328094D02*
X199326247Y-47375713D01*
X199326247Y-47375713D02*
X199183390Y-47375713D01*
X199183390Y-47375713D02*
X198992914Y-47328094D01*
X198992914Y-47328094D02*
X198897676Y-47280475D01*
X198897676Y-47280475D02*
X198802438Y-47185237D01*
X198802438Y-47185237D02*
X198754819Y-47042380D01*
X198754819Y-47042380D02*
X198754819Y-46947142D01*
X198754819Y-46947142D02*
X198802438Y-46804285D01*
X198802438Y-46804285D02*
X198850057Y-46756666D01*
X198754819Y-46423332D02*
X198754819Y-45804285D01*
X198754819Y-45804285D02*
X199135771Y-46137618D01*
X199135771Y-46137618D02*
X199135771Y-45994761D01*
X199135771Y-45994761D02*
X199183390Y-45899523D01*
X199183390Y-45899523D02*
X199231009Y-45851904D01*
X199231009Y-45851904D02*
X199326247Y-45804285D01*
X199326247Y-45804285D02*
X199564342Y-45804285D01*
X199564342Y-45804285D02*
X199659580Y-45851904D01*
X199659580Y-45851904D02*
X199707200Y-45899523D01*
X199707200Y-45899523D02*
X199754819Y-45994761D01*
X199754819Y-45994761D02*
X199754819Y-46280475D01*
X199754819Y-46280475D02*
X199707200Y-46375713D01*
X199707200Y-46375713D02*
X199659580Y-46423332D01*
X195517200Y-98493332D02*
X195564819Y-98350475D01*
X195564819Y-98350475D02*
X195564819Y-98112380D01*
X195564819Y-98112380D02*
X195517200Y-98017142D01*
X195517200Y-98017142D02*
X195469580Y-97969523D01*
X195469580Y-97969523D02*
X195374342Y-97921904D01*
X195374342Y-97921904D02*
X195279104Y-97921904D01*
X195279104Y-97921904D02*
X195183866Y-97969523D01*
X195183866Y-97969523D02*
X195136247Y-98017142D01*
X195136247Y-98017142D02*
X195088628Y-98112380D01*
X195088628Y-98112380D02*
X195041009Y-98302856D01*
X195041009Y-98302856D02*
X194993390Y-98398094D01*
X194993390Y-98398094D02*
X194945771Y-98445713D01*
X194945771Y-98445713D02*
X194850533Y-98493332D01*
X194850533Y-98493332D02*
X194755295Y-98493332D01*
X194755295Y-98493332D02*
X194660057Y-98445713D01*
X194660057Y-98445713D02*
X194612438Y-98398094D01*
X194612438Y-98398094D02*
X194564819Y-98302856D01*
X194564819Y-98302856D02*
X194564819Y-98064761D01*
X194564819Y-98064761D02*
X194612438Y-97921904D01*
X194564819Y-97588570D02*
X195564819Y-97350475D01*
X195564819Y-97350475D02*
X194850533Y-97159999D01*
X194850533Y-97159999D02*
X195564819Y-96969523D01*
X195564819Y-96969523D02*
X194564819Y-96731428D01*
X194564819Y-96445713D02*
X194564819Y-95826666D01*
X194564819Y-95826666D02*
X194945771Y-96159999D01*
X194945771Y-96159999D02*
X194945771Y-96017142D01*
X194945771Y-96017142D02*
X194993390Y-95921904D01*
X194993390Y-95921904D02*
X195041009Y-95874285D01*
X195041009Y-95874285D02*
X195136247Y-95826666D01*
X195136247Y-95826666D02*
X195374342Y-95826666D01*
X195374342Y-95826666D02*
X195469580Y-95874285D01*
X195469580Y-95874285D02*
X195517200Y-95921904D01*
X195517200Y-95921904D02*
X195564819Y-96017142D01*
X195564819Y-96017142D02*
X195564819Y-96302856D01*
X195564819Y-96302856D02*
X195517200Y-96398094D01*
X195517200Y-96398094D02*
X195469580Y-96445713D01*
X184243333Y-94704819D02*
X183910000Y-94228628D01*
X183671905Y-94704819D02*
X183671905Y-93704819D01*
X183671905Y-93704819D02*
X184052857Y-93704819D01*
X184052857Y-93704819D02*
X184148095Y-93752438D01*
X184148095Y-93752438D02*
X184195714Y-93800057D01*
X184195714Y-93800057D02*
X184243333Y-93895295D01*
X184243333Y-93895295D02*
X184243333Y-94038152D01*
X184243333Y-94038152D02*
X184195714Y-94133390D01*
X184195714Y-94133390D02*
X184148095Y-94181009D01*
X184148095Y-94181009D02*
X184052857Y-94228628D01*
X184052857Y-94228628D02*
X183671905Y-94228628D01*
X184576667Y-93704819D02*
X185195714Y-93704819D01*
X185195714Y-93704819D02*
X184862381Y-94085771D01*
X184862381Y-94085771D02*
X185005238Y-94085771D01*
X185005238Y-94085771D02*
X185100476Y-94133390D01*
X185100476Y-94133390D02*
X185148095Y-94181009D01*
X185148095Y-94181009D02*
X185195714Y-94276247D01*
X185195714Y-94276247D02*
X185195714Y-94514342D01*
X185195714Y-94514342D02*
X185148095Y-94609580D01*
X185148095Y-94609580D02*
X185100476Y-94657200D01*
X185100476Y-94657200D02*
X185005238Y-94704819D01*
X185005238Y-94704819D02*
X184719524Y-94704819D01*
X184719524Y-94704819D02*
X184624286Y-94657200D01*
X184624286Y-94657200D02*
X184576667Y-94609580D01*
X191159580Y-83616666D02*
X191207200Y-83664285D01*
X191207200Y-83664285D02*
X191254819Y-83807142D01*
X191254819Y-83807142D02*
X191254819Y-83902380D01*
X191254819Y-83902380D02*
X191207200Y-84045237D01*
X191207200Y-84045237D02*
X191111961Y-84140475D01*
X191111961Y-84140475D02*
X191016723Y-84188094D01*
X191016723Y-84188094D02*
X190826247Y-84235713D01*
X190826247Y-84235713D02*
X190683390Y-84235713D01*
X190683390Y-84235713D02*
X190492914Y-84188094D01*
X190492914Y-84188094D02*
X190397676Y-84140475D01*
X190397676Y-84140475D02*
X190302438Y-84045237D01*
X190302438Y-84045237D02*
X190254819Y-83902380D01*
X190254819Y-83902380D02*
X190254819Y-83807142D01*
X190254819Y-83807142D02*
X190302438Y-83664285D01*
X190302438Y-83664285D02*
X190350057Y-83616666D01*
X191254819Y-82664285D02*
X191254819Y-83235713D01*
X191254819Y-82949999D02*
X190254819Y-82949999D01*
X190254819Y-82949999D02*
X190397676Y-83045237D01*
X190397676Y-83045237D02*
X190492914Y-83140475D01*
X190492914Y-83140475D02*
X190540533Y-83235713D01*
X184163333Y-96064819D02*
X183830000Y-95588628D01*
X183591905Y-96064819D02*
X183591905Y-95064819D01*
X183591905Y-95064819D02*
X183972857Y-95064819D01*
X183972857Y-95064819D02*
X184068095Y-95112438D01*
X184068095Y-95112438D02*
X184115714Y-95160057D01*
X184115714Y-95160057D02*
X184163333Y-95255295D01*
X184163333Y-95255295D02*
X184163333Y-95398152D01*
X184163333Y-95398152D02*
X184115714Y-95493390D01*
X184115714Y-95493390D02*
X184068095Y-95541009D01*
X184068095Y-95541009D02*
X183972857Y-95588628D01*
X183972857Y-95588628D02*
X183591905Y-95588628D01*
X185020476Y-95398152D02*
X185020476Y-96064819D01*
X184782381Y-95017200D02*
X184544286Y-95731485D01*
X184544286Y-95731485D02*
X185163333Y-95731485D01*
X188359580Y-86026666D02*
X188407200Y-86074285D01*
X188407200Y-86074285D02*
X188454819Y-86217142D01*
X188454819Y-86217142D02*
X188454819Y-86312380D01*
X188454819Y-86312380D02*
X188407200Y-86455237D01*
X188407200Y-86455237D02*
X188311961Y-86550475D01*
X188311961Y-86550475D02*
X188216723Y-86598094D01*
X188216723Y-86598094D02*
X188026247Y-86645713D01*
X188026247Y-86645713D02*
X187883390Y-86645713D01*
X187883390Y-86645713D02*
X187692914Y-86598094D01*
X187692914Y-86598094D02*
X187597676Y-86550475D01*
X187597676Y-86550475D02*
X187502438Y-86455237D01*
X187502438Y-86455237D02*
X187454819Y-86312380D01*
X187454819Y-86312380D02*
X187454819Y-86217142D01*
X187454819Y-86217142D02*
X187502438Y-86074285D01*
X187502438Y-86074285D02*
X187550057Y-86026666D01*
X187883390Y-85455237D02*
X187835771Y-85550475D01*
X187835771Y-85550475D02*
X187788152Y-85598094D01*
X187788152Y-85598094D02*
X187692914Y-85645713D01*
X187692914Y-85645713D02*
X187645295Y-85645713D01*
X187645295Y-85645713D02*
X187550057Y-85598094D01*
X187550057Y-85598094D02*
X187502438Y-85550475D01*
X187502438Y-85550475D02*
X187454819Y-85455237D01*
X187454819Y-85455237D02*
X187454819Y-85264761D01*
X187454819Y-85264761D02*
X187502438Y-85169523D01*
X187502438Y-85169523D02*
X187550057Y-85121904D01*
X187550057Y-85121904D02*
X187645295Y-85074285D01*
X187645295Y-85074285D02*
X187692914Y-85074285D01*
X187692914Y-85074285D02*
X187788152Y-85121904D01*
X187788152Y-85121904D02*
X187835771Y-85169523D01*
X187835771Y-85169523D02*
X187883390Y-85264761D01*
X187883390Y-85264761D02*
X187883390Y-85455237D01*
X187883390Y-85455237D02*
X187931009Y-85550475D01*
X187931009Y-85550475D02*
X187978628Y-85598094D01*
X187978628Y-85598094D02*
X188073866Y-85645713D01*
X188073866Y-85645713D02*
X188264342Y-85645713D01*
X188264342Y-85645713D02*
X188359580Y-85598094D01*
X188359580Y-85598094D02*
X188407200Y-85550475D01*
X188407200Y-85550475D02*
X188454819Y-85455237D01*
X188454819Y-85455237D02*
X188454819Y-85264761D01*
X188454819Y-85264761D02*
X188407200Y-85169523D01*
X188407200Y-85169523D02*
X188359580Y-85121904D01*
X188359580Y-85121904D02*
X188264342Y-85074285D01*
X188264342Y-85074285D02*
X188073866Y-85074285D01*
X188073866Y-85074285D02*
X187978628Y-85121904D01*
X187978628Y-85121904D02*
X187931009Y-85169523D01*
X187931009Y-85169523D02*
X187883390Y-85264761D01*
X129374819Y-49563333D02*
X130089104Y-49563333D01*
X130089104Y-49563333D02*
X130231961Y-49610952D01*
X130231961Y-49610952D02*
X130327200Y-49706190D01*
X130327200Y-49706190D02*
X130374819Y-49849047D01*
X130374819Y-49849047D02*
X130374819Y-49944285D01*
X129374819Y-49182380D02*
X129374819Y-48563333D01*
X129374819Y-48563333D02*
X129755771Y-48896666D01*
X129755771Y-48896666D02*
X129755771Y-48753809D01*
X129755771Y-48753809D02*
X129803390Y-48658571D01*
X129803390Y-48658571D02*
X129851009Y-48610952D01*
X129851009Y-48610952D02*
X129946247Y-48563333D01*
X129946247Y-48563333D02*
X130184342Y-48563333D01*
X130184342Y-48563333D02*
X130279580Y-48610952D01*
X130279580Y-48610952D02*
X130327200Y-48658571D01*
X130327200Y-48658571D02*
X130374819Y-48753809D01*
X130374819Y-48753809D02*
X130374819Y-49039523D01*
X130374819Y-49039523D02*
X130327200Y-49134761D01*
X130327200Y-49134761D02*
X130279580Y-49182380D01*
X200784819Y-50826666D02*
X200308628Y-51159999D01*
X200784819Y-51398094D02*
X199784819Y-51398094D01*
X199784819Y-51398094D02*
X199784819Y-51017142D01*
X199784819Y-51017142D02*
X199832438Y-50921904D01*
X199832438Y-50921904D02*
X199880057Y-50874285D01*
X199880057Y-50874285D02*
X199975295Y-50826666D01*
X199975295Y-50826666D02*
X200118152Y-50826666D01*
X200118152Y-50826666D02*
X200213390Y-50874285D01*
X200213390Y-50874285D02*
X200261009Y-50921904D01*
X200261009Y-50921904D02*
X200308628Y-51017142D01*
X200308628Y-51017142D02*
X200308628Y-51398094D01*
X200784819Y-49874285D02*
X200784819Y-50445713D01*
X200784819Y-50159999D02*
X199784819Y-50159999D01*
X199784819Y-50159999D02*
X199927676Y-50255237D01*
X199927676Y-50255237D02*
X200022914Y-50350475D01*
X200022914Y-50350475D02*
X200070533Y-50445713D01*
X184173333Y-98644819D02*
X183840000Y-98168628D01*
X183601905Y-98644819D02*
X183601905Y-97644819D01*
X183601905Y-97644819D02*
X183982857Y-97644819D01*
X183982857Y-97644819D02*
X184078095Y-97692438D01*
X184078095Y-97692438D02*
X184125714Y-97740057D01*
X184125714Y-97740057D02*
X184173333Y-97835295D01*
X184173333Y-97835295D02*
X184173333Y-97978152D01*
X184173333Y-97978152D02*
X184125714Y-98073390D01*
X184125714Y-98073390D02*
X184078095Y-98121009D01*
X184078095Y-98121009D02*
X183982857Y-98168628D01*
X183982857Y-98168628D02*
X183601905Y-98168628D01*
X185030476Y-97644819D02*
X184840000Y-97644819D01*
X184840000Y-97644819D02*
X184744762Y-97692438D01*
X184744762Y-97692438D02*
X184697143Y-97740057D01*
X184697143Y-97740057D02*
X184601905Y-97882914D01*
X184601905Y-97882914D02*
X184554286Y-98073390D01*
X184554286Y-98073390D02*
X184554286Y-98454342D01*
X184554286Y-98454342D02*
X184601905Y-98549580D01*
X184601905Y-98549580D02*
X184649524Y-98597200D01*
X184649524Y-98597200D02*
X184744762Y-98644819D01*
X184744762Y-98644819D02*
X184935238Y-98644819D01*
X184935238Y-98644819D02*
X185030476Y-98597200D01*
X185030476Y-98597200D02*
X185078095Y-98549580D01*
X185078095Y-98549580D02*
X185125714Y-98454342D01*
X185125714Y-98454342D02*
X185125714Y-98216247D01*
X185125714Y-98216247D02*
X185078095Y-98121009D01*
X185078095Y-98121009D02*
X185030476Y-98073390D01*
X185030476Y-98073390D02*
X184935238Y-98025771D01*
X184935238Y-98025771D02*
X184744762Y-98025771D01*
X184744762Y-98025771D02*
X184649524Y-98073390D01*
X184649524Y-98073390D02*
X184601905Y-98121009D01*
X184601905Y-98121009D02*
X184554286Y-98216247D01*
X201349580Y-46796666D02*
X201397200Y-46844285D01*
X201397200Y-46844285D02*
X201444819Y-46987142D01*
X201444819Y-46987142D02*
X201444819Y-47082380D01*
X201444819Y-47082380D02*
X201397200Y-47225237D01*
X201397200Y-47225237D02*
X201301961Y-47320475D01*
X201301961Y-47320475D02*
X201206723Y-47368094D01*
X201206723Y-47368094D02*
X201016247Y-47415713D01*
X201016247Y-47415713D02*
X200873390Y-47415713D01*
X200873390Y-47415713D02*
X200682914Y-47368094D01*
X200682914Y-47368094D02*
X200587676Y-47320475D01*
X200587676Y-47320475D02*
X200492438Y-47225237D01*
X200492438Y-47225237D02*
X200444819Y-47082380D01*
X200444819Y-47082380D02*
X200444819Y-46987142D01*
X200444819Y-46987142D02*
X200492438Y-46844285D01*
X200492438Y-46844285D02*
X200540057Y-46796666D01*
X200778152Y-45939523D02*
X201444819Y-45939523D01*
X200397200Y-46177618D02*
X201111485Y-46415713D01*
X201111485Y-46415713D02*
X201111485Y-45796666D01*
X205714134Y-59924524D02*
X205761895Y-59781241D01*
X205761895Y-59781241D02*
X205761895Y-59542435D01*
X205761895Y-59542435D02*
X205714134Y-59446913D01*
X205714134Y-59446913D02*
X205666372Y-59399151D01*
X205666372Y-59399151D02*
X205570850Y-59351390D01*
X205570850Y-59351390D02*
X205475328Y-59351390D01*
X205475328Y-59351390D02*
X205379806Y-59399151D01*
X205379806Y-59399151D02*
X205332044Y-59446913D01*
X205332044Y-59446913D02*
X205284283Y-59542435D01*
X205284283Y-59542435D02*
X205236522Y-59733479D01*
X205236522Y-59733479D02*
X205188761Y-59829002D01*
X205188761Y-59829002D02*
X205141000Y-59876763D01*
X205141000Y-59876763D02*
X205045478Y-59924524D01*
X205045478Y-59924524D02*
X204949955Y-59924524D01*
X204949955Y-59924524D02*
X204854433Y-59876763D01*
X204854433Y-59876763D02*
X204806672Y-59829002D01*
X204806672Y-59829002D02*
X204758911Y-59733479D01*
X204758911Y-59733479D02*
X204758911Y-59494674D01*
X204758911Y-59494674D02*
X204806672Y-59351390D01*
X205761895Y-58443928D02*
X205761895Y-58921540D01*
X205761895Y-58921540D02*
X204758911Y-58921540D01*
X204758911Y-57918556D02*
X204758911Y-57727512D01*
X204758911Y-57727512D02*
X204806672Y-57631989D01*
X204806672Y-57631989D02*
X204902194Y-57536467D01*
X204902194Y-57536467D02*
X205093239Y-57488706D01*
X205093239Y-57488706D02*
X205427567Y-57488706D01*
X205427567Y-57488706D02*
X205618611Y-57536467D01*
X205618611Y-57536467D02*
X205714134Y-57631989D01*
X205714134Y-57631989D02*
X205761895Y-57727512D01*
X205761895Y-57727512D02*
X205761895Y-57918556D01*
X205761895Y-57918556D02*
X205714134Y-58014079D01*
X205714134Y-58014079D02*
X205618611Y-58109601D01*
X205618611Y-58109601D02*
X205427567Y-58157362D01*
X205427567Y-58157362D02*
X205093239Y-58157362D01*
X205093239Y-58157362D02*
X204902194Y-58109601D01*
X204902194Y-58109601D02*
X204806672Y-58014079D01*
X204806672Y-58014079D02*
X204758911Y-57918556D01*
X204758911Y-57202139D02*
X204758911Y-56629006D01*
X205761895Y-56915572D02*
X204758911Y-56915572D01*
X205761895Y-55769305D02*
X205761895Y-56342439D01*
X205761895Y-56055872D02*
X204758911Y-56055872D01*
X204758911Y-56055872D02*
X204902194Y-56151394D01*
X204902194Y-56151394D02*
X204997716Y-56246917D01*
X204997716Y-56246917D02*
X205045478Y-56342439D01*
X183337200Y-49323332D02*
X183384819Y-49180475D01*
X183384819Y-49180475D02*
X183384819Y-48942380D01*
X183384819Y-48942380D02*
X183337200Y-48847142D01*
X183337200Y-48847142D02*
X183289580Y-48799523D01*
X183289580Y-48799523D02*
X183194342Y-48751904D01*
X183194342Y-48751904D02*
X183099104Y-48751904D01*
X183099104Y-48751904D02*
X183003866Y-48799523D01*
X183003866Y-48799523D02*
X182956247Y-48847142D01*
X182956247Y-48847142D02*
X182908628Y-48942380D01*
X182908628Y-48942380D02*
X182861009Y-49132856D01*
X182861009Y-49132856D02*
X182813390Y-49228094D01*
X182813390Y-49228094D02*
X182765771Y-49275713D01*
X182765771Y-49275713D02*
X182670533Y-49323332D01*
X182670533Y-49323332D02*
X182575295Y-49323332D01*
X182575295Y-49323332D02*
X182480057Y-49275713D01*
X182480057Y-49275713D02*
X182432438Y-49228094D01*
X182432438Y-49228094D02*
X182384819Y-49132856D01*
X182384819Y-49132856D02*
X182384819Y-48894761D01*
X182384819Y-48894761D02*
X182432438Y-48751904D01*
X182384819Y-48418570D02*
X183384819Y-48180475D01*
X183384819Y-48180475D02*
X182670533Y-47989999D01*
X182670533Y-47989999D02*
X183384819Y-47799523D01*
X183384819Y-47799523D02*
X182384819Y-47561428D01*
X183384819Y-46656666D02*
X183384819Y-47228094D01*
X183384819Y-46942380D02*
X182384819Y-46942380D01*
X182384819Y-46942380D02*
X182527676Y-47037618D01*
X182527676Y-47037618D02*
X182622914Y-47132856D01*
X182622914Y-47132856D02*
X182670533Y-47228094D01*
X184163333Y-97354819D02*
X183830000Y-96878628D01*
X183591905Y-97354819D02*
X183591905Y-96354819D01*
X183591905Y-96354819D02*
X183972857Y-96354819D01*
X183972857Y-96354819D02*
X184068095Y-96402438D01*
X184068095Y-96402438D02*
X184115714Y-96450057D01*
X184115714Y-96450057D02*
X184163333Y-96545295D01*
X184163333Y-96545295D02*
X184163333Y-96688152D01*
X184163333Y-96688152D02*
X184115714Y-96783390D01*
X184115714Y-96783390D02*
X184068095Y-96831009D01*
X184068095Y-96831009D02*
X183972857Y-96878628D01*
X183972857Y-96878628D02*
X183591905Y-96878628D01*
X185068095Y-96354819D02*
X184591905Y-96354819D01*
X184591905Y-96354819D02*
X184544286Y-96831009D01*
X184544286Y-96831009D02*
X184591905Y-96783390D01*
X184591905Y-96783390D02*
X184687143Y-96735771D01*
X184687143Y-96735771D02*
X184925238Y-96735771D01*
X184925238Y-96735771D02*
X185020476Y-96783390D01*
X185020476Y-96783390D02*
X185068095Y-96831009D01*
X185068095Y-96831009D02*
X185115714Y-96926247D01*
X185115714Y-96926247D02*
X185115714Y-97164342D01*
X185115714Y-97164342D02*
X185068095Y-97259580D01*
X185068095Y-97259580D02*
X185020476Y-97307200D01*
X185020476Y-97307200D02*
X184925238Y-97354819D01*
X184925238Y-97354819D02*
X184687143Y-97354819D01*
X184687143Y-97354819D02*
X184591905Y-97307200D01*
X184591905Y-97307200D02*
X184544286Y-97259580D01*
X204287200Y-98603332D02*
X204334819Y-98460475D01*
X204334819Y-98460475D02*
X204334819Y-98222380D01*
X204334819Y-98222380D02*
X204287200Y-98127142D01*
X204287200Y-98127142D02*
X204239580Y-98079523D01*
X204239580Y-98079523D02*
X204144342Y-98031904D01*
X204144342Y-98031904D02*
X204049104Y-98031904D01*
X204049104Y-98031904D02*
X203953866Y-98079523D01*
X203953866Y-98079523D02*
X203906247Y-98127142D01*
X203906247Y-98127142D02*
X203858628Y-98222380D01*
X203858628Y-98222380D02*
X203811009Y-98412856D01*
X203811009Y-98412856D02*
X203763390Y-98508094D01*
X203763390Y-98508094D02*
X203715771Y-98555713D01*
X203715771Y-98555713D02*
X203620533Y-98603332D01*
X203620533Y-98603332D02*
X203525295Y-98603332D01*
X203525295Y-98603332D02*
X203430057Y-98555713D01*
X203430057Y-98555713D02*
X203382438Y-98508094D01*
X203382438Y-98508094D02*
X203334819Y-98412856D01*
X203334819Y-98412856D02*
X203334819Y-98174761D01*
X203334819Y-98174761D02*
X203382438Y-98031904D01*
X203334819Y-97698570D02*
X204334819Y-97460475D01*
X204334819Y-97460475D02*
X203620533Y-97269999D01*
X203620533Y-97269999D02*
X204334819Y-97079523D01*
X204334819Y-97079523D02*
X203334819Y-96841428D01*
X203668152Y-96031904D02*
X204334819Y-96031904D01*
X203287200Y-96269999D02*
X204001485Y-96508094D01*
X204001485Y-96508094D02*
X204001485Y-95889047D01*
X193739580Y-86116666D02*
X193787200Y-86164285D01*
X193787200Y-86164285D02*
X193834819Y-86307142D01*
X193834819Y-86307142D02*
X193834819Y-86402380D01*
X193834819Y-86402380D02*
X193787200Y-86545237D01*
X193787200Y-86545237D02*
X193691961Y-86640475D01*
X193691961Y-86640475D02*
X193596723Y-86688094D01*
X193596723Y-86688094D02*
X193406247Y-86735713D01*
X193406247Y-86735713D02*
X193263390Y-86735713D01*
X193263390Y-86735713D02*
X193072914Y-86688094D01*
X193072914Y-86688094D02*
X192977676Y-86640475D01*
X192977676Y-86640475D02*
X192882438Y-86545237D01*
X192882438Y-86545237D02*
X192834819Y-86402380D01*
X192834819Y-86402380D02*
X192834819Y-86307142D01*
X192834819Y-86307142D02*
X192882438Y-86164285D01*
X192882438Y-86164285D02*
X192930057Y-86116666D01*
X192930057Y-85735713D02*
X192882438Y-85688094D01*
X192882438Y-85688094D02*
X192834819Y-85592856D01*
X192834819Y-85592856D02*
X192834819Y-85354761D01*
X192834819Y-85354761D02*
X192882438Y-85259523D01*
X192882438Y-85259523D02*
X192930057Y-85211904D01*
X192930057Y-85211904D02*
X193025295Y-85164285D01*
X193025295Y-85164285D02*
X193120533Y-85164285D01*
X193120533Y-85164285D02*
X193263390Y-85211904D01*
X193263390Y-85211904D02*
X193834819Y-85783332D01*
X193834819Y-85783332D02*
X193834819Y-85164285D01*
X129434819Y-95603333D02*
X130149104Y-95603333D01*
X130149104Y-95603333D02*
X130291961Y-95650952D01*
X130291961Y-95650952D02*
X130387200Y-95746190D01*
X130387200Y-95746190D02*
X130434819Y-95889047D01*
X130434819Y-95889047D02*
X130434819Y-95984285D01*
X130434819Y-94603333D02*
X130434819Y-95174761D01*
X130434819Y-94889047D02*
X129434819Y-94889047D01*
X129434819Y-94889047D02*
X129577676Y-94984285D01*
X129577676Y-94984285D02*
X129672914Y-95079523D01*
X129672914Y-95079523D02*
X129720533Y-95174761D01*
X202544819Y-50856666D02*
X202068628Y-51189999D01*
X202544819Y-51428094D02*
X201544819Y-51428094D01*
X201544819Y-51428094D02*
X201544819Y-51047142D01*
X201544819Y-51047142D02*
X201592438Y-50951904D01*
X201592438Y-50951904D02*
X201640057Y-50904285D01*
X201640057Y-50904285D02*
X201735295Y-50856666D01*
X201735295Y-50856666D02*
X201878152Y-50856666D01*
X201878152Y-50856666D02*
X201973390Y-50904285D01*
X201973390Y-50904285D02*
X202021009Y-50951904D01*
X202021009Y-50951904D02*
X202068628Y-51047142D01*
X202068628Y-51047142D02*
X202068628Y-51428094D01*
X201640057Y-50475713D02*
X201592438Y-50428094D01*
X201592438Y-50428094D02*
X201544819Y-50332856D01*
X201544819Y-50332856D02*
X201544819Y-50094761D01*
X201544819Y-50094761D02*
X201592438Y-49999523D01*
X201592438Y-49999523D02*
X201640057Y-49951904D01*
X201640057Y-49951904D02*
X201735295Y-49904285D01*
X201735295Y-49904285D02*
X201830533Y-49904285D01*
X201830533Y-49904285D02*
X201973390Y-49951904D01*
X201973390Y-49951904D02*
X202544819Y-50523332D01*
X202544819Y-50523332D02*
X202544819Y-49904285D01*
X190317200Y-49023332D02*
X190364819Y-48880475D01*
X190364819Y-48880475D02*
X190364819Y-48642380D01*
X190364819Y-48642380D02*
X190317200Y-48547142D01*
X190317200Y-48547142D02*
X190269580Y-48499523D01*
X190269580Y-48499523D02*
X190174342Y-48451904D01*
X190174342Y-48451904D02*
X190079104Y-48451904D01*
X190079104Y-48451904D02*
X189983866Y-48499523D01*
X189983866Y-48499523D02*
X189936247Y-48547142D01*
X189936247Y-48547142D02*
X189888628Y-48642380D01*
X189888628Y-48642380D02*
X189841009Y-48832856D01*
X189841009Y-48832856D02*
X189793390Y-48928094D01*
X189793390Y-48928094D02*
X189745771Y-48975713D01*
X189745771Y-48975713D02*
X189650533Y-49023332D01*
X189650533Y-49023332D02*
X189555295Y-49023332D01*
X189555295Y-49023332D02*
X189460057Y-48975713D01*
X189460057Y-48975713D02*
X189412438Y-48928094D01*
X189412438Y-48928094D02*
X189364819Y-48832856D01*
X189364819Y-48832856D02*
X189364819Y-48594761D01*
X189364819Y-48594761D02*
X189412438Y-48451904D01*
X189364819Y-48118570D02*
X190364819Y-47880475D01*
X190364819Y-47880475D02*
X189650533Y-47689999D01*
X189650533Y-47689999D02*
X190364819Y-47499523D01*
X190364819Y-47499523D02*
X189364819Y-47261428D01*
X189460057Y-46928094D02*
X189412438Y-46880475D01*
X189412438Y-46880475D02*
X189364819Y-46785237D01*
X189364819Y-46785237D02*
X189364819Y-46547142D01*
X189364819Y-46547142D02*
X189412438Y-46451904D01*
X189412438Y-46451904D02*
X189460057Y-46404285D01*
X189460057Y-46404285D02*
X189555295Y-46356666D01*
X189555295Y-46356666D02*
X189650533Y-46356666D01*
X189650533Y-46356666D02*
X189793390Y-46404285D01*
X189793390Y-46404285D02*
X190364819Y-46975713D01*
X190364819Y-46975713D02*
X190364819Y-46356666D01*
X185769580Y-83496666D02*
X185817200Y-83544285D01*
X185817200Y-83544285D02*
X185864819Y-83687142D01*
X185864819Y-83687142D02*
X185864819Y-83782380D01*
X185864819Y-83782380D02*
X185817200Y-83925237D01*
X185817200Y-83925237D02*
X185721961Y-84020475D01*
X185721961Y-84020475D02*
X185626723Y-84068094D01*
X185626723Y-84068094D02*
X185436247Y-84115713D01*
X185436247Y-84115713D02*
X185293390Y-84115713D01*
X185293390Y-84115713D02*
X185102914Y-84068094D01*
X185102914Y-84068094D02*
X185007676Y-84020475D01*
X185007676Y-84020475D02*
X184912438Y-83925237D01*
X184912438Y-83925237D02*
X184864819Y-83782380D01*
X184864819Y-83782380D02*
X184864819Y-83687142D01*
X184864819Y-83687142D02*
X184912438Y-83544285D01*
X184912438Y-83544285D02*
X184960057Y-83496666D01*
X185864819Y-83020475D02*
X185864819Y-82829999D01*
X185864819Y-82829999D02*
X185817200Y-82734761D01*
X185817200Y-82734761D02*
X185769580Y-82687142D01*
X185769580Y-82687142D02*
X185626723Y-82591904D01*
X185626723Y-82591904D02*
X185436247Y-82544285D01*
X185436247Y-82544285D02*
X185055295Y-82544285D01*
X185055295Y-82544285D02*
X184960057Y-82591904D01*
X184960057Y-82591904D02*
X184912438Y-82639523D01*
X184912438Y-82639523D02*
X184864819Y-82734761D01*
X184864819Y-82734761D02*
X184864819Y-82925237D01*
X184864819Y-82925237D02*
X184912438Y-83020475D01*
X184912438Y-83020475D02*
X184960057Y-83068094D01*
X184960057Y-83068094D02*
X185055295Y-83115713D01*
X185055295Y-83115713D02*
X185293390Y-83115713D01*
X185293390Y-83115713D02*
X185388628Y-83068094D01*
X185388628Y-83068094D02*
X185436247Y-83020475D01*
X185436247Y-83020475D02*
X185483866Y-82925237D01*
X185483866Y-82925237D02*
X185483866Y-82734761D01*
X185483866Y-82734761D02*
X185436247Y-82639523D01*
X185436247Y-82639523D02*
X185388628Y-82591904D01*
X185388628Y-82591904D02*
X185293390Y-82544285D01*
X186284819Y-84611904D02*
X187094342Y-84611904D01*
X187094342Y-84611904D02*
X187189580Y-84564285D01*
X187189580Y-84564285D02*
X187237200Y-84516666D01*
X187237200Y-84516666D02*
X187284819Y-84421428D01*
X187284819Y-84421428D02*
X187284819Y-84230952D01*
X187284819Y-84230952D02*
X187237200Y-84135714D01*
X187237200Y-84135714D02*
X187189580Y-84088095D01*
X187189580Y-84088095D02*
X187094342Y-84040476D01*
X187094342Y-84040476D02*
X186284819Y-84040476D01*
X187284819Y-83040476D02*
X187284819Y-83611904D01*
X187284819Y-83326190D02*
X186284819Y-83326190D01*
X186284819Y-83326190D02*
X186427676Y-83421428D01*
X186427676Y-83421428D02*
X186522914Y-83516666D01*
X186522914Y-83516666D02*
X186570533Y-83611904D01*
%TO.C,C3*%
D16*
X197780000Y-46482164D02*
X197780000Y-46697836D01*
X198500000Y-46482164D02*
X198500000Y-46697836D01*
%TO.C,SW3*%
X187010000Y-93560000D02*
X187010000Y-101510000D01*
X187010000Y-93560000D02*
X187160000Y-93560000D01*
X187010000Y-101510000D02*
X194310000Y-101510000D01*
X189160000Y-93560000D02*
X189660000Y-93560000D01*
X191660000Y-93560000D02*
X192160000Y-93560000D01*
X194310000Y-93560000D02*
X194160000Y-93560000D01*
X194310000Y-101510000D02*
X194310000Y-93560000D01*
%TO.C,R3*%
X184563641Y-92700000D02*
X184256359Y-92700000D01*
X184563641Y-93460000D02*
X184256359Y-93460000D01*
%TO.C,C1*%
X191600000Y-83557836D02*
X191600000Y-83342164D01*
X192320000Y-83557836D02*
X192320000Y-83342164D01*
%TO.C,R4*%
X184483641Y-94060000D02*
X184176359Y-94060000D01*
X184483641Y-94820000D02*
X184176359Y-94820000D01*
%TO.C,C8*%
X186060000Y-85719420D02*
X186060000Y-86000580D01*
X187080000Y-85719420D02*
X187080000Y-86000580D01*
%TO.C,J3*%
X130920000Y-46580000D02*
X181940000Y-46580000D01*
X130920000Y-49230000D02*
X130920000Y-46580000D01*
X130920000Y-51880000D02*
X130920000Y-50500000D01*
X132300000Y-51880000D02*
X130920000Y-51880000D01*
X133570000Y-49230000D02*
X130920000Y-49230000D01*
X133570000Y-51880000D02*
X133570000Y-49230000D01*
X133570000Y-51880000D02*
X181940000Y-51880000D01*
X181940000Y-51880000D02*
X181940000Y-46580000D01*
%TO.C,R1*%
X198780000Y-50506359D02*
X198780000Y-50813641D01*
X199540000Y-50506359D02*
X199540000Y-50813641D01*
%TO.C,R6*%
X184493641Y-96640000D02*
X184186359Y-96640000D01*
X184493641Y-97400000D02*
X184186359Y-97400000D01*
%TO.C,C4*%
X199470000Y-46522164D02*
X199470000Y-46737836D01*
X200190000Y-46522164D02*
X200190000Y-46737836D01*
%TO.C,SLOT1*%
D17*
X131950000Y-69900000D02*
X131950000Y-80400000D01*
X131950000Y-80400000D02*
X136500000Y-80400000D01*
X132200000Y-55050000D02*
X132200000Y-62250000D01*
X132200000Y-62250000D02*
X135200000Y-62250000D01*
X132850000Y-62300000D02*
X132850000Y-68500000D01*
X132850000Y-68500000D02*
X131950000Y-69900000D01*
X135200000Y-55050000D02*
X132200000Y-55050000D01*
X135200000Y-56200000D02*
X135200000Y-55050000D01*
X135800000Y-56200000D02*
X135200000Y-56200000D01*
X136500000Y-80400000D02*
X136500000Y-74900000D01*
X198900000Y-80400000D02*
X198900000Y-74900000D01*
X200200000Y-55050000D02*
X200200000Y-56200000D01*
X200200000Y-56200000D02*
X199800000Y-56200000D01*
X200200000Y-62250000D02*
X203200000Y-62250000D01*
X202500000Y-62300000D02*
X202500000Y-68500000D01*
X202500000Y-68500000D02*
X203400000Y-69900000D01*
X203200000Y-55050000D02*
X200200000Y-55050000D01*
X203200000Y-62250000D02*
X203200000Y-55050000D01*
X203400000Y-69900000D02*
X203400000Y-80400000D01*
X203400000Y-80400000D02*
X198900000Y-80400000D01*
D18*
X199460000Y-53781000D02*
G75*
G02*
X199260000Y-53781000I-100000J0D01*
G01*
X199260000Y-53781000D02*
G75*
G02*
X199460000Y-53781000I100000J0D01*
G01*
%TO.C,SW1*%
D16*
X183930000Y-49240000D02*
X183930000Y-46740000D01*
X184380000Y-46290000D02*
X183930000Y-46740000D01*
X184380000Y-49690000D02*
X183930000Y-49240000D01*
X185680000Y-45240000D02*
X187680000Y-45240000D01*
X185680000Y-50740000D02*
X187680000Y-50740000D01*
X188980000Y-46290000D02*
X189430000Y-46740000D01*
X188980000Y-49690000D02*
X189430000Y-49240000D01*
X189430000Y-49240000D02*
X189430000Y-46740000D01*
%TO.C,R5*%
X184483641Y-95350000D02*
X184176359Y-95350000D01*
X184483641Y-96110000D02*
X184176359Y-96110000D01*
%TO.C,SW4*%
X195780000Y-93670000D02*
X195780000Y-101620000D01*
X195780000Y-93670000D02*
X195930000Y-93670000D01*
X195780000Y-101620000D02*
X203080000Y-101620000D01*
X197930000Y-93670000D02*
X198430000Y-93670000D01*
X200430000Y-93670000D02*
X200930000Y-93670000D01*
X203080000Y-93670000D02*
X202930000Y-93670000D01*
X203080000Y-101620000D02*
X203080000Y-93670000D01*
%TO.C,C2*%
X191440000Y-85809420D02*
X191440000Y-86090580D01*
X192460000Y-85809420D02*
X192460000Y-86090580D01*
%TO.C,J1*%
X130980000Y-92620000D02*
X182000000Y-92620000D01*
X130980000Y-95270000D02*
X130980000Y-92620000D01*
X130980000Y-97920000D02*
X130980000Y-96540000D01*
X132360000Y-97920000D02*
X130980000Y-97920000D01*
X133630000Y-95270000D02*
X130980000Y-95270000D01*
X133630000Y-97920000D02*
X133630000Y-95270000D01*
X133630000Y-97920000D02*
X182000000Y-97920000D01*
X182000000Y-97920000D02*
X182000000Y-92620000D01*
%TO.C,R2*%
X200540000Y-50536359D02*
X200540000Y-50843641D01*
X201300000Y-50536359D02*
X201300000Y-50843641D01*
%TO.C,SW2*%
X190910000Y-48940000D02*
X190910000Y-46440000D01*
X191360000Y-45990000D02*
X190910000Y-46440000D01*
X191360000Y-49390000D02*
X190910000Y-48940000D01*
X192660000Y-44940000D02*
X194660000Y-44940000D01*
X192660000Y-50440000D02*
X194660000Y-50440000D01*
X195960000Y-45990000D02*
X196410000Y-46440000D01*
X195960000Y-49390000D02*
X196410000Y-48940000D01*
X196410000Y-48940000D02*
X196410000Y-46440000D01*
%TO.C,C9*%
X186210000Y-83437836D02*
X186210000Y-83222164D01*
X186930000Y-83437836D02*
X186930000Y-83222164D01*
%TO.C,U1*%
X187670000Y-82940000D02*
X188670000Y-82940000D01*
X187670000Y-84760000D02*
X187670000Y-82940000D01*
X187720000Y-84760000D02*
X187670000Y-84760000D01*
X189620000Y-84760000D02*
X188840000Y-84760000D01*
X189790000Y-82940000D02*
X190790000Y-82940000D01*
X190790000Y-82940000D02*
X190790000Y-84760000D01*
X190790000Y-84760000D02*
X190740000Y-84760000D01*
X188850000Y-85300000D02*
X189180000Y-85060000D01*
X189180000Y-85540000D01*
X188850000Y-85300000D01*
G36*
X189180000Y-85540000D02*
G01*
X188850000Y-85300000D01*
X189180000Y-85060000D01*
X189180000Y-85540000D01*
G37*
%TD*%
M02*
